<svg width="1400" height="767" aria-label="A chart." style="overflow: hidden;"><defs id="_ABSTRACT_RENDERER_ID_59"><clipPath id="_ABSTRACT_RENDERER_ID_60"><rect x="247" y="147" width="906" height="474"></rect></clipPath></defs><rect x="0" y="0" width="1400" height="767" stroke="none" stroke-width="0" fill="#ffffff"></rect><g><text text-anchor="start" x="247" y="92.6" font-family="Arial" font-size="16" font-weight="bold" stroke="none" stroke-width="0" fill="#2c3e50">Serie Temporal de NBR (últimos 10 años) para el Área de Incendio</text><rect x="247" y="79" width="906" height="16" stroke="none" stroke-width="0" fill-opacity="0" fill="#ffffff"></rect></g><g><rect x="664" y="105" width="72" height="16" stroke="none" stroke-width="0" fill-opacity="0" fill="#ffffff"></rect><g column-id="NBR"><rect x="664" y="105" width="72" height="16" stroke="none" stroke-width="0" fill-opacity="0" fill="#ffffff"></rect><g><text text-anchor="start" x="702" y="118.6" font-family="Arial" font-size="16" stroke="none" stroke-width="0" fill="#222222">NBR</text></g><path d="M664,113L696,113" stroke="#8b4513" stroke-width="1.5" fill-opacity="1" fill="none"></path><circle cx="680" cy="113" r="2" stroke="none" stroke-width="0" fill="#8b4513"></circle></g></g><g><rect x="247" y="147" width="906" height="474" stroke="none" stroke-width="0" fill-opacity="0" fill="#ffffff"></rect><g clip-path="url(https://code.earthengine.google.com/#_ABSTRACT_RENDERER_ID_60)"><g><rect x="261" y="147" width="1" height="474" stroke="none" stroke-width="0" fill="#ebebeb"></rect><rect x="291" y="147" width="1" height="474" stroke="none" stroke-width="0" fill="#ebebeb"></rect><rect x="322" y="147" width="1" height="474" stroke="none" stroke-width="0" fill="#ebebeb"></rect><rect x="353" y="147" width="1" height="474" stroke="none" stroke-width="0" fill="#ebebeb"></rect><rect x="353" y="147" width="1" height="474" stroke="none" stroke-width="0" fill="#cccccc"></rect><rect x="383" y="147" width="1" height="474" stroke="none" stroke-width="0" fill="#ebebeb"></rect><rect x="413" y="147" width="1" height="474" stroke="none" stroke-width="0" fill="#ebebeb"></rect><rect x="444" y="147" width="1" height="474" stroke="none" stroke-width="0" fill="#ebebeb"></rect><rect x="475" y="147" width="1" height="474" stroke="none" stroke-width="0" fill="#ebebeb"></rect><rect x="475" y="147" width="1" height="474" stroke="none" stroke-width="0" fill="#cccccc"></rect><rect x="505" y="147" width="1" height="474" stroke="none" stroke-width="0" fill="#ebebeb"></rect><rect x="535" y="147" width="1" height="474" stroke="none" stroke-width="0" fill="#ebebeb"></rect><rect x="566" y="147" width="1" height="474" stroke="none" stroke-width="0" fill="#ebebeb"></rect><rect x="597" y="147" width="1" height="474" stroke="none" stroke-width="0" fill="#ebebeb"></rect><rect x="597" y="147" width="1" height="474" stroke="none" stroke-width="0" fill="#cccccc"></rect><rect x="627" y="147" width="1" height="474" stroke="none" stroke-width="0" fill="#ebebeb"></rect><rect x="657" y="147" width="1" height="474" stroke="none" stroke-width="0" fill="#ebebeb"></rect><rect x="688" y="147" width="1" height="474" stroke="none" stroke-width="0" fill="#ebebeb"></rect><rect x="719" y="147" width="1" height="474" stroke="none" stroke-width="0" fill="#ebebeb"></rect><rect x="719" y="147" width="1" height="474" stroke="none" stroke-width="0" fill="#cccccc"></rect><rect x="749" y="147" width="1" height="474" stroke="none" stroke-width="0" fill="#ebebeb"></rect><rect x="779" y="147" width="1" height="474" stroke="none" stroke-width="0" fill="#ebebeb"></rect><rect x="810" y="147" width="1" height="474" stroke="none" stroke-width="0" fill="#ebebeb"></rect><rect x="841" y="147" width="1" height="474" stroke="none" stroke-width="0" fill="#ebebeb"></rect><rect x="841" y="147" width="1" height="474" stroke="none" stroke-width="0" fill="#cccccc"></rect><rect x="871" y="147" width="1" height="474" stroke="none" stroke-width="0" fill="#ebebeb"></rect><rect x="901" y="147" width="1" height="474" stroke="none" stroke-width="0" fill="#ebebeb"></rect><rect x="932" y="147" width="1" height="474" stroke="none" stroke-width="0" fill="#ebebeb"></rect><rect x="962" y="147" width="1" height="474" stroke="none" stroke-width="0" fill="#ebebeb"></rect><rect x="962" y="147" width="1" height="474" stroke="none" stroke-width="0" fill="#cccccc"></rect><rect x="993" y="147" width="1" height="474" stroke="none" stroke-width="0" fill="#ebebeb"></rect><rect x="1023" y="147" width="1" height="474" stroke="none" stroke-width="0" fill="#ebebeb"></rect><rect x="1054" y="147" width="1" height="474" stroke="none" stroke-width="0" fill="#ebebeb"></rect><rect x="1085" y="147" width="1" height="474" stroke="none" stroke-width="0" fill="#ebebeb"></rect><rect x="1085" y="147" width="1" height="474" stroke="none" stroke-width="0" fill="#cccccc"></rect><rect x="1115" y="147" width="1" height="474" stroke="none" stroke-width="0" fill="#ebebeb"></rect><rect x="1145" y="147" width="1" height="474" stroke="none" stroke-width="0" fill="#ebebeb"></rect><rect x="247" y="588" width="906" height="1" stroke="none" stroke-width="0" fill="#cccccc"></rect><rect x="247" y="525" width="906" height="1" stroke="none" stroke-width="0" fill="#cccccc"></rect><rect x="247" y="462" width="906" height="1" stroke="none" stroke-width="0" fill="#cccccc"></rect><rect x="247" y="399" width="906" height="1" stroke="none" stroke-width="0" fill="#cccccc"></rect><rect x="247" y="336" width="906" height="1" stroke="none" stroke-width="0" fill="#cccccc"></rect><rect x="247" y="273" width="906" height="1" stroke="none" stroke-width="0" fill="#cccccc"></rect><rect x="247" y="210" width="906" height="1" stroke="none" stroke-width="0" fill="#cccccc"></rect><rect x="247" y="147" width="906" height="1" stroke="none" stroke-width="0" fill="#cccccc"></rect><rect x="247" y="620" width="906" height="1" stroke="none" stroke-width="0" fill="#ebebeb"></rect><rect x="247" y="557" width="906" height="1" stroke="none" stroke-width="0" fill="#ebebeb"></rect><rect x="247" y="494" width="906" height="1" stroke="none" stroke-width="0" fill="#ebebeb"></rect><rect x="247" y="431" width="906" height="1" stroke="none" stroke-width="0" fill="#ebebeb"></rect><rect x="247" y="368" width="906" height="1" stroke="none" stroke-width="0" fill="#ebebeb"></rect><rect x="247" y="305" width="906" height="1" stroke="none" stroke-width="0" fill="#ebebeb"></rect><rect x="247" y="242" width="906" height="1" stroke="none" stroke-width="0" fill="#ebebeb"></rect><rect x="247" y="179" width="906" height="1" stroke="none" stroke-width="0" fill="#ebebeb"></rect></g><g><rect x="247" y="462" width="906" height="1" stroke="none" stroke-width="0" fill="#333333"></rect></g><g><path d="M247.50005604069977,286.13840510570384L247.5,286.698292091125L330.98709528707946,288.98092066610855L347.6845535664145,283.756898375953L347.6844955892783,283.7399199777286L349.354283491606,301.7367513179688L349.35422551446993,302.05852788032144L351.02404433793686,285.46866068566834L351.02398636080073,285.50909639110296L352.69377426312843,280.3076157610408L352.6937201511347,280.06300738036185L354.3635351094593,282.9838378565137L354.36347713232317,282.95764040628677L359.37275194103086,285.46804273390387L359.37269396389473,285.57467224879247L361.0425089222193,287.4885330536397L361.04245094508315,287.5257343902458L362.71223837586354,286.57789543082606L362.7121808702748,286.70543809660694L364.3819919634569,331.716364573123L364.38193398632075,332.6459983297958L366.0516639115124,290.30252726058006L367.72141702755835,289.2360012145998L369.39120106474365,292.7502299572009L369.39114308760753,293.67611663480324L371.0609541807897,293.17613908610997L371.06089620365356,294.0269799103661L372.7306250968521,324.03897986202435L374.40042949174244,296.5530076351903L374.40037537974877,297.16320958845307L376.07016328207646,307.3212056488388L376.0701053049403,307.5656305682691L377.73991253298004,297.8198960581509L377.73985842098637,299.8277817859087L379.40965405359884,294.78986496218505L379.40959994160517,297.3792998969949L381.0794071696449,302.6556821800466L381.0793530576512,304.76367799532875L382.7491486902637,305.3268014705419L386.0886355966437,300.7557083699804L387.7583925778322,303.27839153003094L387.758334600696,304.59818325027425L389.4281225030237,301.1561051715353L396.1070383386476,315.05111389510637L397.77685329697215,315.50664942395036L397.7767991849785,309.6819252071165L406.1255377092117,312.5753578679891L406.1254797320756,310.1903836292864L417.81375475246597,326.4882115889773L417.81369866538444,319.51512923725244L424.4927171359999,346.38033784286586L424.4926610489184,330.27590245921897L441.19009978609336,329.1122121143103L441.1900437453936,328.732724249533L451.2085556235585,294.1926862905043L451.2084996021845,294.29643662544527L456.2177868527856,285.64124243506774L456.2177307193224,285.3242295123489L457.88751495362993,289.00127448441015L457.8874589477164,288.88865190346314L459.5572659013311,289.8926536936978L459.5572098142496,289.84725484356744L461.2269908868707,289.48670547860854L461.22693487322687,289.3867136954161L464.5664644469139,290.93563752376474L464.5664084641912,290.85881833820366L466.2362162642721,291.08624880222635L466.23616021970713,291.02890696666066L467.9059442143759,294.58804975331213L467.9058882200578,294.5543234945723L471.24542975636064,294.4263834910066L471.24537372725626,294.43052954009033L472.9151693869248,295.5465298838856L472.91511340806727,295.3908816247347L474.584913497189,302.6381580740597L474.5848574603543,302.60733021429803L476.25465259822863,304.6926585679788L476.25459660777574,304.67224869441554L477.92439500396506,303.2131106072029L477.9243390173773,303.1556100749027L479.5941343523738,302.16998799754856L479.59407838897687,302.17672144489404L482.93361405026326,309.09746132603925L482.93355807140574,309.3982476604152L486.27309163391976,316.19723069918996L486.27303569757885,316.6933384570668L487.94284316139226,316.092471974256L487.94278712842276,316.21052475230215L489.6125795954837,314.88966541732606L489.6125236320867,313.8102347422553L491.2823325801148,309.72669593062176L491.28227655101045,309.8401094158463L492.95206871659025,326.6625285340521L492.95201271840705,322.2535603303762L494.62182005080564,368.4273363255897L494.62176404489213,367.73721705915455L496.2915556538914,473.6160955199859L496.2914996286522,467.44162733408604L497.96130550775723,506.3419405583276L497.9612495057089,512.1778935173528L499.6310407011379,499.93236710905086L499.63098470681985,505.2958834253291L501.3007889471045,499.0473098469787L501.3007463918866,507.0130323923043L502.97046780989973,471.1015912047014L507.9797500048946,513.2769139074161L507.97969401830676,508.3279139780341L509.64950070136143,503.38899602772784L509.64944461427996,505.36894773422546L511.31922731412595,469.0622742051884L511.31917135072905,469.1698196280125L514.6587121217337,516.2393129856503L514.6586561042247,520.211399019377L519.6679723240682,533.0491584151123L519.6679161596838,527.6627660151273L521.3376945576264,552.7040097341809L521.3376384666798,554.7310250484278L523.0074590758425,559.0354795961955L523.0074028882673,538.4071863611882L528.0166693057508,498.69404303900694L528.0166132225345,471.76751938166706L536.3653875573123,418.9850872251966L543.0443554370786,410.4639129375625L543.0442993615925,404.1939867618046L548.0535719787645,565.3999445435225L549.7233239120769,532.0485381034858L549.7232678172652,537.8107703427563L551.3930561795448,535.9538848757314L551.3930001427102,528.1644659031354L553.0628057551205,542.0106715607949L553.0627496680389,537.7431865376309L556.4022858511196,500.20983317686677L563.081252022493,528.5588895594998L563.081195923816,526.7430002956254L564.7509848697323,347.8030040534102L568.090415209753,518.7225436119486L569.7602216995506,509.37618896413824L569.7601655390314,509.67544179347595L571.4299550183373,508.4211123530269L571.4298989467163,507.7522676657711L573.0997033416066,500.0914296111416L573.0996472042783,500.58751749349545L576.4391851421335,493.4879483539653L576.4391289932098,494.00319880886656L579.778664596519,490.2283513701965L579.7786084475952,490.85192655860357L581.4483930336307,458.12259108816903L581.4483369967961,459.3963938158746L583.1180852427626,486.022427848787L584.787873651424,493.2287344207761L584.7878176223196,494.06084014041375L586.457614932404,489.6912592075077L586.457558887839,490.16738914896973L588.1273509954417,491.4017584872324L588.1272949895283,491.98887902707537L589.7970848012362,481.13780330650013L589.7970287953228,481.27705895136626L594.8063104955794,480.29980762988794L594.8062544239585,481.2982364548415L596.4760069254469,472.91198833675895L601.485286604234,469.93054599600185L601.4852304939617,471.273024609456L603.1550327398329,459.20533800281845L603.1549765754485,462.9805669864913L604.8247706388132,462.34178347283364L604.8247145401363,464.36654120972247L608.1642522267573,438.69999785484583L608.1641961048895,440.3445552827724L611.5037313062239,380.3949511471866L613.1734756909132,438.4265956574878L614.8432128245954,444.68483430116953L614.8431566911322,445.96043651188825L616.5129611478649,433.59874881722277L616.5129050105365,435.07709133213484L618.1826994874714,435.0120832611479L618.1826433965248,437.6777459138442L619.8524438412396,427.14103457834506L619.8523877000462,430.57408212777693L621.5221275586537,430.3542629257217L624.861665198893,418.6624864950621L624.8616091079464,425.6048987342597L626.5314017141523,420.14054683867397L626.531345685048,426.0253628219106L628.2011441778659,425.8794376449497L628.2010881410313,428.65495090955073L631.5406208570791,430.9019571298352L631.5405648550307,431.84776009894495L633.2103561741443,427.53858491395675L634.8800966820959,405.8169427689298L636.549848959406,423.87056613688287L636.5497929341667,423.39539305707433L644.8985683086677,429.00733472862737L644.8985121868,452.92064586542324L648.237997983884,467.4423665356196L651.5775377074351,457.8422584621992L651.5774815546462,442.79092140073743L653.2472424473588,396.5193355300039L658.2565047098142,416.0004045160001L661.5959902749898,429.2045330344806L663.2657112407812,426.5025382047831L663.2656809264693,431.33242091560396L663.2657381189815,427.1368277299044L663.2657122302577,407.4647321395638L666.6052203949209,502.68622108052165L678.2933864608119,410.7325226600557L679.9630859132208,414.1055422868589L681.6328671443127,417.66994635770556L683.3026283191807,434.75453601963693L684.9723529916437,400.4198020511192L684.9723121564141,405.75744246991775L688.311788692617,403.5938040009038L691.6512775277031,390.19384887899804L694.9908190678711,385.62381611429845L696.6605744488905,368.89014251105624L696.6605183115622,369.0780536627138L700.0000524886339,356.4159308749583L699.9999963551707,356.39211729812513L701.6697788076476,363.623045142829L701.6697226896449,363.9363014301114L703.3395258244989,354.1425279987626L703.3394697722038,353.92236361660105L705.0091965588997,361.6915237468989L708.3487281385956,362.54185998109324L708.3486720785701,362.6724181983347L710.0184842617224,355.5732957992825L710.0184281978318,355.74538056335643L713.3579688722078,358.6162221516862L713.3579127735309,358.69120350580636L715.0276896447422,363.82213809309917L715.0276335228743,364.0970395340085L716.6974582058972,360.30050953577023L716.6974020878947,360.76669483938576L720.0368863273263,369.07381802894366L721.7066623598017,374.4327678999818L721.7066062843157,374.50152416416864L723.3764227307202,370.3552368914469L723.3763666861552,371.3626419024285L726.7159022314872,363.2029322114187L726.7158461714617,364.11677976646183L728.3856194712814,371.95851690084316L728.3855638364216,372.95528662207914L730.0553849016712,374.1911852528452L730.0553288687017,375.3740469150149L731.7251047504365,376.46490973898966L731.725048717467,377.60194186835247L733.3948545501903,374.49452738917756L733.3948104179942,375.89968146867596L735.0645842550688,375.5152809596787L735.064528218234,376.4555027066018L738.4040778597406,375.0197147469122L738.4040217533334,376.44475169923504L740.0738141894731,380.05809051619764L741.7435672282163,377.2017039174147L741.7435111140787,379.18933791058225L743.4133327281786,379.1024523532427L743.4132766063108,381.6024263202893L746.7528109766397,374.46094623255317L746.7527549359398,377.26219193496365L748.4225296194804,379.32061912459494L748.4224735517247,382.2650956298487L750.0922898241977,396.48094428013184L750.0922337950933,400.0461317481784L751.7620127496164,385.76236902042524L751.7619566779954,389.4802868118211L753.4317768503971,383.8945237473732L753.4317207594504,383.454807269063L755.1014351970164,388.51833697376014L758.4409626989872,370.1212228960097L758.4409066930737,367.0984407017251L760.1107514555114,391.2733234688078L760.1106953761602,386.7088315895139L761.7804616414206,403.19870991474926L763.4502299242855,392.7669119484973L765.119955802673,378.31674244409004L765.1198996266932,375.5811390443909L771.7989285989005,357.8044615812346L773.4687031935429,380.78743052882083L773.4686470639448,371.35026293971225L775.1384216508569,351.7908238852544L775.1383654594166,339.47290739900023L778.4779086422701,340.41281471731287L778.4778524392343,340.75885208720644L780.1476811651961,270.54553588373426L780.1476249969467,269.5671167758512L781.8173911230621,270.3879821728101L781.8173349509474,269.5662168639306L786.8266394478139,354.6566901432417L786.8265833143507,348.16797573748204L793.5056096389355,393.36179053353135L793.5055534977421,387.4529581495479L796.8450949606072,394.1075558117146L796.8450388310091,397.83217342498057L801.8542771914239,398.11814711905845L801.854221146859,396.31360204030955L803.5240537070421,384.05642394964514L803.5239975426578,379.77586732214706L808.5332391072756,417.0512804987692L810.2030062808445,384.8210592749605L810.2029501937631,385.51657920185204L811.8727105182996,427.90552767183516L813.5424836171319,376.97940533244986L813.5424275261853,378.06857755969844L815.212199442284,372.8464952147464L815.2121433474722,373.116701153154L816.8819500305269,364.34642608869683L816.8818940246134,363.97451204273403L818.5516826419924,398.2897763210342L820.2214227247782,347.98545726377523L821.891160090369,355.76434405412977L821.8911040612646,355.7984440007805L825.2306503400972,354.45527388807926L825.2305942298248,354.3298684675953L826.9003976622947,349.3437407789961L826.9003416022692,349.63868266504886L828.5700764323265,351.87417847208343L830.2398763165957,377.7722757855594L831.9096080699996,350.3952490280233L831.9095519983787,350.65857549887687L833.5793612401576,348.2390972401555L833.5793051569412,348.49950982367744L835.2490931558975,352.42227439162826L835.2490370069738,352.6209968878254L836.9188371540727,348.57076092756256L836.9187811211032,348.7278670928871L838.5885814150774,349.6192105813093L838.588525277749,349.77547040729235L840.2583207905421,350.9087900579446L840.2582647537075,351.03383981859724L841.9280607882948,355.8246336490301L841.9280047282693,356.0819409624515L843.5978030974027,360.1353982347562L843.5977469948606,360.3693080906979L845.2675333897828,357.7772424497779L845.2674773993299,357.94900789461053L846.937272803899,355.6981515698957L846.9372167863901,355.88901393627907L848.6070254329371,359.4287653236571L848.6069694154281,359.77933314292324L850.276766141876,356.02183987536296L850.2767100663899,356.41520146616756L851.9465035383878,357.67989195203444L851.9464475402046,357.8171036103427L853.6162535623199,355.0158970681698L853.6161974443173,352.6635818960523L855.2859935252864,364.0947868667785L855.2859374768562,363.52464552843685L856.9557277910328,362.8985242050928L856.955671777389,364.4750625308721L858.6254819004205,364.2724196199614L858.6254257669573,365.9566539043086L860.2952143495501,363.04708896533344L860.29515830112,363.60014177563096L861.9649555339014,367.6011754916913L861.9649172999127,369.35823029382914L863.6346301952868,352.093326570229L865.3044646223337,367.18746582083185L865.3044084811403,370.2346627201447L866.9741830178054,369.41749604311474L866.974126903668,370.8338937431771L868.6439402540933,367.6127218594055L868.6438841631467,371.9060004918292L870.3136639100239,362.2895759483577L870.313607865459,362.6228195552525L871.9834271218219,356.90345081714895L873.6531563706136,366.37590595976314L873.65310022942,365.18832997262416L875.3228993909077,422.45021485755416L878.6623884926885,368.3855465699293L878.6623323824161,367.2592593568915L882.0018733157567,343.62025336523334L882.0018171475073,341.705790626609L883.6716041879082,351.1487801284288L883.6715480351193,349.8128103727882L885.3413592751768,362.1616330552034L885.341303122388,364.06528459043136L893.690067423256,450.71424867276124L895.3598153058991,329.93938750817125L897.0295533594852,359.9268676527822L897.0294972221569,357.2775118356222L910.3874332097331,411.7435858152288L912.0572303458861,377.6137571786952L912.0571742588045,375.2246346127515L913.7269710161735,368.17261099539996L913.7269149097663,367.4409380275177L915.3967155129519,361.5209785460472L920.4059413734961,383.7455465014598L920.4058852323027,380.1230710850663L922.0756784298756,385.0464265269209L922.0756223118728,383.80167072986177L927.0848996522489,390.84185948983026L927.0848434955948,389.7218518416943L932.0941170635919,387.90341970112456L932.0940609455891,388.95440926774864L933.7638548814042,373.25372784500144L937.1033288820737,377.7918468909029L937.1032728181831,378.29649015154894L943.7822964912801,358.7834134905707L943.7822403848729,358.90888128490246L945.4520488768143,355.41803301860807L948.7915143007327,346.85518504752696L948.7914582523027,346.9777592337714L950.4612317492446,348.82394253064797L950.4611903187831,348.6540034191622L952.1309951774906,342.47565826212616L952.1309391213302,342.24837555668154L953.8007220298939,338.28796756718384L953.8006659891942,338.46468975544553L955.4704763170781,339.29831702180167L955.4704202841086,339.4546003778319L957.1402156461612,337.0647263899613L957.1401596054613,337.2170537731877L958.8099750198728,338.2527196558083L958.8099188632187,338.1991490404448L960.4797023940704,334.4141387893546L960.4796463147192,334.573487369508L962.149461361942,333.9701936397396L962.1494051743668,334.1496427118188L963.8191851956691,332.8521588398854L963.8191291047225,333.1496502652169L965.4889351809499,333.99268427744903L965.4888791093289,334.2205795069201L967.1586569932075,332.36254403354474L967.1586009988894,332.5160042544514L968.8284195633918,333.0018816206102L968.8283634608498,333.51337588303954L970.4981382255584,334.0421241134932L970.4980822080495,334.59818458608424L972.1678983181865,338.52443864616646L972.1678422658913,339.195575679424L973.8376306165756,331.2631549509236L973.8375745874712,331.73859052823116L975.5073869213641,340.0775881336927L975.5073308767991,340.28193833684213L977.1771192699998,331.67730151867056L977.177063225435,332.18653364920294L978.8468759806284,335.9911721500911L978.8468198742212,337.0924487513841L982.1863501088476,337.20840385275903L982.1862940565524,338.1808331275387L983.8560889741135,335.7742866591444L983.856041599063,336.6604958120937L985.5258171136093,339.3312762427087L985.5257611308866,340.08733801521134L987.1955788141366,336.37865103614325L987.1955226729431,337.95075446860915L990.5350107659218,356.29837467504774L992.2048039828204,339.17847053615117L992.2047478918737,341.4242667050055L995.5442828806252,329.9044455317767L995.5442268167346,331.1957182517623L998.8837741584814,335.63796917299635L998.8837180095576,334.90409019056784L1002.2232494462432,325.2497283849262L1002.2231933243755,324.7588904716616L1007.2324897894762,314.8011486905074L1007.2324336521478,321.29511411002403L1008.902211717688,340.1687611244829L1013.9114580093751,420.8684489097599L1018.920679166041,306.36311502670185L1018.9206230287127,306.4865778952477L1023.9299057918835,317.1684104028849L1023.9298497241277,312.82245869861265L1027.269386800056,320.96591473744945L1027.2693307052446,320.3424812991991L1028.9391296000372,318.1698829729748L1028.9390734743042,315.1005330142235L1030.6088647818224,352.6985355622635L1032.2786102294258,374.48875876641216L1038.9575800958755,334.1750631286824L1045.6365431055624,356.28218233045436L1045.6364869605038,354.20336887941994L1047.3062708933303,382.29483048300773L1048.9760137590188,361.1907319847088L1048.975957695128,360.6730692187236L1052.3154928075642,345.591233628764L1052.315436701157,346.5401724786707L1055.65498543049,346.77842116941446L1058.9944625310036,338.62529271895403L1060.6642060924173,339.25970910876123L1060.6641499705497,339.77797982561964L1062.333950484837,329.9304088470982L1062.3338943320482,329.7762268809783L1064.0036916382674,333.56069649436137L1064.003635477748,333.90404345425577L1069.0128970328824,330.9464397714564L1069.0128409921826,330.9702275293954L1070.6826542382491,328.0494515948736L1072.352400234703,330.5448700861492L1072.3523440587232,330.55288102280525L1075.691882607271,331.41482123286585L1075.6918264738079,331.39229170118625L1077.3616259599671,328.39551939008226L1077.3615698419644,328.37663405338276L1079.0313679366727,329.0751994702698L1079.0313117645583,328.85747237010776L1080.7010995702572,327.8419460772776L1080.7010435334228,327.8401112821184L1082.3708517200178,330.56386440633725L1082.3707955942848,330.75452555546184L1084.0405913853683,332.4509454270075L1084.0405352866912,332.58564312519167L1085.7103287007121,333.362991361314L1085.7102726213607,333.5137180604157L1089.0498099833098,339.93453857511554L1089.0497539194193,340.12285723112524L1090.7195480330306,335.22392280109165L1090.719491942084,335.18511621036106L1092.389300283285,337.1283468702862L1092.389244180743,337.56776602429665L1094.0591445316586,332.3844871685196L1094.0590883672744,332.6992896215367L1095.7287879433677,336.883963461872L1095.7287318214999,337.39040760581616L1097.398615571629,331.32456629354624L1097.3985671336645,331.8008922441618L1099.0682746062437,334.63843309281344L1099.068218461185,336.20887112315046L1100.7380840644705,332.4332128831961L1100.738036496163,333.1968850455173L1102.4077618720821,339.78828866375704L1102.4077057270233,340.77527529682465L1104.0775788325504,333.9358321023939L1104.0775227145477,335.19025355190666L1105.7472394866595,337.4449863426977L1105.747183368657,338.51415482556666L1107.4170608649856,333.1284686166314L1107.4170047817693,333.9586330913593L1109.0867161542774,341.7695179675353L1109.0866600787913,344.09559936047174L1110.7565405203586,336.59398337571287L1110.756487142742,337.4545933882755L1111.4243946236352,340.41259434869403L1111.4243385945306,342.65476813140003L1112.426148956394,340.14475735258384L1117.4355069159103,331.6951537833543L1117.4354507708517,332.6685781408394L1119.1051696919828,327.2334620352297L1119.1051135469243,327.7359678054387L1121.442848478282,332.0522908594626L1121.4427922829766,332.1788286691283L1124.1144694540499,327.70221785110164L1124.1144132935306,329.08857850445406L1125.7841333355532,323.34734056029805L1125.784077205955,323.8124470792227L1129.123612256549,323.1827691950276L1129.123556130816,331.0782699684098L1132.4630961403877,352.25649577786265L1134.1329099971467,299.05904216441786L1134.1328538173016,304.5972610952133L1135.8025781844185,373.41852534012526L1135.8025220896066,371.19799615320966L1137.4723953613347,356.5144335830746L1137.4723392201413,353.6191293247101L1139.1420506042446,385.3168007514127L1141.4797449206862,285.29968484457936L1141.4796888993121,280.0511141104429L1148.1587344413851,349.6071775269302L1148.158678257675,340.71420403757566L1149.160520723411,325.6852306433115L1149.1604676627362,319.64880500537726L1150.8303231393484,322.64292638848576L1150.8302822152207,317.50585756765383L1152.5,334.72889171012696" stroke="#8b4513" stroke-width="1.5" fill-opacity="1" fill="none"></path></g></g><g><circle cx="247.50005604069977" cy="286.13840510570384" r="2" stroke="none" stroke-width="0" fill="#8b4513"></circle><circle cx="247.5" cy="286.698292091125" r="2" stroke="none" stroke-width="0" fill="#8b4513"></circle><circle cx="330.98709528707946" cy="288.98092066610855" r="2" stroke="none" stroke-width="0" fill="#8b4513"></circle><circle cx="347.6845535664145" cy="283.756898375953" r="2" stroke="none" stroke-width="0" fill="#8b4513"></circle><circle cx="347.6844955892783" cy="283.7399199777286" r="2" stroke="none" stroke-width="0" fill="#8b4513"></circle><circle cx="349.354283491606" cy="301.7367513179688" r="2" stroke="none" stroke-width="0" fill="#8b4513"></circle><circle cx="349.35422551446993" cy="302.05852788032144" r="2" stroke="none" stroke-width="0" fill="#8b4513"></circle><circle cx="351.02404433793686" cy="285.46866068566834" r="2" stroke="none" stroke-width="0" fill="#8b4513"></circle><circle cx="351.02398636080073" cy="285.50909639110296" r="2" stroke="none" stroke-width="0" fill="#8b4513"></circle><circle cx="352.69377426312843" cy="280.3076157610408" r="2" stroke="none" stroke-width="0" fill="#8b4513"></circle><circle cx="352.6937201511347" cy="280.06300738036185" r="2" stroke="none" stroke-width="0" fill="#8b4513"></circle><circle cx="354.3635351094593" cy="282.9838378565137" r="2" stroke="none" stroke-width="0" fill="#8b4513"></circle><circle cx="354.36347713232317" cy="282.95764040628677" r="2" stroke="none" stroke-width="0" fill="#8b4513"></circle><circle cx="359.37275194103086" cy="285.46804273390387" r="2" stroke="none" stroke-width="0" fill="#8b4513"></circle><circle cx="359.37269396389473" cy="285.57467224879247" r="2" stroke="none" stroke-width="0" fill="#8b4513"></circle><circle cx="361.0425089222193" cy="287.4885330536397" r="2" stroke="none" stroke-width="0" fill="#8b4513"></circle><circle cx="361.04245094508315" cy="287.5257343902458" r="2" stroke="none" stroke-width="0" fill="#8b4513"></circle><circle cx="362.71223837586354" cy="286.57789543082606" r="2" stroke="none" stroke-width="0" fill="#8b4513"></circle><circle cx="362.7121808702748" cy="286.70543809660694" r="2" stroke="none" stroke-width="0" fill="#8b4513"></circle><circle cx="364.3819919634569" cy="331.716364573123" r="2" stroke="none" stroke-width="0" fill="#8b4513"></circle><circle cx="364.38193398632075" cy="332.6459983297958" r="2" stroke="none" stroke-width="0" fill="#8b4513"></circle><circle cx="366.0516639115124" cy="290.30252726058006" r="2" stroke="none" stroke-width="0" fill="#8b4513"></circle><circle cx="367.72141702755835" cy="289.2360012145998" r="2" stroke="none" stroke-width="0" fill="#8b4513"></circle><circle cx="369.39120106474365" cy="292.7502299572009" r="2" stroke="none" stroke-width="0" fill="#8b4513"></circle><circle cx="369.39114308760753" cy="293.67611663480324" r="2" stroke="none" stroke-width="0" fill="#8b4513"></circle><circle cx="371.0609541807897" cy="293.17613908610997" r="2" stroke="none" stroke-width="0" fill="#8b4513"></circle><circle cx="371.06089620365356" cy="294.0269799103661" r="2" stroke="none" stroke-width="0" fill="#8b4513"></circle><circle cx="372.7306250968521" cy="324.03897986202435" r="2" stroke="none" stroke-width="0" fill="#8b4513"></circle><circle cx="374.40042949174244" cy="296.5530076351903" r="2" stroke="none" stroke-width="0" fill="#8b4513"></circle><circle cx="374.40037537974877" cy="297.16320958845307" r="2" stroke="none" stroke-width="0" fill="#8b4513"></circle><circle cx="376.07016328207646" cy="307.3212056488388" r="2" stroke="none" stroke-width="0" fill="#8b4513"></circle><circle cx="376.0701053049403" cy="307.5656305682691" r="2" stroke="none" stroke-width="0" fill="#8b4513"></circle><circle cx="377.73991253298004" cy="297.8198960581509" r="2" stroke="none" stroke-width="0" fill="#8b4513"></circle><circle cx="377.73985842098637" cy="299.8277817859087" r="2" stroke="none" stroke-width="0" fill="#8b4513"></circle><circle cx="379.40965405359884" cy="294.78986496218505" r="2" stroke="none" stroke-width="0" fill="#8b4513"></circle><circle cx="379.40959994160517" cy="297.3792998969949" r="2" stroke="none" stroke-width="0" fill="#8b4513"></circle><circle cx="381.0794071696449" cy="302.6556821800466" r="2" stroke="none" stroke-width="0" fill="#8b4513"></circle><circle cx="381.0793530576512" cy="304.76367799532875" r="2" stroke="none" stroke-width="0" fill="#8b4513"></circle><circle cx="382.7491486902637" cy="305.3268014705419" r="2" stroke="none" stroke-width="0" fill="#8b4513"></circle><circle cx="386.0886355966437" cy="300.7557083699804" r="2" stroke="none" stroke-width="0" fill="#8b4513"></circle><circle cx="387.7583925778322" cy="303.27839153003094" r="2" stroke="none" stroke-width="0" fill="#8b4513"></circle><circle cx="387.758334600696" cy="304.59818325027425" r="2" stroke="none" stroke-width="0" fill="#8b4513"></circle><circle cx="389.4281225030237" cy="301.1561051715353" r="2" stroke="none" stroke-width="0" fill="#8b4513"></circle><circle cx="396.1070383386476" cy="315.05111389510637" r="2" stroke="none" stroke-width="0" fill="#8b4513"></circle><circle cx="397.77685329697215" cy="315.50664942395036" r="2" stroke="none" stroke-width="0" fill="#8b4513"></circle><circle cx="397.7767991849785" cy="309.6819252071165" r="2" stroke="none" stroke-width="0" fill="#8b4513"></circle><circle cx="406.1255377092117" cy="312.5753578679891" r="2" stroke="none" stroke-width="0" fill="#8b4513"></circle><circle cx="406.1254797320756" cy="310.1903836292864" r="2" stroke="none" stroke-width="0" fill="#8b4513"></circle><circle cx="417.81375475246597" cy="326.4882115889773" r="2" stroke="none" stroke-width="0" fill="#8b4513"></circle><circle cx="417.81369866538444" cy="319.51512923725244" r="2" stroke="none" stroke-width="0" fill="#8b4513"></circle><circle cx="424.4927171359999" cy="346.38033784286586" r="2" stroke="none" stroke-width="0" fill="#8b4513"></circle><circle cx="424.4926610489184" cy="330.27590245921897" r="2" stroke="none" stroke-width="0" fill="#8b4513"></circle><circle cx="441.19009978609336" cy="329.1122121143103" r="2" stroke="none" stroke-width="0" fill="#8b4513"></circle><circle cx="441.1900437453936" cy="328.732724249533" r="2" stroke="none" stroke-width="0" fill="#8b4513"></circle><circle cx="451.2085556235585" cy="294.1926862905043" r="2" stroke="none" stroke-width="0" fill="#8b4513"></circle><circle cx="451.2084996021845" cy="294.29643662544527" r="2" stroke="none" stroke-width="0" fill="#8b4513"></circle><circle cx="456.2177868527856" cy="285.64124243506774" r="2" stroke="none" stroke-width="0" fill="#8b4513"></circle><circle cx="456.2177307193224" cy="285.3242295123489" r="2" stroke="none" stroke-width="0" fill="#8b4513"></circle><circle cx="457.88751495362993" cy="289.00127448441015" r="2" stroke="none" stroke-width="0" fill="#8b4513"></circle><circle cx="457.8874589477164" cy="288.88865190346314" r="2" stroke="none" stroke-width="0" fill="#8b4513"></circle><circle cx="459.5572659013311" cy="289.8926536936978" r="2" stroke="none" stroke-width="0" fill="#8b4513"></circle><circle cx="459.5572098142496" cy="289.84725484356744" r="2" stroke="none" stroke-width="0" fill="#8b4513"></circle><circle cx="461.2269908868707" cy="289.48670547860854" r="2" stroke="none" stroke-width="0" fill="#8b4513"></circle><circle cx="461.22693487322687" cy="289.3867136954161" r="2" stroke="none" stroke-width="0" fill="#8b4513"></circle><circle cx="464.5664644469139" cy="290.93563752376474" r="2" stroke="none" stroke-width="0" fill="#8b4513"></circle><circle cx="464.5664084641912" cy="290.85881833820366" r="2" stroke="none" stroke-width="0" fill="#8b4513"></circle><circle cx="466.2362162642721" cy="291.08624880222635" r="2" stroke="none" stroke-width="0" fill="#8b4513"></circle><circle cx="466.23616021970713" cy="291.02890696666066" r="2" stroke="none" stroke-width="0" fill="#8b4513"></circle><circle cx="467.9059442143759" cy="294.58804975331213" r="2" stroke="none" stroke-width="0" fill="#8b4513"></circle><circle cx="467.9058882200578" cy="294.5543234945723" r="2" stroke="none" stroke-width="0" fill="#8b4513"></circle><circle cx="471.24542975636064" cy="294.4263834910066" r="2" stroke="none" stroke-width="0" fill="#8b4513"></circle><circle cx="471.24537372725626" cy="294.43052954009033" r="2" stroke="none" stroke-width="0" fill="#8b4513"></circle><circle cx="472.9151693869248" cy="295.5465298838856" r="2" stroke="none" stroke-width="0" fill="#8b4513"></circle><circle cx="472.91511340806727" cy="295.3908816247347" r="2" stroke="none" stroke-width="0" fill="#8b4513"></circle><circle cx="474.584913497189" cy="302.6381580740597" r="2" stroke="none" stroke-width="0" fill="#8b4513"></circle><circle cx="474.5848574603543" cy="302.60733021429803" r="2" stroke="none" stroke-width="0" fill="#8b4513"></circle><circle cx="476.25465259822863" cy="304.6926585679788" r="2" stroke="none" stroke-width="0" fill="#8b4513"></circle><circle cx="476.25459660777574" cy="304.67224869441554" r="2" stroke="none" stroke-width="0" fill="#8b4513"></circle><circle cx="477.92439500396506" cy="303.2131106072029" r="2" stroke="none" stroke-width="0" fill="#8b4513"></circle><circle cx="477.9243390173773" cy="303.1556100749027" r="2" stroke="none" stroke-width="0" fill="#8b4513"></circle><circle cx="479.5941343523738" cy="302.16998799754856" r="2" stroke="none" stroke-width="0" fill="#8b4513"></circle><circle cx="479.59407838897687" cy="302.17672144489404" r="2" stroke="none" stroke-width="0" fill="#8b4513"></circle><circle cx="482.93361405026326" cy="309.09746132603925" r="2" stroke="none" stroke-width="0" fill="#8b4513"></circle><circle cx="482.93355807140574" cy="309.3982476604152" r="2" stroke="none" stroke-width="0" fill="#8b4513"></circle><circle cx="486.27309163391976" cy="316.19723069918996" r="2" stroke="none" stroke-width="0" fill="#8b4513"></circle><circle cx="486.27303569757885" cy="316.6933384570668" r="2" stroke="none" stroke-width="0" fill="#8b4513"></circle><circle cx="487.94284316139226" cy="316.092471974256" r="2" stroke="none" stroke-width="0" fill="#8b4513"></circle><circle cx="487.94278712842276" cy="316.21052475230215" r="2" stroke="none" stroke-width="0" fill="#8b4513"></circle><circle cx="489.6125795954837" cy="314.88966541732606" r="2" stroke="none" stroke-width="0" fill="#8b4513"></circle><circle cx="489.6125236320867" cy="313.8102347422553" r="2" stroke="none" stroke-width="0" fill="#8b4513"></circle><circle cx="491.2823325801148" cy="309.72669593062176" r="2" stroke="none" stroke-width="0" fill="#8b4513"></circle><circle cx="491.28227655101045" cy="309.8401094158463" r="2" stroke="none" stroke-width="0" fill="#8b4513"></circle><circle cx="492.95206871659025" cy="326.6625285340521" r="2" stroke="none" stroke-width="0" fill="#8b4513"></circle><circle cx="492.95201271840705" cy="322.2535603303762" r="2" stroke="none" stroke-width="0" fill="#8b4513"></circle><circle cx="494.62182005080564" cy="368.4273363255897" r="2" stroke="none" stroke-width="0" fill="#8b4513"></circle><circle cx="494.62176404489213" cy="367.73721705915455" r="2" stroke="none" stroke-width="0" fill="#8b4513"></circle><circle cx="496.2915556538914" cy="473.6160955199859" r="2" stroke="none" stroke-width="0" fill="#8b4513"></circle><circle cx="496.2914996286522" cy="467.44162733408604" r="2" stroke="none" stroke-width="0" fill="#8b4513"></circle><circle cx="497.96130550775723" cy="506.3419405583276" r="2" stroke="none" stroke-width="0" fill="#8b4513"></circle><circle cx="497.9612495057089" cy="512.1778935173528" r="2" stroke="none" stroke-width="0" fill="#8b4513"></circle><circle cx="499.6310407011379" cy="499.93236710905086" r="2" stroke="none" stroke-width="0" fill="#8b4513"></circle><circle cx="499.63098470681985" cy="505.2958834253291" r="2" stroke="none" stroke-width="0" fill="#8b4513"></circle><circle cx="501.3007889471045" cy="499.0473098469787" r="2" stroke="none" stroke-width="0" fill="#8b4513"></circle><circle cx="501.3007463918866" cy="507.0130323923043" r="2" stroke="none" stroke-width="0" fill="#8b4513"></circle><circle cx="502.97046780989973" cy="471.1015912047014" r="2" stroke="none" stroke-width="0" fill="#8b4513"></circle><circle cx="507.9797500048946" cy="513.2769139074161" r="2" stroke="none" stroke-width="0" fill="#8b4513"></circle><circle cx="507.97969401830676" cy="508.3279139780341" r="2" stroke="none" stroke-width="0" fill="#8b4513"></circle><circle cx="509.64950070136143" cy="503.38899602772784" r="2" stroke="none" stroke-width="0" fill="#8b4513"></circle><circle cx="509.64944461427996" cy="505.36894773422546" r="2" stroke="none" stroke-width="0" fill="#8b4513"></circle><circle cx="511.31922731412595" cy="469.0622742051884" r="2" stroke="none" stroke-width="0" fill="#8b4513"></circle><circle cx="511.31917135072905" cy="469.1698196280125" r="2" stroke="none" stroke-width="0" fill="#8b4513"></circle><circle cx="514.6587121217337" cy="516.2393129856503" r="2" stroke="none" stroke-width="0" fill="#8b4513"></circle><circle cx="514.6586561042247" cy="520.211399019377" r="2" stroke="none" stroke-width="0" fill="#8b4513"></circle><circle cx="519.6679723240682" cy="533.0491584151123" r="2" stroke="none" stroke-width="0" fill="#8b4513"></circle><circle cx="519.6679161596838" cy="527.6627660151273" r="2" stroke="none" stroke-width="0" fill="#8b4513"></circle><circle cx="521.3376945576264" cy="552.7040097341809" r="2" stroke="none" stroke-width="0" fill="#8b4513"></circle><circle cx="521.3376384666798" cy="554.7310250484278" r="2" stroke="none" stroke-width="0" fill="#8b4513"></circle><circle cx="523.0074590758425" cy="559.0354795961955" r="2" stroke="none" stroke-width="0" fill="#8b4513"></circle><circle cx="523.0074028882673" cy="538.4071863611882" r="2" stroke="none" stroke-width="0" fill="#8b4513"></circle><circle cx="528.0166693057508" cy="498.69404303900694" r="2" stroke="none" stroke-width="0" fill="#8b4513"></circle><circle cx="528.0166132225345" cy="471.76751938166706" r="2" stroke="none" stroke-width="0" fill="#8b4513"></circle><circle cx="536.3653875573123" cy="418.9850872251966" r="2" stroke="none" stroke-width="0" fill="#8b4513"></circle><circle cx="543.0443554370786" cy="410.4639129375625" r="2" stroke="none" stroke-width="0" fill="#8b4513"></circle><circle cx="543.0442993615925" cy="404.1939867618046" r="2" stroke="none" stroke-width="0" fill="#8b4513"></circle><circle cx="548.0535719787645" cy="565.3999445435225" r="2" stroke="none" stroke-width="0" fill="#8b4513"></circle><circle cx="549.7233239120769" cy="532.0485381034858" r="2" stroke="none" stroke-width="0" fill="#8b4513"></circle><circle cx="549.7232678172652" cy="537.8107703427563" r="2" stroke="none" stroke-width="0" fill="#8b4513"></circle><circle cx="551.3930561795448" cy="535.9538848757314" r="2" stroke="none" stroke-width="0" fill="#8b4513"></circle><circle cx="551.3930001427102" cy="528.1644659031354" r="2" stroke="none" stroke-width="0" fill="#8b4513"></circle><circle cx="553.0628057551205" cy="542.0106715607949" r="2" stroke="none" stroke-width="0" fill="#8b4513"></circle><circle cx="553.0627496680389" cy="537.7431865376309" r="2" stroke="none" stroke-width="0" fill="#8b4513"></circle><circle cx="556.4022858511196" cy="500.20983317686677" r="2" stroke="none" stroke-width="0" fill="#8b4513"></circle><circle cx="563.081252022493" cy="528.5588895594998" r="2" stroke="none" stroke-width="0" fill="#8b4513"></circle><circle cx="563.081195923816" cy="526.7430002956254" r="2" stroke="none" stroke-width="0" fill="#8b4513"></circle><circle cx="564.7509848697323" cy="347.8030040534102" r="2" stroke="none" stroke-width="0" fill="#8b4513"></circle><circle cx="568.090415209753" cy="518.7225436119486" r="2" stroke="none" stroke-width="0" fill="#8b4513"></circle><circle cx="569.7602216995506" cy="509.37618896413824" r="2" stroke="none" stroke-width="0" fill="#8b4513"></circle><circle cx="569.7601655390314" cy="509.67544179347595" r="2" stroke="none" stroke-width="0" fill="#8b4513"></circle><circle cx="571.4299550183373" cy="508.4211123530269" r="2" stroke="none" stroke-width="0" fill="#8b4513"></circle><circle cx="571.4298989467163" cy="507.7522676657711" r="2" stroke="none" stroke-width="0" fill="#8b4513"></circle><circle cx="573.0997033416066" cy="500.0914296111416" r="2" stroke="none" stroke-width="0" fill="#8b4513"></circle><circle cx="573.0996472042783" cy="500.58751749349545" r="2" stroke="none" stroke-width="0" fill="#8b4513"></circle><circle cx="576.4391851421335" cy="493.4879483539653" r="2" stroke="none" stroke-width="0" fill="#8b4513"></circle><circle cx="576.4391289932098" cy="494.00319880886656" r="2" stroke="none" stroke-width="0" fill="#8b4513"></circle><circle cx="579.778664596519" cy="490.2283513701965" r="2" stroke="none" stroke-width="0" fill="#8b4513"></circle><circle cx="579.7786084475952" cy="490.85192655860357" r="2" stroke="none" stroke-width="0" fill="#8b4513"></circle><circle cx="581.4483930336307" cy="458.12259108816903" r="2" stroke="none" stroke-width="0" fill="#8b4513"></circle><circle cx="581.4483369967961" cy="459.3963938158746" r="2" stroke="none" stroke-width="0" fill="#8b4513"></circle><circle cx="583.1180852427626" cy="486.022427848787" r="2" stroke="none" stroke-width="0" fill="#8b4513"></circle><circle cx="584.787873651424" cy="493.2287344207761" r="2" stroke="none" stroke-width="0" fill="#8b4513"></circle><circle cx="584.7878176223196" cy="494.06084014041375" r="2" stroke="none" stroke-width="0" fill="#8b4513"></circle><circle cx="586.457614932404" cy="489.6912592075077" r="2" stroke="none" stroke-width="0" fill="#8b4513"></circle><circle cx="586.457558887839" cy="490.16738914896973" r="2" stroke="none" stroke-width="0" fill="#8b4513"></circle><circle cx="588.1273509954417" cy="491.4017584872324" r="2" stroke="none" stroke-width="0" fill="#8b4513"></circle><circle cx="588.1272949895283" cy="491.98887902707537" r="2" stroke="none" stroke-width="0" fill="#8b4513"></circle><circle cx="589.7970848012362" cy="481.13780330650013" r="2" stroke="none" stroke-width="0" fill="#8b4513"></circle><circle cx="589.7970287953228" cy="481.27705895136626" r="2" stroke="none" stroke-width="0" fill="#8b4513"></circle><circle cx="594.8063104955794" cy="480.29980762988794" r="2" stroke="none" stroke-width="0" fill="#8b4513"></circle><circle cx="594.8062544239585" cy="481.2982364548415" r="2" stroke="none" stroke-width="0" fill="#8b4513"></circle><circle cx="596.4760069254469" cy="472.91198833675895" r="2" stroke="none" stroke-width="0" fill="#8b4513"></circle><circle cx="601.485286604234" cy="469.93054599600185" r="2" stroke="none" stroke-width="0" fill="#8b4513"></circle><circle cx="601.4852304939617" cy="471.273024609456" r="2" stroke="none" stroke-width="0" fill="#8b4513"></circle><circle cx="603.1550327398329" cy="459.20533800281845" r="2" stroke="none" stroke-width="0" fill="#8b4513"></circle><circle cx="603.1549765754485" cy="462.9805669864913" r="2" stroke="none" stroke-width="0" fill="#8b4513"></circle><circle cx="604.8247706388132" cy="462.34178347283364" r="2" stroke="none" stroke-width="0" fill="#8b4513"></circle><circle cx="604.8247145401363" cy="464.36654120972247" r="2" stroke="none" stroke-width="0" fill="#8b4513"></circle><circle cx="608.1642522267573" cy="438.69999785484583" r="2" stroke="none" stroke-width="0" fill="#8b4513"></circle><circle cx="608.1641961048895" cy="440.3445552827724" r="2" stroke="none" stroke-width="0" fill="#8b4513"></circle><circle cx="611.5037313062239" cy="380.3949511471866" r="2" stroke="none" stroke-width="0" fill="#8b4513"></circle><circle cx="613.1734756909132" cy="438.4265956574878" r="2" stroke="none" stroke-width="0" fill="#8b4513"></circle><circle cx="614.8432128245954" cy="444.68483430116953" r="2" stroke="none" stroke-width="0" fill="#8b4513"></circle><circle cx="614.8431566911322" cy="445.96043651188825" r="2" stroke="none" stroke-width="0" fill="#8b4513"></circle><circle cx="616.5129611478649" cy="433.59874881722277" r="2" stroke="none" stroke-width="0" fill="#8b4513"></circle><circle cx="616.5129050105365" cy="435.07709133213484" r="2" stroke="none" stroke-width="0" fill="#8b4513"></circle><circle cx="618.1826994874714" cy="435.0120832611479" r="2" stroke="none" stroke-width="0" fill="#8b4513"></circle><circle cx="618.1826433965248" cy="437.6777459138442" r="2" stroke="none" stroke-width="0" fill="#8b4513"></circle><circle cx="619.8524438412396" cy="427.14103457834506" r="2" stroke="none" stroke-width="0" fill="#8b4513"></circle><circle cx="619.8523877000462" cy="430.57408212777693" r="2" stroke="none" stroke-width="0" fill="#8b4513"></circle><circle cx="621.5221275586537" cy="430.3542629257217" r="2" stroke="none" stroke-width="0" fill="#8b4513"></circle><circle cx="624.861665198893" cy="418.6624864950621" r="2" stroke="none" stroke-width="0" fill="#8b4513"></circle><circle cx="624.8616091079464" cy="425.6048987342597" r="2" stroke="none" stroke-width="0" fill="#8b4513"></circle><circle cx="626.5314017141523" cy="420.14054683867397" r="2" stroke="none" stroke-width="0" fill="#8b4513"></circle><circle cx="626.531345685048" cy="426.0253628219106" r="2" stroke="none" stroke-width="0" fill="#8b4513"></circle><circle cx="628.2011441778659" cy="425.8794376449497" r="2" stroke="none" stroke-width="0" fill="#8b4513"></circle><circle cx="628.2010881410313" cy="428.65495090955073" r="2" stroke="none" stroke-width="0" fill="#8b4513"></circle><circle cx="631.5406208570791" cy="430.9019571298352" r="2" stroke="none" stroke-width="0" fill="#8b4513"></circle><circle cx="631.5405648550307" cy="431.84776009894495" r="2" stroke="none" stroke-width="0" fill="#8b4513"></circle><circle cx="633.2103561741443" cy="427.53858491395675" r="2" stroke="none" stroke-width="0" fill="#8b4513"></circle><circle cx="634.8800966820959" cy="405.8169427689298" r="2" stroke="none" stroke-width="0" fill="#8b4513"></circle><circle cx="636.549848959406" cy="423.87056613688287" r="2" stroke="none" stroke-width="0" fill="#8b4513"></circle><circle cx="636.5497929341667" cy="423.39539305707433" r="2" stroke="none" stroke-width="0" fill="#8b4513"></circle><circle cx="644.8985683086677" cy="429.00733472862737" r="2" stroke="none" stroke-width="0" fill="#8b4513"></circle><circle cx="644.8985121868" cy="452.92064586542324" r="2" stroke="none" stroke-width="0" fill="#8b4513"></circle><circle cx="648.237997983884" cy="467.4423665356196" r="2" stroke="none" stroke-width="0" fill="#8b4513"></circle><circle cx="651.5775377074351" cy="457.8422584621992" r="2" stroke="none" stroke-width="0" fill="#8b4513"></circle><circle cx="651.5774815546462" cy="442.79092140073743" r="2" stroke="none" stroke-width="0" fill="#8b4513"></circle><circle cx="653.2472424473588" cy="396.5193355300039" r="2" stroke="none" stroke-width="0" fill="#8b4513"></circle><circle cx="658.2565047098142" cy="416.0004045160001" r="2" stroke="none" stroke-width="0" fill="#8b4513"></circle><circle cx="661.5959902749898" cy="429.2045330344806" r="2" stroke="none" stroke-width="0" fill="#8b4513"></circle><circle cx="663.2657112407812" cy="426.5025382047831" r="2" stroke="none" stroke-width="0" fill="#8b4513"></circle><circle cx="663.2656809264693" cy="431.33242091560396" r="2" stroke="none" stroke-width="0" fill="#8b4513"></circle><circle cx="663.2657381189815" cy="427.1368277299044" r="2" stroke="none" stroke-width="0" fill="#8b4513"></circle><circle cx="663.2657122302577" cy="407.4647321395638" r="2" stroke="none" stroke-width="0" fill="#8b4513"></circle><circle cx="666.6052203949209" cy="502.68622108052165" r="2" stroke="none" stroke-width="0" fill="#8b4513"></circle><circle cx="678.2933864608119" cy="410.7325226600557" r="2" stroke="none" stroke-width="0" fill="#8b4513"></circle><circle cx="679.9630859132208" cy="414.1055422868589" r="2" stroke="none" stroke-width="0" fill="#8b4513"></circle><circle cx="681.6328671443127" cy="417.66994635770556" r="2" stroke="none" stroke-width="0" fill="#8b4513"></circle><circle cx="683.3026283191807" cy="434.75453601963693" r="2" stroke="none" stroke-width="0" fill="#8b4513"></circle><circle cx="684.9723529916437" cy="400.4198020511192" r="2" stroke="none" stroke-width="0" fill="#8b4513"></circle><circle cx="684.9723121564141" cy="405.75744246991775" r="2" stroke="none" stroke-width="0" fill="#8b4513"></circle><circle cx="688.311788692617" cy="403.5938040009038" r="2" stroke="none" stroke-width="0" fill="#8b4513"></circle><circle cx="691.6512775277031" cy="390.19384887899804" r="2" stroke="none" stroke-width="0" fill="#8b4513"></circle><circle cx="694.9908190678711" cy="385.62381611429845" r="2" stroke="none" stroke-width="0" fill="#8b4513"></circle><circle cx="696.6605744488905" cy="368.89014251105624" r="2" stroke="none" stroke-width="0" fill="#8b4513"></circle><circle cx="696.6605183115622" cy="369.0780536627138" r="2" stroke="none" stroke-width="0" fill="#8b4513"></circle><circle cx="700.0000524886339" cy="356.4159308749583" r="2" stroke="none" stroke-width="0" fill="#8b4513"></circle><circle cx="699.9999963551707" cy="356.39211729812513" r="2" stroke="none" stroke-width="0" fill="#8b4513"></circle><circle cx="701.6697788076476" cy="363.623045142829" r="2" stroke="none" stroke-width="0" fill="#8b4513"></circle><circle cx="701.6697226896449" cy="363.9363014301114" r="2" stroke="none" stroke-width="0" fill="#8b4513"></circle><circle cx="703.3395258244989" cy="354.1425279987626" r="2" stroke="none" stroke-width="0" fill="#8b4513"></circle><circle cx="703.3394697722038" cy="353.92236361660105" r="2" stroke="none" stroke-width="0" fill="#8b4513"></circle><circle cx="705.0091965588997" cy="361.6915237468989" r="2" stroke="none" stroke-width="0" fill="#8b4513"></circle><circle cx="708.3487281385956" cy="362.54185998109324" r="2" stroke="none" stroke-width="0" fill="#8b4513"></circle><circle cx="708.3486720785701" cy="362.6724181983347" r="2" stroke="none" stroke-width="0" fill="#8b4513"></circle><circle cx="710.0184842617224" cy="355.5732957992825" r="2" stroke="none" stroke-width="0" fill="#8b4513"></circle><circle cx="710.0184281978318" cy="355.74538056335643" r="2" stroke="none" stroke-width="0" fill="#8b4513"></circle><circle cx="713.3579688722078" cy="358.6162221516862" r="2" stroke="none" stroke-width="0" fill="#8b4513"></circle><circle cx="713.3579127735309" cy="358.69120350580636" r="2" stroke="none" stroke-width="0" fill="#8b4513"></circle><circle cx="715.0276896447422" cy="363.82213809309917" r="2" stroke="none" stroke-width="0" fill="#8b4513"></circle><circle cx="715.0276335228743" cy="364.0970395340085" r="2" stroke="none" stroke-width="0" fill="#8b4513"></circle><circle cx="716.6974582058972" cy="360.30050953577023" r="2" stroke="none" stroke-width="0" fill="#8b4513"></circle><circle cx="716.6974020878947" cy="360.76669483938576" r="2" stroke="none" stroke-width="0" fill="#8b4513"></circle><circle cx="720.0368863273263" cy="369.07381802894366" r="2" stroke="none" stroke-width="0" fill="#8b4513"></circle><circle cx="721.7066623598017" cy="374.4327678999818" r="2" stroke="none" stroke-width="0" fill="#8b4513"></circle><circle cx="721.7066062843157" cy="374.50152416416864" r="2" stroke="none" stroke-width="0" fill="#8b4513"></circle><circle cx="723.3764227307202" cy="370.3552368914469" r="2" stroke="none" stroke-width="0" fill="#8b4513"></circle><circle cx="723.3763666861552" cy="371.3626419024285" r="2" stroke="none" stroke-width="0" fill="#8b4513"></circle><circle cx="726.7159022314872" cy="363.2029322114187" r="2" stroke="none" stroke-width="0" fill="#8b4513"></circle><circle cx="726.7158461714617" cy="364.11677976646183" r="2" stroke="none" stroke-width="0" fill="#8b4513"></circle><circle cx="728.3856194712814" cy="371.95851690084316" r="2" stroke="none" stroke-width="0" fill="#8b4513"></circle><circle cx="728.3855638364216" cy="372.95528662207914" r="2" stroke="none" stroke-width="0" fill="#8b4513"></circle><circle cx="730.0553849016712" cy="374.1911852528452" r="2" stroke="none" stroke-width="0" fill="#8b4513"></circle><circle cx="730.0553288687017" cy="375.3740469150149" r="2" stroke="none" stroke-width="0" fill="#8b4513"></circle><circle cx="731.7251047504365" cy="376.46490973898966" r="2" stroke="none" stroke-width="0" fill="#8b4513"></circle><circle cx="731.725048717467" cy="377.60194186835247" r="2" stroke="none" stroke-width="0" fill="#8b4513"></circle><circle cx="733.3948545501903" cy="374.49452738917756" r="2" stroke="none" stroke-width="0" fill="#8b4513"></circle><circle cx="733.3948104179942" cy="375.89968146867596" r="2" stroke="none" stroke-width="0" fill="#8b4513"></circle><circle cx="735.0645842550688" cy="375.5152809596787" r="2" stroke="none" stroke-width="0" fill="#8b4513"></circle><circle cx="735.064528218234" cy="376.4555027066018" r="2" stroke="none" stroke-width="0" fill="#8b4513"></circle><circle cx="738.4040778597406" cy="375.0197147469122" r="2" stroke="none" stroke-width="0" fill="#8b4513"></circle><circle cx="738.4040217533334" cy="376.44475169923504" r="2" stroke="none" stroke-width="0" fill="#8b4513"></circle><circle cx="740.0738141894731" cy="380.05809051619764" r="2" stroke="none" stroke-width="0" fill="#8b4513"></circle><circle cx="741.7435672282163" cy="377.2017039174147" r="2" stroke="none" stroke-width="0" fill="#8b4513"></circle><circle cx="741.7435111140787" cy="379.18933791058225" r="2" stroke="none" stroke-width="0" fill="#8b4513"></circle><circle cx="743.4133327281786" cy="379.1024523532427" r="2" stroke="none" stroke-width="0" fill="#8b4513"></circle><circle cx="743.4132766063108" cy="381.6024263202893" r="2" stroke="none" stroke-width="0" fill="#8b4513"></circle><circle cx="746.7528109766397" cy="374.46094623255317" r="2" stroke="none" stroke-width="0" fill="#8b4513"></circle><circle cx="746.7527549359398" cy="377.26219193496365" r="2" stroke="none" stroke-width="0" fill="#8b4513"></circle><circle cx="748.4225296194804" cy="379.32061912459494" r="2" stroke="none" stroke-width="0" fill="#8b4513"></circle><circle cx="748.4224735517247" cy="382.2650956298487" r="2" stroke="none" stroke-width="0" fill="#8b4513"></circle><circle cx="750.0922898241977" cy="396.48094428013184" r="2" stroke="none" stroke-width="0" fill="#8b4513"></circle><circle cx="750.0922337950933" cy="400.0461317481784" r="2" stroke="none" stroke-width="0" fill="#8b4513"></circle><circle cx="751.7620127496164" cy="385.76236902042524" r="2" stroke="none" stroke-width="0" fill="#8b4513"></circle><circle cx="751.7619566779954" cy="389.4802868118211" r="2" stroke="none" stroke-width="0" fill="#8b4513"></circle><circle cx="753.4317768503971" cy="383.8945237473732" r="2" stroke="none" stroke-width="0" fill="#8b4513"></circle><circle cx="753.4317207594504" cy="383.454807269063" r="2" stroke="none" stroke-width="0" fill="#8b4513"></circle><circle cx="755.1014351970164" cy="388.51833697376014" r="2" stroke="none" stroke-width="0" fill="#8b4513"></circle><circle cx="758.4409626989872" cy="370.1212228960097" r="2" stroke="none" stroke-width="0" fill="#8b4513"></circle><circle cx="758.4409066930737" cy="367.0984407017251" r="2" stroke="none" stroke-width="0" fill="#8b4513"></circle><circle cx="760.1107514555114" cy="391.2733234688078" r="2" stroke="none" stroke-width="0" fill="#8b4513"></circle><circle cx="760.1106953761602" cy="386.7088315895139" r="2" stroke="none" stroke-width="0" fill="#8b4513"></circle><circle cx="761.7804616414206" cy="403.19870991474926" r="2" stroke="none" stroke-width="0" fill="#8b4513"></circle><circle cx="763.4502299242855" cy="392.7669119484973" r="2" stroke="none" stroke-width="0" fill="#8b4513"></circle><circle cx="765.119955802673" cy="378.31674244409004" r="2" stroke="none" stroke-width="0" fill="#8b4513"></circle><circle cx="765.1198996266932" cy="375.5811390443909" r="2" stroke="none" stroke-width="0" fill="#8b4513"></circle><circle cx="771.7989285989005" cy="357.8044615812346" r="2" stroke="none" stroke-width="0" fill="#8b4513"></circle><circle cx="773.4687031935429" cy="380.78743052882083" r="2" stroke="none" stroke-width="0" fill="#8b4513"></circle><circle cx="773.4686470639448" cy="371.35026293971225" r="2" stroke="none" stroke-width="0" fill="#8b4513"></circle><circle cx="775.1384216508569" cy="351.7908238852544" r="2" stroke="none" stroke-width="0" fill="#8b4513"></circle><circle cx="775.1383654594166" cy="339.47290739900023" r="2" stroke="none" stroke-width="0" fill="#8b4513"></circle><circle cx="778.4779086422701" cy="340.41281471731287" r="2" stroke="none" stroke-width="0" fill="#8b4513"></circle><circle cx="778.4778524392343" cy="340.75885208720644" r="2" stroke="none" stroke-width="0" fill="#8b4513"></circle><circle cx="780.1476811651961" cy="270.54553588373426" r="2" stroke="none" stroke-width="0" fill="#8b4513"></circle><circle cx="780.1476249969467" cy="269.5671167758512" r="2" stroke="none" stroke-width="0" fill="#8b4513"></circle><circle cx="781.8173911230621" cy="270.3879821728101" r="2" stroke="none" stroke-width="0" fill="#8b4513"></circle><circle cx="781.8173349509474" cy="269.5662168639306" r="2" stroke="none" stroke-width="0" fill="#8b4513"></circle><circle cx="786.8266394478139" cy="354.6566901432417" r="2" stroke="none" stroke-width="0" fill="#8b4513"></circle><circle cx="786.8265833143507" cy="348.16797573748204" r="2" stroke="none" stroke-width="0" fill="#8b4513"></circle><circle cx="793.5056096389355" cy="393.36179053353135" r="2" stroke="none" stroke-width="0" fill="#8b4513"></circle><circle cx="793.5055534977421" cy="387.4529581495479" r="2" stroke="none" stroke-width="0" fill="#8b4513"></circle><circle cx="796.8450949606072" cy="394.1075558117146" r="2" stroke="none" stroke-width="0" fill="#8b4513"></circle><circle cx="796.8450388310091" cy="397.83217342498057" r="2" stroke="none" stroke-width="0" fill="#8b4513"></circle><circle cx="801.8542771914239" cy="398.11814711905845" r="2" stroke="none" stroke-width="0" fill="#8b4513"></circle><circle cx="801.854221146859" cy="396.31360204030955" r="2" stroke="none" stroke-width="0" fill="#8b4513"></circle><circle cx="803.5240537070421" cy="384.05642394964514" r="2" stroke="none" stroke-width="0" fill="#8b4513"></circle><circle cx="803.5239975426578" cy="379.77586732214706" r="2" stroke="none" stroke-width="0" fill="#8b4513"></circle><circle cx="808.5332391072756" cy="417.0512804987692" r="2" stroke="none" stroke-width="0" fill="#8b4513"></circle><circle cx="810.2030062808445" cy="384.8210592749605" r="2" stroke="none" stroke-width="0" fill="#8b4513"></circle><circle cx="810.2029501937631" cy="385.51657920185204" r="2" stroke="none" stroke-width="0" fill="#8b4513"></circle><circle cx="811.8727105182996" cy="427.90552767183516" r="2" stroke="none" stroke-width="0" fill="#8b4513"></circle><circle cx="813.5424836171319" cy="376.97940533244986" r="2" stroke="none" stroke-width="0" fill="#8b4513"></circle><circle cx="813.5424275261853" cy="378.06857755969844" r="2" stroke="none" stroke-width="0" fill="#8b4513"></circle><circle cx="815.212199442284" cy="372.8464952147464" r="2" stroke="none" stroke-width="0" fill="#8b4513"></circle><circle cx="815.2121433474722" cy="373.116701153154" r="2" stroke="none" stroke-width="0" fill="#8b4513"></circle><circle cx="816.8819500305269" cy="364.34642608869683" r="2" stroke="none" stroke-width="0" fill="#8b4513"></circle><circle cx="816.8818940246134" cy="363.97451204273403" r="2" stroke="none" stroke-width="0" fill="#8b4513"></circle><circle cx="818.5516826419924" cy="398.2897763210342" r="2" stroke="none" stroke-width="0" fill="#8b4513"></circle><circle cx="820.2214227247782" cy="347.98545726377523" r="2" stroke="none" stroke-width="0" fill="#8b4513"></circle><circle cx="821.891160090369" cy="355.76434405412977" r="2" stroke="none" stroke-width="0" fill="#8b4513"></circle><circle cx="821.8911040612646" cy="355.7984440007805" r="2" stroke="none" stroke-width="0" fill="#8b4513"></circle><circle cx="825.2306503400972" cy="354.45527388807926" r="2" stroke="none" stroke-width="0" fill="#8b4513"></circle><circle cx="825.2305942298248" cy="354.3298684675953" r="2" stroke="none" stroke-width="0" fill="#8b4513"></circle><circle cx="826.9003976622947" cy="349.3437407789961" r="2" stroke="none" stroke-width="0" fill="#8b4513"></circle><circle cx="826.9003416022692" cy="349.63868266504886" r="2" stroke="none" stroke-width="0" fill="#8b4513"></circle><circle cx="828.5700764323265" cy="351.87417847208343" r="2" stroke="none" stroke-width="0" fill="#8b4513"></circle><circle cx="830.2398763165957" cy="377.7722757855594" r="2" stroke="none" stroke-width="0" fill="#8b4513"></circle><circle cx="831.9096080699996" cy="350.3952490280233" r="2" stroke="none" stroke-width="0" fill="#8b4513"></circle><circle cx="831.9095519983787" cy="350.65857549887687" r="2" stroke="none" stroke-width="0" fill="#8b4513"></circle><circle cx="833.5793612401576" cy="348.2390972401555" r="2" stroke="none" stroke-width="0" fill="#8b4513"></circle><circle cx="833.5793051569412" cy="348.49950982367744" r="2" stroke="none" stroke-width="0" fill="#8b4513"></circle><circle cx="835.2490931558975" cy="352.42227439162826" r="2" stroke="none" stroke-width="0" fill="#8b4513"></circle><circle cx="835.2490370069738" cy="352.6209968878254" r="2" stroke="none" stroke-width="0" fill="#8b4513"></circle><circle cx="836.9188371540727" cy="348.57076092756256" r="2" stroke="none" stroke-width="0" fill="#8b4513"></circle><circle cx="836.9187811211032" cy="348.7278670928871" r="2" stroke="none" stroke-width="0" fill="#8b4513"></circle><circle cx="838.5885814150774" cy="349.6192105813093" r="2" stroke="none" stroke-width="0" fill="#8b4513"></circle><circle cx="838.588525277749" cy="349.77547040729235" r="2" stroke="none" stroke-width="0" fill="#8b4513"></circle><circle cx="840.2583207905421" cy="350.9087900579446" r="2" stroke="none" stroke-width="0" fill="#8b4513"></circle><circle cx="840.2582647537075" cy="351.03383981859724" r="2" stroke="none" stroke-width="0" fill="#8b4513"></circle><circle cx="841.9280607882948" cy="355.8246336490301" r="2" stroke="none" stroke-width="0" fill="#8b4513"></circle><circle cx="841.9280047282693" cy="356.0819409624515" r="2" stroke="none" stroke-width="0" fill="#8b4513"></circle><circle cx="843.5978030974027" cy="360.1353982347562" r="2" stroke="none" stroke-width="0" fill="#8b4513"></circle><circle cx="843.5977469948606" cy="360.3693080906979" r="2" stroke="none" stroke-width="0" fill="#8b4513"></circle><circle cx="845.2675333897828" cy="357.7772424497779" r="2" stroke="none" stroke-width="0" fill="#8b4513"></circle><circle cx="845.2674773993299" cy="357.94900789461053" r="2" stroke="none" stroke-width="0" fill="#8b4513"></circle><circle cx="846.937272803899" cy="355.6981515698957" r="2" stroke="none" stroke-width="0" fill="#8b4513"></circle><circle cx="846.9372167863901" cy="355.88901393627907" r="2" stroke="none" stroke-width="0" fill="#8b4513"></circle><circle cx="848.6070254329371" cy="359.4287653236571" r="2" stroke="none" stroke-width="0" fill="#8b4513"></circle><circle cx="848.6069694154281" cy="359.77933314292324" r="2" stroke="none" stroke-width="0" fill="#8b4513"></circle><circle cx="850.276766141876" cy="356.02183987536296" r="2" stroke="none" stroke-width="0" fill="#8b4513"></circle><circle cx="850.2767100663899" cy="356.41520146616756" r="2" stroke="none" stroke-width="0" fill="#8b4513"></circle><circle cx="851.9465035383878" cy="357.67989195203444" r="2" stroke="none" stroke-width="0" fill="#8b4513"></circle><circle cx="851.9464475402046" cy="357.8171036103427" r="2" stroke="none" stroke-width="0" fill="#8b4513"></circle><circle cx="853.6162535623199" cy="355.0158970681698" r="2" stroke="none" stroke-width="0" fill="#8b4513"></circle><circle cx="853.6161974443173" cy="352.6635818960523" r="2" stroke="none" stroke-width="0" fill="#8b4513"></circle><circle cx="855.2859935252864" cy="364.0947868667785" r="2" stroke="none" stroke-width="0" fill="#8b4513"></circle><circle cx="855.2859374768562" cy="363.52464552843685" r="2" stroke="none" stroke-width="0" fill="#8b4513"></circle><circle cx="856.9557277910328" cy="362.8985242050928" r="2" stroke="none" stroke-width="0" fill="#8b4513"></circle><circle cx="856.955671777389" cy="364.4750625308721" r="2" stroke="none" stroke-width="0" fill="#8b4513"></circle><circle cx="858.6254819004205" cy="364.2724196199614" r="2" stroke="none" stroke-width="0" fill="#8b4513"></circle><circle cx="858.6254257669573" cy="365.9566539043086" r="2" stroke="none" stroke-width="0" fill="#8b4513"></circle><circle cx="860.2952143495501" cy="363.04708896533344" r="2" stroke="none" stroke-width="0" fill="#8b4513"></circle><circle cx="860.29515830112" cy="363.60014177563096" r="2" stroke="none" stroke-width="0" fill="#8b4513"></circle><circle cx="861.9649555339014" cy="367.6011754916913" r="2" stroke="none" stroke-width="0" fill="#8b4513"></circle><circle cx="861.9649172999127" cy="369.35823029382914" r="2" stroke="none" stroke-width="0" fill="#8b4513"></circle><circle cx="863.6346301952868" cy="352.093326570229" r="2" stroke="none" stroke-width="0" fill="#8b4513"></circle><circle cx="865.3044646223337" cy="367.18746582083185" r="2" stroke="none" stroke-width="0" fill="#8b4513"></circle><circle cx="865.3044084811403" cy="370.2346627201447" r="2" stroke="none" stroke-width="0" fill="#8b4513"></circle><circle cx="866.9741830178054" cy="369.41749604311474" r="2" stroke="none" stroke-width="0" fill="#8b4513"></circle><circle cx="866.974126903668" cy="370.8338937431771" r="2" stroke="none" stroke-width="0" fill="#8b4513"></circle><circle cx="868.6439402540933" cy="367.6127218594055" r="2" stroke="none" stroke-width="0" fill="#8b4513"></circle><circle cx="868.6438841631467" cy="371.9060004918292" r="2" stroke="none" stroke-width="0" fill="#8b4513"></circle><circle cx="870.3136639100239" cy="362.2895759483577" r="2" stroke="none" stroke-width="0" fill="#8b4513"></circle><circle cx="870.313607865459" cy="362.6228195552525" r="2" stroke="none" stroke-width="0" fill="#8b4513"></circle><circle cx="871.9834271218219" cy="356.90345081714895" r="2" stroke="none" stroke-width="0" fill="#8b4513"></circle><circle cx="873.6531563706136" cy="366.37590595976314" r="2" stroke="none" stroke-width="0" fill="#8b4513"></circle><circle cx="873.65310022942" cy="365.18832997262416" r="2" stroke="none" stroke-width="0" fill="#8b4513"></circle><circle cx="875.3228993909077" cy="422.45021485755416" r="2" stroke="none" stroke-width="0" fill="#8b4513"></circle><circle cx="878.6623884926885" cy="368.3855465699293" r="2" stroke="none" stroke-width="0" fill="#8b4513"></circle><circle cx="878.6623323824161" cy="367.2592593568915" r="2" stroke="none" stroke-width="0" fill="#8b4513"></circle><circle cx="882.0018733157567" cy="343.62025336523334" r="2" stroke="none" stroke-width="0" fill="#8b4513"></circle><circle cx="882.0018171475073" cy="341.705790626609" r="2" stroke="none" stroke-width="0" fill="#8b4513"></circle><circle cx="883.6716041879082" cy="351.1487801284288" r="2" stroke="none" stroke-width="0" fill="#8b4513"></circle><circle cx="883.6715480351193" cy="349.8128103727882" r="2" stroke="none" stroke-width="0" fill="#8b4513"></circle><circle cx="885.3413592751768" cy="362.1616330552034" r="2" stroke="none" stroke-width="0" fill="#8b4513"></circle><circle cx="885.341303122388" cy="364.06528459043136" r="2" stroke="none" stroke-width="0" fill="#8b4513"></circle><circle cx="893.690067423256" cy="450.71424867276124" r="2" stroke="none" stroke-width="0" fill="#8b4513"></circle><circle cx="895.3598153058991" cy="329.93938750817125" r="2" stroke="none" stroke-width="0" fill="#8b4513"></circle><circle cx="897.0295533594852" cy="359.9268676527822" r="2" stroke="none" stroke-width="0" fill="#8b4513"></circle><circle cx="897.0294972221569" cy="357.2775118356222" r="2" stroke="none" stroke-width="0" fill="#8b4513"></circle><circle cx="910.3874332097331" cy="411.7435858152288" r="2" stroke="none" stroke-width="0" fill="#8b4513"></circle><circle cx="912.0572303458861" cy="377.6137571786952" r="2" stroke="none" stroke-width="0" fill="#8b4513"></circle><circle cx="912.0571742588045" cy="375.2246346127515" r="2" stroke="none" stroke-width="0" fill="#8b4513"></circle><circle cx="913.7269710161735" cy="368.17261099539996" r="2" stroke="none" stroke-width="0" fill="#8b4513"></circle><circle cx="913.7269149097663" cy="367.4409380275177" r="2" stroke="none" stroke-width="0" fill="#8b4513"></circle><circle cx="915.3967155129519" cy="361.5209785460472" r="2" stroke="none" stroke-width="0" fill="#8b4513"></circle><circle cx="920.4059413734961" cy="383.7455465014598" r="2" stroke="none" stroke-width="0" fill="#8b4513"></circle><circle cx="920.4058852323027" cy="380.1230710850663" r="2" stroke="none" stroke-width="0" fill="#8b4513"></circle><circle cx="922.0756784298756" cy="385.0464265269209" r="2" stroke="none" stroke-width="0" fill="#8b4513"></circle><circle cx="922.0756223118728" cy="383.80167072986177" r="2" stroke="none" stroke-width="0" fill="#8b4513"></circle><circle cx="927.0848996522489" cy="390.84185948983026" r="2" stroke="none" stroke-width="0" fill="#8b4513"></circle><circle cx="927.0848434955948" cy="389.7218518416943" r="2" stroke="none" stroke-width="0" fill="#8b4513"></circle><circle cx="932.0941170635919" cy="387.90341970112456" r="2" stroke="none" stroke-width="0" fill="#8b4513"></circle><circle cx="932.0940609455891" cy="388.95440926774864" r="2" stroke="none" stroke-width="0" fill="#8b4513"></circle><circle cx="933.7638548814042" cy="373.25372784500144" r="2" stroke="none" stroke-width="0" fill="#8b4513"></circle><circle cx="937.1033288820737" cy="377.7918468909029" r="2" stroke="none" stroke-width="0" fill="#8b4513"></circle><circle cx="937.1032728181831" cy="378.29649015154894" r="2" stroke="none" stroke-width="0" fill="#8b4513"></circle><circle cx="943.7822964912801" cy="358.7834134905707" r="2" stroke="none" stroke-width="0" fill="#8b4513"></circle><circle cx="943.7822403848729" cy="358.90888128490246" r="2" stroke="none" stroke-width="0" fill="#8b4513"></circle><circle cx="945.4520488768143" cy="355.41803301860807" r="2" stroke="none" stroke-width="0" fill="#8b4513"></circle><circle cx="948.7915143007327" cy="346.85518504752696" r="2" stroke="none" stroke-width="0" fill="#8b4513"></circle><circle cx="948.7914582523027" cy="346.9777592337714" r="2" stroke="none" stroke-width="0" fill="#8b4513"></circle><circle cx="950.4612317492446" cy="348.82394253064797" r="2" stroke="none" stroke-width="0" fill="#8b4513"></circle><circle cx="950.4611903187831" cy="348.6540034191622" r="2" stroke="none" stroke-width="0" fill="#8b4513"></circle><circle cx="952.1309951774906" cy="342.47565826212616" r="2" stroke="none" stroke-width="0" fill="#8b4513"></circle><circle cx="952.1309391213302" cy="342.24837555668154" r="2" stroke="none" stroke-width="0" fill="#8b4513"></circle><circle cx="953.8007220298939" cy="338.28796756718384" r="2" stroke="none" stroke-width="0" fill="#8b4513"></circle><circle cx="953.8006659891942" cy="338.46468975544553" r="2" stroke="none" stroke-width="0" fill="#8b4513"></circle><circle cx="955.4704763170781" cy="339.29831702180167" r="2" stroke="none" stroke-width="0" fill="#8b4513"></circle><circle cx="955.4704202841086" cy="339.4546003778319" r="2" stroke="none" stroke-width="0" fill="#8b4513"></circle><circle cx="957.1402156461612" cy="337.0647263899613" r="2" stroke="none" stroke-width="0" fill="#8b4513"></circle><circle cx="957.1401596054613" cy="337.2170537731877" r="2" stroke="none" stroke-width="0" fill="#8b4513"></circle><circle cx="958.8099750198728" cy="338.2527196558083" r="2" stroke="none" stroke-width="0" fill="#8b4513"></circle><circle cx="958.8099188632187" cy="338.1991490404448" r="2" stroke="none" stroke-width="0" fill="#8b4513"></circle><circle cx="960.4797023940704" cy="334.4141387893546" r="2" stroke="none" stroke-width="0" fill="#8b4513"></circle><circle cx="960.4796463147192" cy="334.573487369508" r="2" stroke="none" stroke-width="0" fill="#8b4513"></circle><circle cx="962.149461361942" cy="333.9701936397396" r="2" stroke="none" stroke-width="0" fill="#8b4513"></circle><circle cx="962.1494051743668" cy="334.1496427118188" r="2" stroke="none" stroke-width="0" fill="#8b4513"></circle><circle cx="963.8191851956691" cy="332.8521588398854" r="2" stroke="none" stroke-width="0" fill="#8b4513"></circle><circle cx="963.8191291047225" cy="333.1496502652169" r="2" stroke="none" stroke-width="0" fill="#8b4513"></circle><circle cx="965.4889351809499" cy="333.99268427744903" r="2" stroke="none" stroke-width="0" fill="#8b4513"></circle><circle cx="965.4888791093289" cy="334.2205795069201" r="2" stroke="none" stroke-width="0" fill="#8b4513"></circle><circle cx="967.1586569932075" cy="332.36254403354474" r="2" stroke="none" stroke-width="0" fill="#8b4513"></circle><circle cx="967.1586009988894" cy="332.5160042544514" r="2" stroke="none" stroke-width="0" fill="#8b4513"></circle><circle cx="968.8284195633918" cy="333.0018816206102" r="2" stroke="none" stroke-width="0" fill="#8b4513"></circle><circle cx="968.8283634608498" cy="333.51337588303954" r="2" stroke="none" stroke-width="0" fill="#8b4513"></circle><circle cx="970.4981382255584" cy="334.0421241134932" r="2" stroke="none" stroke-width="0" fill="#8b4513"></circle><circle cx="970.4980822080495" cy="334.59818458608424" r="2" stroke="none" stroke-width="0" fill="#8b4513"></circle><circle cx="972.1678983181865" cy="338.52443864616646" r="2" stroke="none" stroke-width="0" fill="#8b4513"></circle><circle cx="972.1678422658913" cy="339.195575679424" r="2" stroke="none" stroke-width="0" fill="#8b4513"></circle><circle cx="973.8376306165756" cy="331.2631549509236" r="2" stroke="none" stroke-width="0" fill="#8b4513"></circle><circle cx="973.8375745874712" cy="331.73859052823116" r="2" stroke="none" stroke-width="0" fill="#8b4513"></circle><circle cx="975.5073869213641" cy="340.0775881336927" r="2" stroke="none" stroke-width="0" fill="#8b4513"></circle><circle cx="975.5073308767991" cy="340.28193833684213" r="2" stroke="none" stroke-width="0" fill="#8b4513"></circle><circle cx="977.1771192699998" cy="331.67730151867056" r="2" stroke="none" stroke-width="0" fill="#8b4513"></circle><circle cx="977.177063225435" cy="332.18653364920294" r="2" stroke="none" stroke-width="0" fill="#8b4513"></circle><circle cx="978.8468759806284" cy="335.9911721500911" r="2" stroke="none" stroke-width="0" fill="#8b4513"></circle><circle cx="978.8468198742212" cy="337.0924487513841" r="2" stroke="none" stroke-width="0" fill="#8b4513"></circle><circle cx="982.1863501088476" cy="337.20840385275903" r="2" stroke="none" stroke-width="0" fill="#8b4513"></circle><circle cx="982.1862940565524" cy="338.1808331275387" r="2" stroke="none" stroke-width="0" fill="#8b4513"></circle><circle cx="983.8560889741135" cy="335.7742866591444" r="2" stroke="none" stroke-width="0" fill="#8b4513"></circle><circle cx="983.856041599063" cy="336.6604958120937" r="2" stroke="none" stroke-width="0" fill="#8b4513"></circle><circle cx="985.5258171136093" cy="339.3312762427087" r="2" stroke="none" stroke-width="0" fill="#8b4513"></circle><circle cx="985.5257611308866" cy="340.08733801521134" r="2" stroke="none" stroke-width="0" fill="#8b4513"></circle><circle cx="987.1955788141366" cy="336.37865103614325" r="2" stroke="none" stroke-width="0" fill="#8b4513"></circle><circle cx="987.1955226729431" cy="337.95075446860915" r="2" stroke="none" stroke-width="0" fill="#8b4513"></circle><circle cx="990.5350107659218" cy="356.29837467504774" r="2" stroke="none" stroke-width="0" fill="#8b4513"></circle><circle cx="992.2048039828204" cy="339.17847053615117" r="2" stroke="none" stroke-width="0" fill="#8b4513"></circle><circle cx="992.2047478918737" cy="341.4242667050055" r="2" stroke="none" stroke-width="0" fill="#8b4513"></circle><circle cx="995.5442828806252" cy="329.9044455317767" r="2" stroke="none" stroke-width="0" fill="#8b4513"></circle><circle cx="995.5442268167346" cy="331.1957182517623" r="2" stroke="none" stroke-width="0" fill="#8b4513"></circle><circle cx="998.8837741584814" cy="335.63796917299635" r="2" stroke="none" stroke-width="0" fill="#8b4513"></circle><circle cx="998.8837180095576" cy="334.90409019056784" r="2" stroke="none" stroke-width="0" fill="#8b4513"></circle><circle cx="1002.2232494462432" cy="325.2497283849262" r="2" stroke="none" stroke-width="0" fill="#8b4513"></circle><circle cx="1002.2231933243755" cy="324.7588904716616" r="2" stroke="none" stroke-width="0" fill="#8b4513"></circle><circle cx="1007.2324897894762" cy="314.8011486905074" r="2" stroke="none" stroke-width="0" fill="#8b4513"></circle><circle cx="1007.2324336521478" cy="321.29511411002403" r="2" stroke="none" stroke-width="0" fill="#8b4513"></circle><circle cx="1008.902211717688" cy="340.1687611244829" r="2" stroke="none" stroke-width="0" fill="#8b4513"></circle><circle cx="1013.9114580093751" cy="420.8684489097599" r="2" stroke="none" stroke-width="0" fill="#8b4513"></circle><circle cx="1018.920679166041" cy="306.36311502670185" r="2" stroke="none" stroke-width="0" fill="#8b4513"></circle><circle cx="1018.9206230287127" cy="306.4865778952477" r="2" stroke="none" stroke-width="0" fill="#8b4513"></circle><circle cx="1023.9299057918835" cy="317.1684104028849" r="2" stroke="none" stroke-width="0" fill="#8b4513"></circle><circle cx="1023.9298497241277" cy="312.82245869861265" r="2" stroke="none" stroke-width="0" fill="#8b4513"></circle><circle cx="1027.269386800056" cy="320.96591473744945" r="2" stroke="none" stroke-width="0" fill="#8b4513"></circle><circle cx="1027.2693307052446" cy="320.3424812991991" r="2" stroke="none" stroke-width="0" fill="#8b4513"></circle><circle cx="1028.9391296000372" cy="318.1698829729748" r="2" stroke="none" stroke-width="0" fill="#8b4513"></circle><circle cx="1028.9390734743042" cy="315.1005330142235" r="2" stroke="none" stroke-width="0" fill="#8b4513"></circle><circle cx="1030.6088647818224" cy="352.6985355622635" r="2" stroke="none" stroke-width="0" fill="#8b4513"></circle><circle cx="1032.2786102294258" cy="374.48875876641216" r="2" stroke="none" stroke-width="0" fill="#8b4513"></circle><circle cx="1038.9575800958755" cy="334.1750631286824" r="2" stroke="none" stroke-width="0" fill="#8b4513"></circle><circle cx="1045.6365431055624" cy="356.28218233045436" r="2" stroke="none" stroke-width="0" fill="#8b4513"></circle><circle cx="1045.6364869605038" cy="354.20336887941994" r="2" stroke="none" stroke-width="0" fill="#8b4513"></circle><circle cx="1047.3062708933303" cy="382.29483048300773" r="2" stroke="none" stroke-width="0" fill="#8b4513"></circle><circle cx="1048.9760137590188" cy="361.1907319847088" r="2" stroke="none" stroke-width="0" fill="#8b4513"></circle><circle cx="1048.975957695128" cy="360.6730692187236" r="2" stroke="none" stroke-width="0" fill="#8b4513"></circle><circle cx="1052.3154928075642" cy="345.591233628764" r="2" stroke="none" stroke-width="0" fill="#8b4513"></circle><circle cx="1052.315436701157" cy="346.5401724786707" r="2" stroke="none" stroke-width="0" fill="#8b4513"></circle><circle cx="1055.65498543049" cy="346.77842116941446" r="2" stroke="none" stroke-width="0" fill="#8b4513"></circle><circle cx="1058.9944625310036" cy="338.62529271895403" r="2" stroke="none" stroke-width="0" fill="#8b4513"></circle><circle cx="1060.6642060924173" cy="339.25970910876123" r="2" stroke="none" stroke-width="0" fill="#8b4513"></circle><circle cx="1060.6641499705497" cy="339.77797982561964" r="2" stroke="none" stroke-width="0" fill="#8b4513"></circle><circle cx="1062.333950484837" cy="329.9304088470982" r="2" stroke="none" stroke-width="0" fill="#8b4513"></circle><circle cx="1062.3338943320482" cy="329.7762268809783" r="2" stroke="none" stroke-width="0" fill="#8b4513"></circle><circle cx="1064.0036916382674" cy="333.56069649436137" r="2" stroke="none" stroke-width="0" fill="#8b4513"></circle><circle cx="1064.003635477748" cy="333.90404345425577" r="2" stroke="none" stroke-width="0" fill="#8b4513"></circle><circle cx="1069.0128970328824" cy="330.9464397714564" r="2" stroke="none" stroke-width="0" fill="#8b4513"></circle><circle cx="1069.0128409921826" cy="330.9702275293954" r="2" stroke="none" stroke-width="0" fill="#8b4513"></circle><circle cx="1070.6826542382491" cy="328.0494515948736" r="2" stroke="none" stroke-width="0" fill="#8b4513"></circle><circle cx="1072.352400234703" cy="330.5448700861492" r="2" stroke="none" stroke-width="0" fill="#8b4513"></circle><circle cx="1072.3523440587232" cy="330.55288102280525" r="2" stroke="none" stroke-width="0" fill="#8b4513"></circle><circle cx="1075.691882607271" cy="331.41482123286585" r="2" stroke="none" stroke-width="0" fill="#8b4513"></circle><circle cx="1075.6918264738079" cy="331.39229170118625" r="2" stroke="none" stroke-width="0" fill="#8b4513"></circle><circle cx="1077.3616259599671" cy="328.39551939008226" r="2" stroke="none" stroke-width="0" fill="#8b4513"></circle><circle cx="1077.3615698419644" cy="328.37663405338276" r="2" stroke="none" stroke-width="0" fill="#8b4513"></circle><circle cx="1079.0313679366727" cy="329.0751994702698" r="2" stroke="none" stroke-width="0" fill="#8b4513"></circle><circle cx="1079.0313117645583" cy="328.85747237010776" r="2" stroke="none" stroke-width="0" fill="#8b4513"></circle><circle cx="1080.7010995702572" cy="327.8419460772776" r="2" stroke="none" stroke-width="0" fill="#8b4513"></circle><circle cx="1080.7010435334228" cy="327.8401112821184" r="2" stroke="none" stroke-width="0" fill="#8b4513"></circle><circle cx="1082.3708517200178" cy="330.56386440633725" r="2" stroke="none" stroke-width="0" fill="#8b4513"></circle><circle cx="1082.3707955942848" cy="330.75452555546184" r="2" stroke="none" stroke-width="0" fill="#8b4513"></circle><circle cx="1084.0405913853683" cy="332.4509454270075" r="2" stroke="none" stroke-width="0" fill="#8b4513"></circle><circle cx="1084.0405352866912" cy="332.58564312519167" r="2" stroke="none" stroke-width="0" fill="#8b4513"></circle><circle cx="1085.7103287007121" cy="333.362991361314" r="2" stroke="none" stroke-width="0" fill="#8b4513"></circle><circle cx="1085.7102726213607" cy="333.5137180604157" r="2" stroke="none" stroke-width="0" fill="#8b4513"></circle><circle cx="1089.0498099833098" cy="339.93453857511554" r="2" stroke="none" stroke-width="0" fill="#8b4513"></circle><circle cx="1089.0497539194193" cy="340.12285723112524" r="2" stroke="none" stroke-width="0" fill="#8b4513"></circle><circle cx="1090.7195480330306" cy="335.22392280109165" r="2" stroke="none" stroke-width="0" fill="#8b4513"></circle><circle cx="1090.719491942084" cy="335.18511621036106" r="2" stroke="none" stroke-width="0" fill="#8b4513"></circle><circle cx="1092.389300283285" cy="337.1283468702862" r="2" stroke="none" stroke-width="0" fill="#8b4513"></circle><circle cx="1092.389244180743" cy="337.56776602429665" r="2" stroke="none" stroke-width="0" fill="#8b4513"></circle><circle cx="1094.0591445316586" cy="332.3844871685196" r="2" stroke="none" stroke-width="0" fill="#8b4513"></circle><circle cx="1094.0590883672744" cy="332.6992896215367" r="2" stroke="none" stroke-width="0" fill="#8b4513"></circle><circle cx="1095.7287879433677" cy="336.883963461872" r="2" stroke="none" stroke-width="0" fill="#8b4513"></circle><circle cx="1095.7287318214999" cy="337.39040760581616" r="2" stroke="none" stroke-width="0" fill="#8b4513"></circle><circle cx="1097.398615571629" cy="331.32456629354624" r="2" stroke="none" stroke-width="0" fill="#8b4513"></circle><circle cx="1097.3985671336645" cy="331.8008922441618" r="2" stroke="none" stroke-width="0" fill="#8b4513"></circle><circle cx="1099.0682746062437" cy="334.63843309281344" r="2" stroke="none" stroke-width="0" fill="#8b4513"></circle><circle cx="1099.068218461185" cy="336.20887112315046" r="2" stroke="none" stroke-width="0" fill="#8b4513"></circle><circle cx="1100.7380840644705" cy="332.4332128831961" r="2" stroke="none" stroke-width="0" fill="#8b4513"></circle><circle cx="1100.738036496163" cy="333.1968850455173" r="2" stroke="none" stroke-width="0" fill="#8b4513"></circle><circle cx="1102.4077618720821" cy="339.78828866375704" r="2" stroke="none" stroke-width="0" fill="#8b4513"></circle><circle cx="1102.4077057270233" cy="340.77527529682465" r="2" stroke="none" stroke-width="0" fill="#8b4513"></circle><circle cx="1104.0775788325504" cy="333.9358321023939" r="2" stroke="none" stroke-width="0" fill="#8b4513"></circle><circle cx="1104.0775227145477" cy="335.19025355190666" r="2" stroke="none" stroke-width="0" fill="#8b4513"></circle><circle cx="1105.7472394866595" cy="337.4449863426977" r="2" stroke="none" stroke-width="0" fill="#8b4513"></circle><circle cx="1105.747183368657" cy="338.51415482556666" r="2" stroke="none" stroke-width="0" fill="#8b4513"></circle><circle cx="1107.4170608649856" cy="333.1284686166314" r="2" stroke="none" stroke-width="0" fill="#8b4513"></circle><circle cx="1107.4170047817693" cy="333.9586330913593" r="2" stroke="none" stroke-width="0" fill="#8b4513"></circle><circle cx="1109.0867161542774" cy="341.7695179675353" r="2" stroke="none" stroke-width="0" fill="#8b4513"></circle><circle cx="1109.0866600787913" cy="344.09559936047174" r="2" stroke="none" stroke-width="0" fill="#8b4513"></circle><circle cx="1110.7565405203586" cy="336.59398337571287" r="2" stroke="none" stroke-width="0" fill="#8b4513"></circle><circle cx="1110.756487142742" cy="337.4545933882755" r="2" stroke="none" stroke-width="0" fill="#8b4513"></circle><circle cx="1111.4243946236352" cy="340.41259434869403" r="2" stroke="none" stroke-width="0" fill="#8b4513"></circle><circle cx="1111.4243385945306" cy="342.65476813140003" r="2" stroke="none" stroke-width="0" fill="#8b4513"></circle><circle cx="1112.426148956394" cy="340.14475735258384" r="2" stroke="none" stroke-width="0" fill="#8b4513"></circle><circle cx="1117.4355069159103" cy="331.6951537833543" r="2" stroke="none" stroke-width="0" fill="#8b4513"></circle><circle cx="1117.4354507708517" cy="332.6685781408394" r="2" stroke="none" stroke-width="0" fill="#8b4513"></circle><circle cx="1119.1051696919828" cy="327.2334620352297" r="2" stroke="none" stroke-width="0" fill="#8b4513"></circle><circle cx="1119.1051135469243" cy="327.7359678054387" r="2" stroke="none" stroke-width="0" fill="#8b4513"></circle><circle cx="1121.442848478282" cy="332.0522908594626" r="2" stroke="none" stroke-width="0" fill="#8b4513"></circle><circle cx="1121.4427922829766" cy="332.1788286691283" r="2" stroke="none" stroke-width="0" fill="#8b4513"></circle><circle cx="1124.1144694540499" cy="327.70221785110164" r="2" stroke="none" stroke-width="0" fill="#8b4513"></circle><circle cx="1124.1144132935306" cy="329.08857850445406" r="2" stroke="none" stroke-width="0" fill="#8b4513"></circle><circle cx="1125.7841333355532" cy="323.34734056029805" r="2" stroke="none" stroke-width="0" fill="#8b4513"></circle><circle cx="1125.784077205955" cy="323.8124470792227" r="2" stroke="none" stroke-width="0" fill="#8b4513"></circle><circle cx="1129.123612256549" cy="323.1827691950276" r="2" stroke="none" stroke-width="0" fill="#8b4513"></circle><circle cx="1129.123556130816" cy="331.0782699684098" r="2" stroke="none" stroke-width="0" fill="#8b4513"></circle><circle cx="1132.4630961403877" cy="352.25649577786265" r="2" stroke="none" stroke-width="0" fill="#8b4513"></circle><circle cx="1134.1329099971467" cy="299.05904216441786" r="2" stroke="none" stroke-width="0" fill="#8b4513"></circle><circle cx="1134.1328538173016" cy="304.5972610952133" r="2" stroke="none" stroke-width="0" fill="#8b4513"></circle><circle cx="1135.8025781844185" cy="373.41852534012526" r="2" stroke="none" stroke-width="0" fill="#8b4513"></circle><circle cx="1135.8025220896066" cy="371.19799615320966" r="2" stroke="none" stroke-width="0" fill="#8b4513"></circle><circle cx="1137.4723953613347" cy="356.5144335830746" r="2" stroke="none" stroke-width="0" fill="#8b4513"></circle><circle cx="1137.4723392201413" cy="353.6191293247101" r="2" stroke="none" stroke-width="0" fill="#8b4513"></circle><circle cx="1139.1420506042446" cy="385.3168007514127" r="2" stroke="none" stroke-width="0" fill="#8b4513"></circle><circle cx="1141.4797449206862" cy="285.29968484457936" r="2" stroke="none" stroke-width="0" fill="#8b4513"></circle><circle cx="1141.4796888993121" cy="280.0511141104429" r="2" stroke="none" stroke-width="0" fill="#8b4513"></circle><circle cx="1148.1587344413851" cy="349.6071775269302" r="2" stroke="none" stroke-width="0" fill="#8b4513"></circle><circle cx="1148.158678257675" cy="340.71420403757566" r="2" stroke="none" stroke-width="0" fill="#8b4513"></circle><circle cx="1149.160520723411" cy="325.6852306433115" r="2" stroke="none" stroke-width="0" fill="#8b4513"></circle><circle cx="1149.1604676627362" cy="319.64880500537726" r="2" stroke="none" stroke-width="0" fill="#8b4513"></circle><circle cx="1150.8303231393484" cy="322.64292638848576" r="2" stroke="none" stroke-width="0" fill="#8b4513"></circle><circle cx="1150.8302822152207" cy="317.50585756765383" r="2" stroke="none" stroke-width="0" fill="#8b4513"></circle><circle cx="1152.5" cy="334.72889171012696" r="2" stroke="none" stroke-width="0" fill="#8b4513"></circle></g><g><g><text text-anchor="middle" x="353.19639351683156" y="644.6" font-family="Arial" font-size="16" stroke="none" stroke-width="0" fill="#444444">2019-01</text></g><g><text text-anchor="middle" x="475.08752452200395" y="644.6" font-family="Arial" font-size="16" stroke="none" stroke-width="0" fill="#444444">2020-01</text></g><g><text text-anchor="middle" x="597.3126038313001" y="644.6" font-family="Arial" font-size="16" stroke="none" stroke-width="0" fill="#444444">2021-01</text></g><g><text text-anchor="middle" x="719.2037348364724" y="644.6" font-family="Arial" font-size="16" stroke="none" stroke-width="0" fill="#444444">2022-01</text></g><g><text text-anchor="middle" x="841.0948658416448" y="644.6" font-family="Arial" font-size="16" stroke="none" stroke-width="0" fill="#444444">2023-01</text></g><g><text text-anchor="middle" x="962.9859968468172" y="644.6" font-family="Arial" font-size="16" stroke="none" stroke-width="0" fill="#444444">2024-01</text></g><g><text text-anchor="middle" x="1085.2110761561134" y="644.6" font-family="Arial" font-size="16" stroke="none" stroke-width="0" fill="#444444">2025-01</text></g><g><text text-anchor="middle" x="261.3606098827976" y="644.6" font-family="Arial" font-size="16" stroke="none" stroke-width="0" fill="#444444">2018-04</text></g><g><text text-anchor="end" x="231" y="594.5667" font-family="Arial" font-size="16" stroke="none" stroke-width="0" fill="#444444">-0.4</text></g><g><text text-anchor="end" x="231" y="531.5" font-family="Arial" font-size="16" stroke="none" stroke-width="0" fill="#444444">-0.2</text></g><g><text text-anchor="end" x="231" y="468.43330000000003" font-family="Arial" font-size="16" stroke="none" stroke-width="0" fill="#444444">0.0</text></g><g><text text-anchor="end" x="231" y="405.36670000000004" font-family="Arial" font-size="16" stroke="none" stroke-width="0" fill="#444444">0.2</text></g><g><text text-anchor="end" x="231" y="342.3" font-family="Arial" font-size="16" stroke="none" stroke-width="0" fill="#444444">0.4</text></g><g><text text-anchor="end" x="231" y="279.23330000000004" font-family="Arial" font-size="16" stroke="none" stroke-width="0" fill="#444444">0.6</text></g><g><text text-anchor="end" x="231" y="216.1667" font-family="Arial" font-size="16" stroke="none" stroke-width="0" fill="#444444">0.8</text></g><g><text text-anchor="end" x="231" y="153.1" font-family="Arial" font-size="16" stroke="none" stroke-width="0" fill="#444444">1.0</text></g></g></g><g><g><text text-anchor="middle" x="700" y="712.6" font-family="Arial" font-size="16" font-style="italic" stroke="none" stroke-width="0" fill="#222222">Fecha</text><rect x="247" y="699" width="906" height="16" stroke="none" stroke-width="0" fill-opacity="0" fill="#ffffff"></rect></g><g><text text-anchor="middle" x="107.1" y="384" font-family="Arial" font-size="16" font-style="italic" transform="rotate(-90 107.1 384)" stroke="none" stroke-width="0" fill="#222222">NBR Promedio</text><path d="M93.49999999999999,621L93.50000000000001,147L109.50000000000001,147L109.49999999999999,621Z" stroke="none" stroke-width="0" fill-opacity="0" fill="#ffffff"></path></g></g><g></g></svg>