<svg width="1400" height="767" aria-label="A chart." style="overflow: hidden;"><defs id="_ABSTRACT_RENDERER_ID_30"><clipPath id="_ABSTRACT_RENDERER_ID_31"><rect x="247" y="147" width="906" height="474"></rect></clipPath></defs><rect x="0" y="0" width="1400" height="767" stroke="none" stroke-width="0" fill="#ffffff"></rect><g><text text-anchor="start" x="247" y="118.6" font-family="Arial" font-size="16" font-weight="bold" stroke="none" stroke-width="0" fill="#000000">Concentración de NO2 en Santiago de Chile (Media Mensual)</text><rect x="247" y="105" width="906" height="16" stroke="none" stroke-width="0" fill-opacity="0" fill="#ffffff"></rect></g><g><rect x="1169" y="147" width="215" height="16" stroke="none" stroke-width="0" fill-opacity="0" fill="#ffffff"></rect><g column-id="0"><rect x="1169" y="147" width="215" height="16" stroke="none" stroke-width="0" fill-opacity="0" fill="#ffffff"></rect><g><text text-anchor="start" x="1207" y="160.6" font-family="Arial" font-size="16" stroke="none" stroke-width="0" fill="#222222">0</text></g><path d="M1169,155L1201,155" stroke="#ef8a62" stroke-width="2" fill-opacity="1" fill="none"></path></g></g><g><rect x="247" y="147" width="906" height="474" stroke="none" stroke-width="0" fill-opacity="0" fill="#ffffff"></rect><g clip-path="url(https://code.earthengine.google.com/#_ABSTRACT_RENDERER_ID_31)"><g><rect x="247" y="147" width="1" height="474" stroke="none" stroke-width="0" fill="#ebebeb"></rect><rect x="247" y="147" width="1" height="474" stroke="none" stroke-width="0" fill="#cccccc"></rect><rect x="274" y="147" width="1" height="474" stroke="none" stroke-width="0" fill="#ebebeb"></rect><rect x="299" y="147" width="1" height="474" stroke="none" stroke-width="0" fill="#ebebeb"></rect><rect x="326" y="147" width="1" height="474" stroke="none" stroke-width="0" fill="#ebebeb"></rect><rect x="352" y="147" width="1" height="474" stroke="none" stroke-width="0" fill="#ebebeb"></rect><rect x="379" y="147" width="1" height="474" stroke="none" stroke-width="0" fill="#ebebeb"></rect><rect x="406" y="147" width="1" height="474" stroke="none" stroke-width="0" fill="#ebebeb"></rect><rect x="433" y="147" width="1" height="474" stroke="none" stroke-width="0" fill="#ebebeb"></rect><rect x="460" y="147" width="1" height="474" stroke="none" stroke-width="0" fill="#ebebeb"></rect><rect x="486" y="147" width="1" height="474" stroke="none" stroke-width="0" fill="#ebebeb"></rect><rect x="513" y="147" width="1" height="474" stroke="none" stroke-width="0" fill="#ebebeb"></rect><rect x="539" y="147" width="1" height="474" stroke="none" stroke-width="0" fill="#ebebeb"></rect><rect x="567" y="147" width="1" height="474" stroke="none" stroke-width="0" fill="#ebebeb"></rect><rect x="567" y="147" width="1" height="474" stroke="none" stroke-width="0" fill="#cccccc"></rect><rect x="594" y="147" width="1" height="474" stroke="none" stroke-width="0" fill="#ebebeb"></rect><rect x="618" y="147" width="1" height="474" stroke="none" stroke-width="0" fill="#ebebeb"></rect><rect x="645" y="147" width="1" height="474" stroke="none" stroke-width="0" fill="#ebebeb"></rect><rect x="672" y="147" width="1" height="474" stroke="none" stroke-width="0" fill="#ebebeb"></rect><rect x="699" y="147" width="1" height="474" stroke="none" stroke-width="0" fill="#ebebeb"></rect><rect x="725" y="147" width="1" height="474" stroke="none" stroke-width="0" fill="#ebebeb"></rect><rect x="752" y="147" width="1" height="474" stroke="none" stroke-width="0" fill="#ebebeb"></rect><rect x="779" y="147" width="1" height="474" stroke="none" stroke-width="0" fill="#ebebeb"></rect><rect x="806" y="147" width="1" height="474" stroke="none" stroke-width="0" fill="#ebebeb"></rect><rect x="833" y="147" width="1" height="474" stroke="none" stroke-width="0" fill="#ebebeb"></rect><rect x="859" y="147" width="1" height="474" stroke="none" stroke-width="0" fill="#ebebeb"></rect><rect x="886" y="147" width="1" height="474" stroke="none" stroke-width="0" fill="#ebebeb"></rect><rect x="886" y="147" width="1" height="474" stroke="none" stroke-width="0" fill="#cccccc"></rect><rect x="913" y="147" width="1" height="474" stroke="none" stroke-width="0" fill="#ebebeb"></rect><rect x="938" y="147" width="1" height="474" stroke="none" stroke-width="0" fill="#ebebeb"></rect><rect x="965" y="147" width="1" height="474" stroke="none" stroke-width="0" fill="#ebebeb"></rect><rect x="991" y="147" width="1" height="474" stroke="none" stroke-width="0" fill="#ebebeb"></rect><rect x="1018" y="147" width="1" height="474" stroke="none" stroke-width="0" fill="#ebebeb"></rect><rect x="1044" y="147" width="1" height="474" stroke="none" stroke-width="0" fill="#ebebeb"></rect><rect x="1072" y="147" width="1" height="474" stroke="none" stroke-width="0" fill="#ebebeb"></rect><rect x="1099" y="147" width="1" height="474" stroke="none" stroke-width="0" fill="#ebebeb"></rect><rect x="1125" y="147" width="1" height="474" stroke="none" stroke-width="0" fill="#ebebeb"></rect><rect x="247" y="620" width="906" height="1" stroke="none" stroke-width="0" fill="#cccccc"></rect><rect x="247" y="577" width="906" height="1" stroke="none" stroke-width="0" fill="#cccccc"></rect><rect x="247" y="534" width="906" height="1" stroke="none" stroke-width="0" fill="#cccccc"></rect><rect x="247" y="491" width="906" height="1" stroke="none" stroke-width="0" fill="#cccccc"></rect><rect x="247" y="448" width="906" height="1" stroke="none" stroke-width="0" fill="#cccccc"></rect><rect x="247" y="405" width="906" height="1" stroke="none" stroke-width="0" fill="#cccccc"></rect><rect x="247" y="362" width="906" height="1" stroke="none" stroke-width="0" fill="#cccccc"></rect><rect x="247" y="319" width="906" height="1" stroke="none" stroke-width="0" fill="#cccccc"></rect><rect x="247" y="276" width="906" height="1" stroke="none" stroke-width="0" fill="#cccccc"></rect><rect x="247" y="233" width="906" height="1" stroke="none" stroke-width="0" fill="#cccccc"></rect><rect x="247" y="190" width="906" height="1" stroke="none" stroke-width="0" fill="#cccccc"></rect><rect x="247" y="147" width="906" height="1" stroke="none" stroke-width="0" fill="#cccccc"></rect><rect x="247" y="599" width="906" height="1" stroke="none" stroke-width="0" fill="#ebebeb"></rect><rect x="247" y="556" width="906" height="1" stroke="none" stroke-width="0" fill="#ebebeb"></rect><rect x="247" y="513" width="906" height="1" stroke="none" stroke-width="0" fill="#ebebeb"></rect><rect x="247" y="470" width="906" height="1" stroke="none" stroke-width="0" fill="#ebebeb"></rect><rect x="247" y="427" width="906" height="1" stroke="none" stroke-width="0" fill="#ebebeb"></rect><rect x="247" y="384" width="906" height="1" stroke="none" stroke-width="0" fill="#ebebeb"></rect><rect x="247" y="341" width="906" height="1" stroke="none" stroke-width="0" fill="#ebebeb"></rect><rect x="247" y="298" width="906" height="1" stroke="none" stroke-width="0" fill="#ebebeb"></rect><rect x="247" y="255" width="906" height="1" stroke="none" stroke-width="0" fill="#ebebeb"></rect><rect x="247" y="212" width="906" height="1" stroke="none" stroke-width="0" fill="#ebebeb"></rect><rect x="247" y="169" width="906" height="1" stroke="none" stroke-width="0" fill="#ebebeb"></rect></g><g><rect x="247" y="620" width="906" height="1" stroke="none" stroke-width="0" fill="#333333"></rect></g><g><path d="M247.5,584.1225159974888L274.63249516441005,565.0644835400216L299.1392649903288,549.3848263471456L326.2717601547389,489.109154877004L352.5290135396518,296.854693467566L379.66150870406193,283.394581057222L405.91876208897486,185.30998503370398L433.0512572533849,245.760743680968L460.18375241779495,413.250601242446L486.4410058027079,526.258847056684L513.573500967118,567.5569215543662L539.8307543520309,576.5650045192102L566.963249516441,585.3324960032662L594.0957446808511,575.1896210765334L618.6025145067698,526.729860481538L645.7350096711798,462.81723615978L671.9922630560928,263.042361631636L699.1247582205028,220.899294093938L725.3820116054158,269.93172863656804L752.5145067698259,331.648090766766L779.647001934236,432.27290314418804L805.9042553191489,538.6419834469458L833.036750483559,568.513504774291L859.2940038684719,578.8715754823028L886.426499032882,586.5397428502934L913.558994197292,576.6333215094552L938.0657640232108,551.2009713789674L965.1982591876208,498.750598975518L991.4555125725338,370.71130390774204L1018.5880077369438,342.538323473844L1044.8452611218568,366.576995029012L1071.9777562862669,406.266755896296L1099.110251450677,489.216762834954L1125.36750483559,539.9079390986758L1152.5,565.6556487428606" stroke="#ef8a62" stroke-width="2" fill-opacity="1" fill="none"></path></g></g><g></g><g><g><text text-anchor="middle" x="247.60940522243715" y="644.6" font-family="Arial" font-size="16" stroke="none" stroke-width="0" fill="#444444">2021</text></g><g><text text-anchor="middle" x="567.0726547388781" y="644.6" font-family="Arial" font-size="16" stroke="none" stroke-width="0" fill="#444444">2022</text></g><g><text text-anchor="middle" x="886.5359042553191" y="644.6" font-family="Arial" font-size="16" stroke="none" stroke-width="0" fill="#444444">2023</text></g><g><text text-anchor="middle" x="299.24867021276594" y="644.6" font-family="Arial" font-size="16" stroke="none" stroke-width="0" fill="#444444">M</text></g><g><text text-anchor="middle" x="326.381165377176" y="644.6" font-family="Arial" font-size="16" stroke="none" stroke-width="0" fill="#444444">A</text></g><g><text text-anchor="middle" x="352.674887169568" y="644.6" font-family="Arial" font-size="16" stroke="none" stroke-width="0" fill="#444444">M</text></g><g><text text-anchor="middle" x="379.80738233397807" y="644.6" font-family="Arial" font-size="16" stroke="none" stroke-width="0" fill="#444444">J</text></g><g><text text-anchor="middle" x="406.06463571889105" y="644.6" font-family="Arial" font-size="16" stroke="none" stroke-width="0" fill="#444444">J</text></g><g><text text-anchor="middle" x="433.1971308833011" y="644.6" font-family="Arial" font-size="16" stroke="none" stroke-width="0" fill="#444444">A</text></g><g><text text-anchor="middle" x="460.32962604771114" y="644.6" font-family="Arial" font-size="16" stroke="none" stroke-width="0" fill="#444444">S</text></g><g><text text-anchor="middle" x="486.5504110251451" y="644.6" font-family="Arial" font-size="16" stroke="none" stroke-width="0" fill="#444444">O</text></g><g><text text-anchor="middle" x="513.6829061895551" y="644.6" font-family="Arial" font-size="16" stroke="none" stroke-width="0" fill="#444444">N</text></g><g><text text-anchor="middle" x="618.711919729207" y="644.6" font-family="Arial" font-size="16" stroke="none" stroke-width="0" fill="#444444">M</text></g><g><text text-anchor="middle" x="645.844414893617" y="644.6" font-family="Arial" font-size="16" stroke="none" stroke-width="0" fill="#444444">A</text></g><g><text text-anchor="middle" x="672.138136686009" y="644.6" font-family="Arial" font-size="16" stroke="none" stroke-width="0" fill="#444444">M</text></g><g><text text-anchor="middle" x="699.270631850419" y="644.6" font-family="Arial" font-size="16" stroke="none" stroke-width="0" fill="#444444">J</text></g><g><text text-anchor="middle" x="725.527885235332" y="644.6" font-family="Arial" font-size="16" stroke="none" stroke-width="0" fill="#444444">J</text></g><g><text text-anchor="middle" x="752.660380399742" y="644.6" font-family="Arial" font-size="16" stroke="none" stroke-width="0" fill="#444444">A</text></g><g><text text-anchor="middle" x="779.7928755641522" y="644.6" font-family="Arial" font-size="16" stroke="none" stroke-width="0" fill="#444444">S</text></g><g><text text-anchor="middle" x="806.0136605415861" y="644.6" font-family="Arial" font-size="16" stroke="none" stroke-width="0" fill="#444444">O</text></g><g><text text-anchor="middle" x="833.1461557059961" y="644.6" font-family="Arial" font-size="16" stroke="none" stroke-width="0" fill="#444444">N</text></g><g><text text-anchor="middle" x="938.1751692456479" y="644.6" font-family="Arial" font-size="16" stroke="none" stroke-width="0" fill="#444444">M</text></g><g><text text-anchor="middle" x="965.307664410058" y="644.6" font-family="Arial" font-size="16" stroke="none" stroke-width="0" fill="#444444">A</text></g><g><text text-anchor="middle" x="991.60138620245" y="644.6" font-family="Arial" font-size="16" stroke="none" stroke-width="0" fill="#444444">M</text></g><g><text text-anchor="middle" x="1018.73388136686" y="644.6" font-family="Arial" font-size="16" stroke="none" stroke-width="0" fill="#444444">J</text></g><g><text text-anchor="middle" x="1044.991134751773" y="644.6" font-family="Arial" font-size="16" stroke="none" stroke-width="0" fill="#444444">J</text></g><g><text text-anchor="middle" x="1072.123629916183" y="644.6" font-family="Arial" font-size="16" stroke="none" stroke-width="0" fill="#444444">A</text></g><g><text text-anchor="middle" x="1099.2561250805932" y="644.6" font-family="Arial" font-size="16" stroke="none" stroke-width="0" fill="#444444">S</text></g><g><text text-anchor="middle" x="1125.476910058027" y="644.6" font-family="Arial" font-size="16" stroke="none" stroke-width="0" fill="#444444">O</text></g><g><text text-anchor="end" x="231" y="626.1" font-family="Arial" font-size="16" stroke="none" stroke-width="0" fill="#444444">0.00000</text></g><g><text text-anchor="end" x="231" y="583.1" font-family="Arial" font-size="16" stroke="none" stroke-width="0" fill="#444444">0.00005</text></g><g><text text-anchor="end" x="231" y="540.1" font-family="Arial" font-size="16" stroke="none" stroke-width="0" fill="#444444">0.00010</text></g><g><text text-anchor="end" x="231" y="497.1" font-family="Arial" font-size="16" stroke="none" stroke-width="0" fill="#444444">0.00015</text></g><g><text text-anchor="end" x="231" y="454.1" font-family="Arial" font-size="16" stroke="none" stroke-width="0" fill="#444444">0.00020</text></g><g><text text-anchor="end" x="231" y="411.1" font-family="Arial" font-size="16" stroke="none" stroke-width="0" fill="#444444">0.00025</text></g><g><text text-anchor="end" x="231" y="368.1" font-family="Arial" font-size="16" stroke="none" stroke-width="0" fill="#444444">0.00030</text></g><g><text text-anchor="end" x="231" y="325.1" font-family="Arial" font-size="16" stroke="none" stroke-width="0" fill="#444444">0.00035</text></g><g><text text-anchor="end" x="231" y="282.1" font-family="Arial" font-size="16" stroke="none" stroke-width="0" fill="#444444">0.00040</text></g><g><text text-anchor="end" x="231" y="239.1" font-family="Arial" font-size="16" stroke="none" stroke-width="0" fill="#444444">0.00045</text></g><g><text text-anchor="end" x="231" y="196.1" font-family="Arial" font-size="16" stroke="none" stroke-width="0" fill="#444444">0.00050</text></g><g><text text-anchor="end" x="231" y="153.1" font-family="Arial" font-size="16" stroke="none" stroke-width="0" fill="#444444">0.00055</text></g></g></g><g><g><text text-anchor="middle" x="700" y="712.6" font-family="Arial" font-size="16" font-style="italic" stroke="none" stroke-width="0" fill="#222222">Fecha</text><rect x="247" y="699" width="906" height="16" stroke="none" stroke-width="0" fill-opacity="0" fill="#ffffff"></rect></g><g><text text-anchor="middle" x="92.1" y="384" font-family="Arial" font-size="16" font-style="italic" transform="rotate(-90 92.1 384)" stroke="none" stroke-width="0" fill="#222222">NO2 (mol/m^2)</text><path d="M78.49999999999999,621L78.50000000000001,147L94.50000000000001,147L94.49999999999999,621Z" stroke="none" stroke-width="0" fill-opacity="0" fill="#ffffff"></path></g></g><g></g></svg>