<svg width="1400" height="767" aria-label="A chart." style="overflow: hidden;"><defs id="_ABSTRACT_RENDERER_ID_7"><clipPath id="_ABSTRACT_RENDERER_ID_8"><rect x="247" y="147" width="906" height="474"></rect></clipPath></defs><rect x="0" y="0" width="1400" height="767" stroke="none" stroke-width="0" fill="#ffffff"></rect><g><text text-anchor="start" x="247" y="92.6" font-family="Arial" font-size="16" font-weight="bold" stroke="none" stroke-width="0" fill="#000000">Evolución de NDVI y NDWI en WalterLand</text><rect x="247" y="79" width="906" height="16" stroke="none" stroke-width="0" fill-opacity="0" fill="#ffffff"></rect></g><g><rect x="247" y="105" width="164" height="16" stroke="none" stroke-width="0" fill-opacity="0" fill="#ffffff"></rect><g column-id="ndvi"><rect x="247" y="105" width="67" height="16" stroke="none" stroke-width="0" fill-opacity="0" fill="#ffffff"></rect><g><text text-anchor="start" x="285" y="118.6" font-family="Arial" font-size="16" stroke="none" stroke-width="0" fill="#222222">ndvi</text></g><path d="M247,113L279,113" stroke="#008000" stroke-width="2" fill-opacity="1" fill="none"></path></g><g column-id="ndwi"><rect x="340" y="105" width="71" height="16" stroke="none" stroke-width="0" fill-opacity="0" fill="#ffffff"></rect><g><text text-anchor="start" x="378" y="118.6" font-family="Arial" font-size="16" stroke="none" stroke-width="0" fill="#222222">ndwi</text></g><path d="M340,113L372,113" stroke="#0000ff" stroke-width="2" fill-opacity="1" fill="none"></path></g></g><g><rect x="247" y="147" width="906" height="474" stroke="none" stroke-width="0" fill-opacity="0" fill="#ffffff"></rect><g clip-path="url(https://code.earthengine.google.com/#_ABSTRACT_RENDERER_ID_8)"><g><rect x="273" y="147" width="1" height="474" stroke="none" stroke-width="0" fill="#ebebeb"></rect><rect x="299" y="147" width="1" height="474" stroke="none" stroke-width="0" fill="#ebebeb"></rect><rect x="328" y="147" width="1" height="474" stroke="none" stroke-width="0" fill="#ebebeb"></rect><rect x="356" y="147" width="1" height="474" stroke="none" stroke-width="0" fill="#ebebeb"></rect><rect x="384" y="147" width="1" height="474" stroke="none" stroke-width="0" fill="#ebebeb"></rect><rect x="412" y="147" width="1" height="474" stroke="none" stroke-width="0" fill="#ebebeb"></rect><rect x="441" y="147" width="1" height="474" stroke="none" stroke-width="0" fill="#ebebeb"></rect><rect x="469" y="147" width="1" height="474" stroke="none" stroke-width="0" fill="#ebebeb"></rect><rect x="497" y="147" width="1" height="474" stroke="none" stroke-width="0" fill="#ebebeb"></rect><rect x="525" y="147" width="1" height="474" stroke="none" stroke-width="0" fill="#ebebeb"></rect><rect x="553" y="147" width="1" height="474" stroke="none" stroke-width="0" fill="#ebebeb"></rect><rect x="582" y="147" width="1" height="474" stroke="none" stroke-width="0" fill="#ebebeb"></rect><rect x="582" y="147" width="1" height="474" stroke="none" stroke-width="0" fill="#cccccc"></rect><rect x="610" y="147" width="1" height="474" stroke="none" stroke-width="0" fill="#ebebeb"></rect><rect x="637" y="147" width="1" height="474" stroke="none" stroke-width="0" fill="#ebebeb"></rect><rect x="666" y="147" width="1" height="474" stroke="none" stroke-width="0" fill="#ebebeb"></rect><rect x="694" y="147" width="1" height="474" stroke="none" stroke-width="0" fill="#ebebeb"></rect><rect x="722" y="147" width="1" height="474" stroke="none" stroke-width="0" fill="#ebebeb"></rect><rect x="750" y="147" width="1" height="474" stroke="none" stroke-width="0" fill="#ebebeb"></rect><rect x="778" y="147" width="1" height="474" stroke="none" stroke-width="0" fill="#ebebeb"></rect><rect x="807" y="147" width="1" height="474" stroke="none" stroke-width="0" fill="#ebebeb"></rect><rect x="835" y="147" width="1" height="474" stroke="none" stroke-width="0" fill="#ebebeb"></rect><rect x="863" y="147" width="1" height="474" stroke="none" stroke-width="0" fill="#ebebeb"></rect><rect x="891" y="147" width="1" height="474" stroke="none" stroke-width="0" fill="#ebebeb"></rect><rect x="920" y="147" width="1" height="474" stroke="none" stroke-width="0" fill="#ebebeb"></rect><rect x="920" y="147" width="1" height="474" stroke="none" stroke-width="0" fill="#cccccc"></rect><rect x="948" y="147" width="1" height="474" stroke="none" stroke-width="0" fill="#ebebeb"></rect><rect x="974" y="147" width="1" height="474" stroke="none" stroke-width="0" fill="#ebebeb"></rect><rect x="1003" y="147" width="1" height="474" stroke="none" stroke-width="0" fill="#ebebeb"></rect><rect x="1031" y="147" width="1" height="474" stroke="none" stroke-width="0" fill="#ebebeb"></rect><rect x="1059" y="147" width="1" height="474" stroke="none" stroke-width="0" fill="#ebebeb"></rect><rect x="1087" y="147" width="1" height="474" stroke="none" stroke-width="0" fill="#ebebeb"></rect><rect x="1116" y="147" width="1" height="474" stroke="none" stroke-width="0" fill="#ebebeb"></rect><rect x="1144" y="147" width="1" height="474" stroke="none" stroke-width="0" fill="#ebebeb"></rect><rect x="247" y="620" width="906" height="1" stroke="none" stroke-width="0" fill="#cccccc"></rect><rect x="247" y="573" width="906" height="1" stroke="none" stroke-width="0" fill="#cccccc"></rect><rect x="247" y="525" width="906" height="1" stroke="none" stroke-width="0" fill="#cccccc"></rect><rect x="247" y="478" width="906" height="1" stroke="none" stroke-width="0" fill="#cccccc"></rect><rect x="247" y="431" width="906" height="1" stroke="none" stroke-width="0" fill="#cccccc"></rect><rect x="247" y="384" width="906" height="1" stroke="none" stroke-width="0" fill="#cccccc"></rect><rect x="247" y="336" width="906" height="1" stroke="none" stroke-width="0" fill="#cccccc"></rect><rect x="247" y="289" width="906" height="1" stroke="none" stroke-width="0" fill="#cccccc"></rect><rect x="247" y="242" width="906" height="1" stroke="none" stroke-width="0" fill="#cccccc"></rect><rect x="247" y="194" width="906" height="1" stroke="none" stroke-width="0" fill="#cccccc"></rect><rect x="247" y="147" width="906" height="1" stroke="none" stroke-width="0" fill="#cccccc"></rect><rect x="247" y="596" width="906" height="1" stroke="none" stroke-width="0" fill="#ebebeb"></rect><rect x="247" y="549" width="906" height="1" stroke="none" stroke-width="0" fill="#ebebeb"></rect><rect x="247" y="502" width="906" height="1" stroke="none" stroke-width="0" fill="#ebebeb"></rect><rect x="247" y="454" width="906" height="1" stroke="none" stroke-width="0" fill="#ebebeb"></rect><rect x="247" y="407" width="906" height="1" stroke="none" stroke-width="0" fill="#ebebeb"></rect><rect x="247" y="360" width="906" height="1" stroke="none" stroke-width="0" fill="#ebebeb"></rect><rect x="247" y="313" width="906" height="1" stroke="none" stroke-width="0" fill="#ebebeb"></rect><rect x="247" y="265" width="906" height="1" stroke="none" stroke-width="0" fill="#ebebeb"></rect><rect x="247" y="218" width="906" height="1" stroke="none" stroke-width="0" fill="#ebebeb"></rect><rect x="247" y="171" width="906" height="1" stroke="none" stroke-width="0" fill="#ebebeb"></rect><rect x="247" y="571" width="906" height="1" stroke="none" stroke-width="0" fill="#cccccc"></rect><rect x="247" y="519" width="906" height="1" stroke="none" stroke-width="0" fill="#cccccc"></rect><rect x="247" y="466" width="906" height="1" stroke="none" stroke-width="0" fill="#cccccc"></rect><rect x="247" y="414" width="906" height="1" stroke="none" stroke-width="0" fill="#cccccc"></rect><rect x="247" y="362" width="906" height="1" stroke="none" stroke-width="0" fill="#cccccc"></rect><rect x="247" y="310" width="906" height="1" stroke="none" stroke-width="0" fill="#cccccc"></rect><rect x="247" y="258" width="906" height="1" stroke="none" stroke-width="0" fill="#cccccc"></rect><rect x="247" y="206" width="906" height="1" stroke="none" stroke-width="0" fill="#cccccc"></rect><rect x="247" y="154" width="906" height="1" stroke="none" stroke-width="0" fill="#cccccc"></rect><rect x="247" y="623" width="906" height="1" stroke="none" stroke-width="0" fill="#ebebeb"></rect><rect x="247" y="597" width="906" height="1" stroke="none" stroke-width="0" fill="#ebebeb"></rect><rect x="247" y="545" width="906" height="1" stroke="none" stroke-width="0" fill="#ebebeb"></rect><rect x="247" y="492" width="906" height="1" stroke="none" stroke-width="0" fill="#ebebeb"></rect><rect x="247" y="440" width="906" height="1" stroke="none" stroke-width="0" fill="#ebebeb"></rect><rect x="247" y="388" width="906" height="1" stroke="none" stroke-width="0" fill="#ebebeb"></rect><rect x="247" y="336" width="906" height="1" stroke="none" stroke-width="0" fill="#ebebeb"></rect><rect x="247" y="284" width="906" height="1" stroke="none" stroke-width="0" fill="#ebebeb"></rect><rect x="247" y="232" width="906" height="1" stroke="none" stroke-width="0" fill="#ebebeb"></rect><rect x="247" y="180" width="906" height="1" stroke="none" stroke-width="0" fill="#ebebeb"></rect><rect x="247" y="128" width="906" height="1" stroke="none" stroke-width="0" fill="#ebebeb"></rect></g><g><rect x="247" y="620" width="906" height="1" stroke="none" stroke-width="0" fill="#333333"></rect></g><g><path d="M247.5,270.80346949759075L247.5000149850006,270.6397629587092L252.11734897026196,275.0523245249066L252.11736394457427,274.7952615281886L256.7346648174734,264.5139034257028L256.7346799200453,264.5473167990104L261.35200582494974,276.55270472519476L261.35202087408015,275.77019505256L265.9693833543569,278.9769504408492L265.96939839279906,279.0951924355134L270.58672800654455,268.9182061105992L270.58674298085685,269.7343386154154L275.204063370597,276.8308131904558L275.2040784517923,276.28914066142744L279.8214336640232,339.2096854854588L279.82144860627056,342.8698135012074L284.4387762106151,290.24855521235537L289.05610304540187,288.63285818865415L289.056118083844,290.4636983085982L293.67348458292264,302.99037855529417L293.6734995144817,303.3001704806514L298.29080642627196,305.5270646320828L298.29082142196086,305.8591602030504L302.9082058773883,309.7827229200936L302.9082174100671,310.4529279527006L312.14291797991353,313.82885259622503L312.1429328794077,314.571545794087L316.76020086439894,319.1076008636528L316.76021580664633,318.8909796389098L321.37759117701637,321.3823937856896L321.3776061299521,323.4385366140952L325.9948886724118,311.5173142947614L325.9949036574124,311.8587450182304L335.22960831019054,328.42178065062643L335.22962323106134,328.3444933771388L362.93370060333507,576.2195108808671L409.10719695407914,408.0481888119814L409.10721189632653,407.502704121952L446.045982474206,398.4742708599588L446.04599742714174,398.3459797206176L450.66335244698314,380.6766345654306L464.515381604498,374.962881768562L464.51539652536877,374.6103023514666L496.836768079664,318.58614937589783L496.8367830219114,317.7347900669526L501.45410468355965,315.2970950737444L501.4541196364953,315.1546118961516L510.6887733595103,299.0566534098848L510.68878837657587,298.69310969149643L529.1581649438605,265.41099938791365L529.1581799074845,264.88582868195476L533.7755417678397,300.50840591913357L533.7755566780222,291.4330134241252L543.0101867264464,222.48730413174883L543.0102017542001,221.5040831232934L547.6275198138903,221.28744375086478L552.2448744382646,197.76406698956498L552.2448894446418,197.09785778537258L556.862180762198,198.89700388521157L556.8621958006402,198.13758816238538L561.4795628234457,199.63102916736L561.4795778618877,198.8531608343754L566.0969036812858,199.23490926324382L566.0969186769746,197.937174071306L570.7142997548984,207.7087718810534L575.3316075645062,208.39440397648076L575.3316225281301,206.584294451534L579.9490024944703,201.78303971135097L579.9490173832762,199.91489335819L584.5663005456576,210.10901675813398L584.5663155092816,209.75020506598304L589.1836707535773,205.9301781423382L589.1836857172013,205.3376953992376L593.8009631506523,207.0979228689306L593.8009782104709,206.361640963664L598.4183681062445,203.49514529520337L598.4183830484919,203.15949525429704L603.0356518671708,222.2721608634286L607.6530499394961,221.2015470089492L607.6530649458733,220.9379427940092L612.2703713339367,218.96960112462062L612.2703863616905,218.62024450920183L616.8877590279199,225.3042661053878L616.8877740129205,223.77379230906382L621.5050804864903,213.5259595193088L621.5050954928676,213.2471768388072L626.1224692813687,223.7916206708502L626.1224842236161,223.4646099326576L635.3571383100334,222.8723640446854L635.3571533057224,221.6787246097502L639.9745313161031,233.11378455289662L639.974537664955,232.6258346637336L644.5917876615326,241.3890912433826L644.5918027641046,240.4302984172706L649.2091902550101,287.73696083672877L649.2092051758808,290.0995124368958L663.0612324522544,584.0836813456685L663.06124740519,584.3628329925257L672.29591463822,527.557332385076L672.2959296232204,526.5317457878655L681.5306310053779,276.10630237823057L681.5306459048721,275.1250516976292L690.7653033153517,274.347571056635L690.7653182469107,273.31435002019845L709.2346801284673,362.9818913403596L709.2346951348445,362.1708247556026L750.7908580561189,381.8798078957368L750.7908730411195,381.0239182056572L755.4082182918521,616.7401350817728L769.260225709359,434.23791971653395L769.2602407371128,433.2425986744714L796.9642907580195,433.25899113019716L820.0510194058622,363.238867411408L820.0510343801745,363.619009308169L838.5204221808655,273.9946889855704L838.520437058983,273.058292211011L852.372451926237,224.88993385401744L861.6071525281484,208.22497456150182M880.0765302818346,177.89961730524396L880.076545224082,177.2491841414746L884.6938893846077,183.55366543172022L884.6939042627253,182.12109598577297M893.9285812541756,180.83474562344077L893.928596164358,180.65232742488263L898.5459331850975,186.98425106206457L898.5459481273449,185.28863396230338L903.1632812041005,200.185125458196L903.1632961035947,199.61665987216924L907.7806007815296,241.36510881188758L907.7806157985951,228.86633846657355L912.3979769748989,230.85863935157658L912.3979919064581,230.10749422985617L917.0153186771149,247.24147794639822L921.6326538060248,229.72806761287137L921.632668780337,229.00137659455658L930.8673426721796,251.0317800639716L930.8673576678684,250.32239295800338L940.1020563779502,251.27139045625222L940.1020713201976,251.75201954609417L944.7196846549424,250.02525893598124L944.7196940927138,249.7308687324694L944.7197576881157,251.2124204237286L944.7197641438506,249.10655103635958L949.3367628370515,248.5674297013216L949.3367777792989,247.53228456322637L953.9544014282559,242.0573054106648L953.9544077343546,241.2529211862892L958.5714664744409,242.79650819196422L958.5714813953117,242.62473040690844L963.1890548626868,253.34145684725797L963.1890612436035,252.4568362828458L967.8061718219587,259.353815614904L967.8061867214528,259.0486206421202L972.4237273864265,273.7599144104848L972.4237423714271,273.3663956698764L977.0408504594077,277.1287499435214L981.6584182833589,262.8294637300058L981.6584332897361,262.5915480611556L986.2755265423523,276.1991814212742L986.2755415059763,275.8859402972366L990.8931570318231,275.7582855625566L990.8931633272335,274.82762653701195L992.7399237259409,287.89382871039237L992.739938764383,288.3033651858152L995.5102365499702,296.0769357319918L995.5102514601526,296.175656605619L1009.3625057133256,417.1411609705792L1013.9796197012494,309.599544700973L1013.9796346114318,308.5923971292284L1027.8318682896218,320.8048451852982L1027.8318832211808,320.45852203429143L1032.4490152295832,569.9610072438672L1055.5359404780686,505.320603368767L1060.1530695044344,447.332557683197L1060.1530844573701,444.97526739513216L1083.2400134895147,376.2252101518692L1083.2400284424505,376.70489323064305L1087.8571876739602,383.16283194970777M1101.7094408048615,482.726096242983L1101.7094492379324,482.19130843376365L1106.3265561715762,419.1561148170848L1106.3265711352,418.3231701421686L1138.6481636274038,346.839644716311L1138.6481785910278,346.7385357347418L1147.882834088301,307.8586861291866L1147.882849051925,307.49106393925604L1152.4999849722462,301.5580528754784L1152.5,300.763738304303" stroke="#008000" stroke-width="2" fill-opacity="1" fill="none"></path><path d="M247.5,572.6880880180202L247.5000149850006,573.9030892213199L252.11734897026196,568.4630963505583L252.11736394457427,569.7183268250058L256.7346648174734,581.8686930611499L256.7346799200453,582.8581001248582L261.35200582494974,571.861713132369L261.35202087408015,573.8555151002781L265.9693833543569,572.5792642702311L265.96939839279906,573.3445651708671L270.58672800654455,579.7442127108347L270.58674298085685,579.7783248429807L275.204063370597,573.8970303452363L275.2040784517923,575.4331694407815L279.8214336640232,479.96565904643364L279.82144860627056,475.30901725911866L284.4387762106151,558.2040505275937L289.05610304540187,562.4375422980061L289.056118083844,561.0327043046161L293.67348458292264,548.7215511185711L293.6734995144817,549.313884783182L298.29080642627196,550.9411603724344L298.29082142196086,551.5246798251636L302.9082058773883,548.0422236544875L302.9082174100671,547.8484087294437L312.14291797991353,543.0493365588984L312.1429328794077,542.8822827356951L316.76020086439894,539.1233766212183L316.76021580664633,540.484788447568L321.37759117701637,537.159073218145L321.3776061299521,534.6276957417895L325.9948886724118,547.9844442627216L325.9949036574124,548.4102948362513L335.22960831019054,532.1141077378309L335.22962323106134,533.0828157588342L362.93370060333507,218.2299927960093L409.10719695407914,402.6077618017131L409.10721189632653,404.52703431007785L446.045982474206,421.6401466292674L446.04599742714174,422.9746538862173L450.66335244698314,438.4817517170106L464.515381604498,438.7644805236554L464.51539652536877,440.32594487269625L496.836768079664,487.37186158585047L496.8367830219114,489.848600171707L501.45410468355965,488.4175279206604L501.4541196364953,489.38616574029305L510.6887733595103,509.9826760614933L510.68878837657587,511.16450424698604L529.1581649438605,532.1734820493273L529.1581799074845,533.5674268469581L533.7755417678397,486.51496406067207L533.7755566780222,495.70504954322735L543.0101867264464,564.0678710545166L543.0102017542001,566.2621894355799L547.6275198138903,572.932425863037L552.2448744382646,596.1989962046565L552.2448894446418,597.9011051737817L556.862180762198,595.5959331037642L556.8621958006402,597.531254168227L561.4795628234457,594.8017517305268L561.4795778618877,596.6469057465249L566.0969036812858,595.985833500561L566.0969186769746,598.7213840066267L570.7142997548984,582.0438711600666L575.3316075645062,587.008732282778L575.3316225281301,590.0935340748273L579.9490024944703,592.6178517871945L579.9490173832762,595.9646202354659L584.5663005456576,593.1189799677447L584.5663155092816,594.65720579966L589.1836707535773,598.8969506271415L589.1836857172013,600.5415461259909L593.8009631506523,598.8615587409038L593.8009782104709,601.0917145149751L598.4183681062445,608.4213014793653L598.4183830484919,609.8404945115569L603.0356518671708,590.5053644790679L607.6530499394961,596.8400075655044L607.6530649458733,598.1551178548259L612.2703713339367,601.9571517143361L612.2703863616905,603.6278966915951L616.8877590279199,593.5298839228137L616.8877740129205,596.524731922967L621.5050804864903,609.7694857051467L621.5050954928676,611.1576198334444L626.1224692813687,601.8259212100645L626.1224842236161,603.2316589527941L635.3571383100334,600.6900989677329L635.3571533057224,603.427821974703L639.9745313161031,592.379322125667L639.974537664955,594.0312073422042L644.5917876615326,581.7800858728623L644.5918027641046,584.2230122637329L649.2091902550101,499.30491160114144L649.2092051758808,497.78055294651006L663.0612324522544,211.7988950769369L663.06124740519,212.44628511508176L672.29591463822,273.98353278185033L672.2959296232204,275.1886215227962L681.5306310053779,540.2508116002094L681.5306459048721,542.6767617621772L690.7653033153517,548.2814204368864L690.7653182469107,550.8851803480807L709.2346801284673,463.9604534122923L709.2346951348445,466.44520046973577L750.7908580561189,442.3012488009312L750.7908730411195,444.8132084636853L755.4082182918521,147.50000000000006L769.260225709359,382.5800430945904L769.2602407371128,385.5300901973168L796.9642907580195,393.0599106233279L820.0510194058622,454.469120529382L820.0510343801745,454.885273377769L838.5204221808655,518.8123217292016L838.520437058983,521.1055440810092L852.372451926237,574.9758028684594L861.6071525281484,590.4764442282722M880.0765302818346,620.1263545775578L880.076545224082,620.5L884.6938893846077,611.2622972396629L884.6939042627253,613.5964099988844M893.9285812541756,617.4553243716271L893.928596164358,618.5922759068264L898.5459331850975,613.0879008695908L898.5459481273449,616.4464764356701L903.1632812041005,604.4718170310423L903.1632961035947,606.2169030351005L907.7806007815296,556.6512532051613L907.7806157985951,569.2973649100188L912.3979769748989,590.433850615214L912.3979919064581,592.3080052450815L917.0153186771149,580.5184949743041L921.6326538060248,604.1838276680902L921.632668780337,606.0754028888209L930.8673426721796,583.7449419054589L930.8673576678684,585.928180361158L940.1020563779502,588.7617829226167L940.1020713201976,589.3144467788065L944.7196846549424,592.3460289156073L944.7196940927138,593.9771188033897L944.7197576881157,591.2970479780788L944.7197641438506,594.7413760318091L949.3367628370515,595.5690303737763L949.3367777792989,597.846131536488L953.9544014282559,602.4930815845164L953.9544077343546,604.5539002223729L958.5714664744409,601.9284785005614L958.5714813953117,603.023585430142L963.1890548626868,591.2442905470627L963.1890612436035,593.4755654665832L967.8061718219587,586.0850597058009L967.8061867214528,587.5060659498931L972.4237273864265,569.8117114380884L972.4237423714271,571.5415771371918L977.0408504594077,571.8204481402229L981.6584182833589,576.285533593234L981.6584332897361,577.5865269959842L986.2755265423523,561.143475767417L986.2755415059763,561.2397172946448L990.8931570318231,560.5392518145327L990.8931633272335,562.9318327112109L992.7399237259409,547.3443060824404L992.739938764383,547.8683215830862L995.5102365499702,534.678265958587L995.5102514601526,535.7917924195067L1009.3625057133256,411.40528607192124L1013.9796197012494,518.1806042029771L1013.9796346114318,520.467023756805L1027.8318682896218,488.3573158779911L1027.8318832211808,488.9924333729745L1032.4490152295832,220.85714510936987L1055.5359404780686,281.0185278983277L1060.1530695044344,356.07408299530243L1060.1530844573701,358.6691594632257L1083.2400134895147,450.7096484574133L1083.2400284424505,451.0108959909125L1087.8571876739602,422.5150022359155M1101.7094408048615,328.23174296136074L1101.7094492379324,329.66479261209884L1106.3265561715762,413.41721645832774L1106.3265711352,415.9834458461386L1138.6481636274038,463.56618887283446L1138.6481785910278,464.82073182949927L1147.882834088301,493.4083787527708L1147.882849051925,494.9087088819477L1152.4999849722462,495.9597061490766L1152.5,498.37967557639354" stroke="#0000ff" stroke-width="2" fill-opacity="1" fill="none"></path></g></g><g></g><g><g><text text-anchor="middle" x="582.2622405215174" y="644.6" font-family="Arial" font-size="16" stroke="none" stroke-width="0" fill="#444444">2024</text></g><g><text text-anchor="middle" x="920.2520286679398" y="644.6" font-family="Arial" font-size="16" stroke="none" stroke-width="0" fill="#444444">2025</text></g><g><text text-anchor="middle" x="273.8234721037439" y="644.6" font-family="Arial" font-size="16" stroke="none" stroke-width="0" fill="#444444">F</text></g><g><text text-anchor="middle" x="299.6806143663117" y="644.6" font-family="Arial" font-size="16" stroke="none" stroke-width="0" fill="#444444">M</text></g><g><text text-anchor="middle" x="328.3081647284404" y="644.6" font-family="Arial" font-size="16" stroke="none" stroke-width="0" fill="#444444">A</text></g><g><text text-anchor="middle" x="356.0507236143205" y="644.6" font-family="Arial" font-size="16" stroke="none" stroke-width="0" fill="#444444">M</text></g><g><text text-anchor="middle" x="384.67827397644913" y="644.6" font-family="Arial" font-size="16" stroke="none" stroke-width="0" fill="#444444">J</text></g><g><text text-anchor="middle" x="412.38235497205756" y="644.6" font-family="Arial" font-size="16" stroke="none" stroke-width="0" fill="#444444">J</text></g><g><text text-anchor="middle" x="441.0099053341862" y="644.6" font-family="Arial" font-size="16" stroke="none" stroke-width="0" fill="#444444">A</text></g><g><text text-anchor="middle" x="469.6374556963149" y="644.6" font-family="Arial" font-size="16" stroke="none" stroke-width="0" fill="#444444">S</text></g><g><text text-anchor="middle" x="497.3030588016516" y="644.6" font-family="Arial" font-size="16" stroke="none" stroke-width="0" fill="#444444">O</text></g><g><text text-anchor="middle" x="525.9306091637802" y="644.6" font-family="Arial" font-size="16" stroke="none" stroke-width="0" fill="#444444">N</text></g><g><text text-anchor="middle" x="637.6704025127342" y="644.6" font-family="Arial" font-size="16" stroke="none" stroke-width="0" fill="#444444">M</text></g><g><text text-anchor="middle" x="666.2979528748629" y="644.6" font-family="Arial" font-size="16" stroke="none" stroke-width="0" fill="#444444">A</text></g><g><text text-anchor="middle" x="694.0405117607429" y="644.6" font-family="Arial" font-size="16" stroke="none" stroke-width="0" fill="#444444">M</text></g><g><text text-anchor="middle" x="722.6680621228716" y="644.6" font-family="Arial" font-size="16" stroke="none" stroke-width="0" fill="#444444">J</text></g><g><text text-anchor="middle" x="750.37214311848" y="644.6" font-family="Arial" font-size="16" stroke="none" stroke-width="0" fill="#444444">J</text></g><g><text text-anchor="middle" x="778.9996934806087" y="644.6" font-family="Arial" font-size="16" stroke="none" stroke-width="0" fill="#444444">A</text></g><g><text text-anchor="middle" x="807.6272438427374" y="644.6" font-family="Arial" font-size="16" stroke="none" stroke-width="0" fill="#444444">S</text></g><g><text text-anchor="middle" x="835.2928469480742" y="644.6" font-family="Arial" font-size="16" stroke="none" stroke-width="0" fill="#444444">O</text></g><g><text text-anchor="middle" x="863.9203973102028" y="644.6" font-family="Arial" font-size="16" stroke="none" stroke-width="0" fill="#444444">N</text></g><g><text text-anchor="middle" x="974.7367212926364" y="644.6" font-family="Arial" font-size="16" stroke="none" stroke-width="0" fill="#444444">M</text></g><g><text text-anchor="middle" x="1003.364271654765" y="644.6" font-family="Arial" font-size="16" stroke="none" stroke-width="0" fill="#444444">A</text></g><g><text text-anchor="middle" x="1031.1068305406452" y="644.6" font-family="Arial" font-size="16" stroke="none" stroke-width="0" fill="#444444">M</text></g><g><text text-anchor="middle" x="1059.7343809027739" y="644.6" font-family="Arial" font-size="16" stroke="none" stroke-width="0" fill="#444444">J</text></g><g><text text-anchor="middle" x="1087.4384618983822" y="644.6" font-family="Arial" font-size="16" stroke="none" stroke-width="0" fill="#444444">J</text></g><g><text text-anchor="middle" x="1116.066012260511" y="644.6" font-family="Arial" font-size="16" stroke="none" stroke-width="0" fill="#444444">A</text></g><g><text text-anchor="middle" x="1144.6935626226395" y="644.6" font-family="Arial" font-size="16" stroke="none" stroke-width="0" fill="#444444">S</text></g><g><text text-anchor="end" x="231" y="626.1" font-family="Arial" font-size="16" stroke="none" stroke-width="0" fill="#444444">0.00</text></g><g><text text-anchor="end" x="231" y="578.8000000000001" font-family="Arial" font-size="16" stroke="none" stroke-width="0" fill="#444444">0.05</text></g><g><text text-anchor="end" x="231" y="531.5" font-family="Arial" font-size="16" stroke="none" stroke-width="0" fill="#444444">0.10</text></g><g><text text-anchor="end" x="231" y="484.20000000000005" font-family="Arial" font-size="16" stroke="none" stroke-width="0" fill="#444444">0.15</text></g><g><text text-anchor="end" x="231" y="436.90000000000003" font-family="Arial" font-size="16" stroke="none" stroke-width="0" fill="#444444">0.20</text></g><g><text text-anchor="end" x="231" y="389.6" font-family="Arial" font-size="16" stroke="none" stroke-width="0" fill="#444444">0.25</text></g><g><text text-anchor="end" x="231" y="342.3" font-family="Arial" font-size="16" stroke="none" stroke-width="0" fill="#444444">0.30</text></g><g><text text-anchor="end" x="231" y="295" font-family="Arial" font-size="16" stroke="none" stroke-width="0" fill="#444444">0.35</text></g><g><text text-anchor="end" x="231" y="247.7" font-family="Arial" font-size="16" stroke="none" stroke-width="0" fill="#444444">0.40</text></g><g><text text-anchor="end" x="231" y="200.4" font-family="Arial" font-size="16" stroke="none" stroke-width="0" fill="#444444">0.45</text></g><g><text text-anchor="end" x="231" y="153.1" font-family="Arial" font-size="16" stroke="none" stroke-width="0" fill="#444444">0.50</text></g><g><text text-anchor="start" x="1169" y="576.7889" font-family="Arial" font-size="16" stroke="none" stroke-width="0" fill="#444444">-0.40</text></g><g><text text-anchor="start" x="1169" y="524.6573000000001" font-family="Arial" font-size="16" stroke="none" stroke-width="0" fill="#444444">-0.35</text></g><g><text text-anchor="start" x="1169" y="472.52570000000003" font-family="Arial" font-size="16" stroke="none" stroke-width="0" fill="#444444">-0.30</text></g><g><text text-anchor="start" x="1169" y="420.39410000000004" font-family="Arial" font-size="16" stroke="none" stroke-width="0" fill="#444444">-0.25</text></g><g><text text-anchor="start" x="1169" y="368.2624" font-family="Arial" font-size="16" stroke="none" stroke-width="0" fill="#444444">-0.20</text></g><g><text text-anchor="start" x="1169" y="316.1308" font-family="Arial" font-size="16" stroke="none" stroke-width="0" fill="#444444">-0.15</text></g><g><text text-anchor="start" x="1169" y="263.99920000000003" font-family="Arial" font-size="16" stroke="none" stroke-width="0" fill="#444444">-0.10</text></g><g><text text-anchor="start" x="1169" y="211.86759999999998" font-family="Arial" font-size="16" stroke="none" stroke-width="0" fill="#444444">-0.05</text></g><g><text text-anchor="start" x="1169" y="159.736" font-family="Arial" font-size="16" stroke="none" stroke-width="0" fill="#444444">0.00</text></g></g></g><g><g><text text-anchor="middle" x="700" y="712.6" font-family="Arial" font-size="16" font-style="italic" stroke="none" stroke-width="0" fill="#222222">Fecha</text><rect x="247" y="699" width="906" height="16" stroke="none" stroke-width="0" fill-opacity="0" fill="#ffffff"></rect></g><g><text text-anchor="middle" x="105.6" y="384" font-family="Arial" font-size="16" font-style="italic" transform="rotate(-90 105.6 384)" stroke="none" stroke-width="0" fill="#222222">NDVI</text><path d="M91.99999999999999,621L92.00000000000001,147L108.00000000000001,147L107.99999999999999,621Z" stroke="none" stroke-width="0" fill-opacity="0" fill="#ffffff"></path></g><g><text text-anchor="middle" x="1308.1" y="384" font-family="Arial" font-size="16" font-style="italic" transform="rotate(-90 1308.1 384)" stroke="none" stroke-width="0" fill="#222222">NDWI</text><path d="M1294.5,621.0000000000001L1294.5,147.00000000000003L1310.5,147.00000000000003L1310.5,621.0000000000001Z" stroke="none" stroke-width="0" fill-opacity="0" fill="#ffffff"></path></g></g><g></g></svg>