<svg width="1400" height="767" aria-label="A chart." style="overflow: hidden;"><defs id="_ABSTRACT_RENDERER_ID_43"><clipPath id="_ABSTRACT_RENDERER_ID_44"><rect x="247" y="147" width="906" height="474"></rect></clipPath></defs><rect x="0" y="0" width="1400" height="767" stroke="none" stroke-width="0" fill="#ffffff"></rect><g><text text-anchor="start" x="247" y="118.6" font-family="Arial" font-size="16" font-weight="bold" stroke="none" stroke-width="0" fill="#000000">Tendencia NDVI - Predio Chonchi (2018-2024)</text><rect x="247" y="105" width="906" height="16" stroke="none" stroke-width="0" fill-opacity="0" fill="#ffffff"></rect></g><g><rect x="1169" y="147" width="215" height="16" stroke="none" stroke-width="0" fill-opacity="0" fill="#ffffff"></rect><g column-id="ndvi_mean"><rect x="1169" y="147" width="215" height="16" stroke="none" stroke-width="0" fill-opacity="0" fill="#ffffff"></rect><g><text text-anchor="start" x="1207" y="160.6" font-family="Arial" font-size="16" stroke="none" stroke-width="0" fill="#222222">ndvi_mean</text></g><path d="M1169,155L1201,155" stroke="#2e7d32" stroke-width="3" fill-opacity="1" fill="none"></path><circle cx="1185" cy="155" r="4" stroke="none" stroke-width="0" fill="#2e7d32"></circle></g></g><g><rect x="247" y="147" width="906" height="474" stroke="none" stroke-width="0" fill-opacity="0" fill="#ffffff"></rect><g clip-path="url(https://code.earthengine.google.com/#_ABSTRACT_RENDERER_ID_44)"><g><rect x="247" y="147" width="1" height="474" stroke="none" stroke-width="0" fill="#cccccc"></rect><rect x="398" y="147" width="1" height="474" stroke="none" stroke-width="0" fill="#cccccc"></rect><rect x="549" y="147" width="1" height="474" stroke="none" stroke-width="0" fill="#cccccc"></rect><rect x="700" y="147" width="1" height="474" stroke="none" stroke-width="0" fill="#cccccc"></rect><rect x="850" y="147" width="1" height="474" stroke="none" stroke-width="0" fill="#cccccc"></rect><rect x="1001" y="147" width="1" height="474" stroke="none" stroke-width="0" fill="#cccccc"></rect><rect x="1152" y="147" width="1" height="474" stroke="none" stroke-width="0" fill="#cccccc"></rect><rect x="322" y="147" width="1" height="474" stroke="none" stroke-width="0" fill="#ebebeb"></rect><rect x="473" y="147" width="1" height="474" stroke="none" stroke-width="0" fill="#ebebeb"></rect><rect x="624" y="147" width="1" height="474" stroke="none" stroke-width="0" fill="#ebebeb"></rect><rect x="775" y="147" width="1" height="474" stroke="none" stroke-width="0" fill="#ebebeb"></rect><rect x="926" y="147" width="1" height="474" stroke="none" stroke-width="0" fill="#ebebeb"></rect><rect x="1077" y="147" width="1" height="474" stroke="none" stroke-width="0" fill="#ebebeb"></rect><rect x="247" y="620" width="906" height="1" stroke="none" stroke-width="0" fill="#cccccc"></rect><rect x="247" y="552" width="906" height="1" stroke="none" stroke-width="0" fill="#cccccc"></rect><rect x="247" y="485" width="906" height="1" stroke="none" stroke-width="0" fill="#cccccc"></rect><rect x="247" y="417" width="906" height="1" stroke="none" stroke-width="0" fill="#cccccc"></rect><rect x="247" y="350" width="906" height="1" stroke="none" stroke-width="0" fill="#cccccc"></rect><rect x="247" y="282" width="906" height="1" stroke="none" stroke-width="0" fill="#cccccc"></rect><rect x="247" y="215" width="906" height="1" stroke="none" stroke-width="0" fill="#cccccc"></rect><rect x="247" y="147" width="906" height="1" stroke="none" stroke-width="0" fill="#cccccc"></rect><rect x="247" y="586" width="906" height="1" stroke="none" stroke-width="0" fill="#ebebeb"></rect><rect x="247" y="519" width="906" height="1" stroke="none" stroke-width="0" fill="#ebebeb"></rect><rect x="247" y="451" width="906" height="1" stroke="none" stroke-width="0" fill="#ebebeb"></rect><rect x="247" y="384" width="906" height="1" stroke="none" stroke-width="0" fill="#ebebeb"></rect><rect x="247" y="316" width="906" height="1" stroke="none" stroke-width="0" fill="#ebebeb"></rect><rect x="247" y="248" width="906" height="1" stroke="none" stroke-width="0" fill="#ebebeb"></rect><rect x="247" y="181" width="906" height="1" stroke="none" stroke-width="0" fill="#ebebeb"></rect></g><g><path d="M247.5,767.3143648215578L398.33333333331393,670.9685305085407L549.1666666666861,264.00025690809616L700,254.33022368904585L850.8333333333139,281.9451725440654L1001.6666666666861,267.74534569877983L1152.5,276.8886408894232" stroke="#2e7d32" stroke-width="3" fill-opacity="1" fill="none"></path><path d="M247.5,639.7180720564454L256.37254895747174,634.9706379687823L265.24509806587594,630.223203880984L274.1176470233477,625.4757697931857L282.99019613163546,620.7283357053875L291.8627450891654,615.9809016175891L300.73529404669534,611.2334675297909L309.60784315498313,606.4860334421277L318.4803921125131,601.7385993543295L327.35294122085907,596.9911652665311L336.2254901783308,592.2437311787329L345.0980392866768,587.4962970909346L353.97058824420674,582.7488630031363L362.8431372016785,578.0014289154731L371.71568630996626,573.2539948276749L380.5882352674962,568.5065607398766L389.4607843758422,563.7591266520783L398.33333333331393,559.01169256428L407.2058822908439,554.2642584764817L416.07843139918987,549.5168243888186L424.9509803566616,544.7693903010203L433.8235294650076,540.021956213222L442.69607842247933,535.2745221254237L451.5686273800093,530.5270880376254L460.44117648835527,525.7796539498271L469.313725445827,521.0322198621641L478.186274554173,516.2847857743657L487.05882351164473,511.5373516865675L495.9313726199907,506.7899175987691L504.80392157752067,502.0424835109709L513.6764705349924,497.2950494231726L522.5490196433384,492.5476153355095L531.4215686008101,487.80018124771107L540.2941177091561,483.0527471599129L549.1666666666861,478.3053130721146L558.0392156241578,473.5578789843163L566.9117647325038,468.81044489665305L575.7843136899755,464.06301080885487L584.6568627983215,459.3155767210566L593.5294117557933,454.5681426332583L602.4019607133232,449.82070854546L611.2745098216692,445.0732744576617L620.1470587791409,440.3258403698634L629.0196078874869,435.57840628220026L637.8921568450169,430.83097219440197L646.7647059533047,426.08353810660367L655.6372549108346,421.3361040188054L664.5098038683645,416.5886699310071L673.3823529766523,411.8412358432088L682.2549019341241,407.09380175554566L691.1274510425283,402.3463676677475L700,397.59893357994906L708.8725489574717,392.8514994921509L717.7450980658759,388.1040654043526L726.6176470233477,383.3566313165543L735.4901961316355,378.60919722889105L744.3627450891654,373.86176314109287L753.2352940466953,369.11432905329457L762.1078431549831,364.3668949654963L770.9803921125131,359.619460877698L779.8529412208591,354.8720267898997L788.7254901783308,350.12459270223655L797.5980392866768,345.37715861443826L806.4705882442067,340.62972452663996L815.3431372016785,335.88229043884166L824.2156863099663,331.13485635104337L833.0882352674962,326.3874222632452L841.9607843758422,321.63998817558195L850.8333333333139,316.89255408778365L859.7058822908439,312.14511999998535L868.5784313991899,307.39768591218717L877.4509803566616,302.65025182438876L886.3235294650076,297.9028177365906L895.1960784224793,293.15538364892745L904.0686273800093,288.40794956112916L912.9411764883553,283.66051547333086L921.813725445827,278.91308138553256L930.686274554173,274.16564729773427L939.5588235116447,269.4182132099361L948.4313726199907,264.67077912227273L957.3039215775207,259.92334503447455L966.1764705349924,255.17591094667614L975.0490196433384,250.42847685887796L983.9215686008101,245.68104277107955L992.7941177091561,240.93360868328136L1001.6666666666861,236.18617459561824L1010.5392156241578,231.43874050782006L1019.4117647325038,226.69130642002165L1028.2843136899755,221.94387233222346L1037.1568627983215,217.19643824442528L1046.0294117557933,212.44900415662687L1054.9019607133232,207.70157006896352L1063.7745098216692,202.95413598116534L1072.647058779141,198.20670189336715L1081.519607887487,193.45926780556874L1090.3921568450169,188.71183371777056L1099.2647059533047,183.96439962997215L1108.1372549108346,179.21696554230925L1117.0098038683645,174.46953145451084L1125.8823529766523,169.72209736671266L1134.754901934124,164.97466327891425L1143.6274510425283,160.22722919111607L1152.5,155.47979510331766" stroke="#ff5722" stroke-width="2" stroke-opacity="0.5" fill-opacity="1" fill="none"></path></g></g><g><circle cx="549.1666666666861" cy="264.00025690809616" r="4" stroke="none" stroke-width="0" fill="#2e7d32"></circle><circle cx="700" cy="254.33022368904585" r="4" stroke="none" stroke-width="0" fill="#2e7d32"></circle><circle cx="850.8333333333139" cy="281.9451725440654" r="4" stroke="none" stroke-width="0" fill="#2e7d32"></circle><circle cx="1001.6666666666861" cy="267.74534569877983" r="4" stroke="none" stroke-width="0" fill="#2e7d32"></circle><circle cx="1152.5" cy="276.8886408894232" r="4" stroke="none" stroke-width="0" fill="#2e7d32"></circle><circle cx="282.99019613163546" cy="620.7283357053875" r="4" stroke="none" stroke-width="0" fill-opacity="0.5" fill="#ff5722"></circle><circle cx="291.8627450891654" cy="615.9809016175891" r="4" stroke="none" stroke-width="0" fill-opacity="0.5" fill="#ff5722"></circle><circle cx="300.73529404669534" cy="611.2334675297909" r="4" stroke="none" stroke-width="0" fill-opacity="0.5" fill="#ff5722"></circle><circle cx="309.60784315498313" cy="606.4860334421277" r="4" stroke="none" stroke-width="0" fill-opacity="0.5" fill="#ff5722"></circle><circle cx="318.4803921125131" cy="601.7385993543295" r="4" stroke="none" stroke-width="0" fill-opacity="0.5" fill="#ff5722"></circle><circle cx="327.35294122085907" cy="596.9911652665311" r="4" stroke="none" stroke-width="0" fill-opacity="0.5" fill="#ff5722"></circle><circle cx="336.2254901783308" cy="592.2437311787329" r="4" stroke="none" stroke-width="0" fill-opacity="0.5" fill="#ff5722"></circle><circle cx="345.0980392866768" cy="587.4962970909346" r="4" stroke="none" stroke-width="0" fill-opacity="0.5" fill="#ff5722"></circle><circle cx="353.97058824420674" cy="582.7488630031363" r="4" stroke="none" stroke-width="0" fill-opacity="0.5" fill="#ff5722"></circle><circle cx="362.8431372016785" cy="578.0014289154731" r="4" stroke="none" stroke-width="0" fill-opacity="0.5" fill="#ff5722"></circle><circle cx="371.71568630996626" cy="573.2539948276749" r="4" stroke="none" stroke-width="0" fill-opacity="0.5" fill="#ff5722"></circle><circle cx="380.5882352674962" cy="568.5065607398766" r="4" stroke="none" stroke-width="0" fill-opacity="0.5" fill="#ff5722"></circle><circle cx="389.4607843758422" cy="563.7591266520783" r="4" stroke="none" stroke-width="0" fill-opacity="0.5" fill="#ff5722"></circle><circle cx="398.33333333331393" cy="559.01169256428" r="4" stroke="none" stroke-width="0" fill-opacity="0.5" fill="#ff5722"></circle><circle cx="407.2058822908439" cy="554.2642584764817" r="4" stroke="none" stroke-width="0" fill-opacity="0.5" fill="#ff5722"></circle><circle cx="416.07843139918987" cy="549.5168243888186" r="4" stroke="none" stroke-width="0" fill-opacity="0.5" fill="#ff5722"></circle><circle cx="424.9509803566616" cy="544.7693903010203" r="4" stroke="none" stroke-width="0" fill-opacity="0.5" fill="#ff5722"></circle><circle cx="433.8235294650076" cy="540.021956213222" r="4" stroke="none" stroke-width="0" fill-opacity="0.5" fill="#ff5722"></circle><circle cx="442.69607842247933" cy="535.2745221254237" r="4" stroke="none" stroke-width="0" fill-opacity="0.5" fill="#ff5722"></circle><circle cx="451.5686273800093" cy="530.5270880376254" r="4" stroke="none" stroke-width="0" fill-opacity="0.5" fill="#ff5722"></circle><circle cx="460.44117648835527" cy="525.7796539498271" r="4" stroke="none" stroke-width="0" fill-opacity="0.5" fill="#ff5722"></circle><circle cx="469.313725445827" cy="521.0322198621641" r="4" stroke="none" stroke-width="0" fill-opacity="0.5" fill="#ff5722"></circle><circle cx="478.186274554173" cy="516.2847857743657" r="4" stroke="none" stroke-width="0" fill-opacity="0.5" fill="#ff5722"></circle><circle cx="487.05882351164473" cy="511.5373516865675" r="4" stroke="none" stroke-width="0" fill-opacity="0.5" fill="#ff5722"></circle><circle cx="495.9313726199907" cy="506.7899175987691" r="4" stroke="none" stroke-width="0" fill-opacity="0.5" fill="#ff5722"></circle><circle cx="504.80392157752067" cy="502.0424835109709" r="4" stroke="none" stroke-width="0" fill-opacity="0.5" fill="#ff5722"></circle><circle cx="513.6764705349924" cy="497.2950494231726" r="4" stroke="none" stroke-width="0" fill-opacity="0.5" fill="#ff5722"></circle><circle cx="522.5490196433384" cy="492.5476153355095" r="4" stroke="none" stroke-width="0" fill-opacity="0.5" fill="#ff5722"></circle><circle cx="531.4215686008101" cy="487.80018124771107" r="4" stroke="none" stroke-width="0" fill-opacity="0.5" fill="#ff5722"></circle><circle cx="540.2941177091561" cy="483.0527471599129" r="4" stroke="none" stroke-width="0" fill-opacity="0.5" fill="#ff5722"></circle><circle cx="549.1666666666861" cy="478.3053130721146" r="4" stroke="none" stroke-width="0" fill-opacity="0.5" fill="#ff5722"></circle><circle cx="558.0392156241578" cy="473.5578789843163" r="4" stroke="none" stroke-width="0" fill-opacity="0.5" fill="#ff5722"></circle><circle cx="566.9117647325038" cy="468.81044489665305" r="4" stroke="none" stroke-width="0" fill-opacity="0.5" fill="#ff5722"></circle><circle cx="575.7843136899755" cy="464.06301080885487" r="4" stroke="none" stroke-width="0" fill-opacity="0.5" fill="#ff5722"></circle><circle cx="584.6568627983215" cy="459.3155767210566" r="4" stroke="none" stroke-width="0" fill-opacity="0.5" fill="#ff5722"></circle><circle cx="593.5294117557933" cy="454.5681426332583" r="4" stroke="none" stroke-width="0" fill-opacity="0.5" fill="#ff5722"></circle><circle cx="602.4019607133232" cy="449.82070854546" r="4" stroke="none" stroke-width="0" fill-opacity="0.5" fill="#ff5722"></circle><circle cx="611.2745098216692" cy="445.0732744576617" r="4" stroke="none" stroke-width="0" fill-opacity="0.5" fill="#ff5722"></circle><circle cx="620.1470587791409" cy="440.3258403698634" r="4" stroke="none" stroke-width="0" fill-opacity="0.5" fill="#ff5722"></circle><circle cx="629.0196078874869" cy="435.57840628220026" r="4" stroke="none" stroke-width="0" fill-opacity="0.5" fill="#ff5722"></circle><circle cx="637.8921568450169" cy="430.83097219440197" r="4" stroke="none" stroke-width="0" fill-opacity="0.5" fill="#ff5722"></circle><circle cx="646.7647059533047" cy="426.08353810660367" r="4" stroke="none" stroke-width="0" fill-opacity="0.5" fill="#ff5722"></circle><circle cx="655.6372549108346" cy="421.3361040188054" r="4" stroke="none" stroke-width="0" fill-opacity="0.5" fill="#ff5722"></circle><circle cx="664.5098038683645" cy="416.5886699310071" r="4" stroke="none" stroke-width="0" fill-opacity="0.5" fill="#ff5722"></circle><circle cx="673.3823529766523" cy="411.8412358432088" r="4" stroke="none" stroke-width="0" fill-opacity="0.5" fill="#ff5722"></circle><circle cx="682.2549019341241" cy="407.09380175554566" r="4" stroke="none" stroke-width="0" fill-opacity="0.5" fill="#ff5722"></circle><circle cx="691.1274510425283" cy="402.3463676677475" r="4" stroke="none" stroke-width="0" fill-opacity="0.5" fill="#ff5722"></circle><circle cx="700" cy="397.59893357994906" r="4" stroke="none" stroke-width="0" fill-opacity="0.5" fill="#ff5722"></circle><circle cx="708.8725489574717" cy="392.8514994921509" r="4" stroke="none" stroke-width="0" fill-opacity="0.5" fill="#ff5722"></circle><circle cx="717.7450980658759" cy="388.1040654043526" r="4" stroke="none" stroke-width="0" fill-opacity="0.5" fill="#ff5722"></circle><circle cx="726.6176470233477" cy="383.3566313165543" r="4" stroke="none" stroke-width="0" fill-opacity="0.5" fill="#ff5722"></circle><circle cx="735.4901961316355" cy="378.60919722889105" r="4" stroke="none" stroke-width="0" fill-opacity="0.5" fill="#ff5722"></circle><circle cx="744.3627450891654" cy="373.86176314109287" r="4" stroke="none" stroke-width="0" fill-opacity="0.5" fill="#ff5722"></circle><circle cx="753.2352940466953" cy="369.11432905329457" r="4" stroke="none" stroke-width="0" fill-opacity="0.5" fill="#ff5722"></circle><circle cx="762.1078431549831" cy="364.3668949654963" r="4" stroke="none" stroke-width="0" fill-opacity="0.5" fill="#ff5722"></circle><circle cx="770.9803921125131" cy="359.619460877698" r="4" stroke="none" stroke-width="0" fill-opacity="0.5" fill="#ff5722"></circle><circle cx="779.8529412208591" cy="354.8720267898997" r="4" stroke="none" stroke-width="0" fill-opacity="0.5" fill="#ff5722"></circle><circle cx="788.7254901783308" cy="350.12459270223655" r="4" stroke="none" stroke-width="0" fill-opacity="0.5" fill="#ff5722"></circle><circle cx="797.5980392866768" cy="345.37715861443826" r="4" stroke="none" stroke-width="0" fill-opacity="0.5" fill="#ff5722"></circle><circle cx="806.4705882442067" cy="340.62972452663996" r="4" stroke="none" stroke-width="0" fill-opacity="0.5" fill="#ff5722"></circle><circle cx="815.3431372016785" cy="335.88229043884166" r="4" stroke="none" stroke-width="0" fill-opacity="0.5" fill="#ff5722"></circle><circle cx="824.2156863099663" cy="331.13485635104337" r="4" stroke="none" stroke-width="0" fill-opacity="0.5" fill="#ff5722"></circle><circle cx="833.0882352674962" cy="326.3874222632452" r="4" stroke="none" stroke-width="0" fill-opacity="0.5" fill="#ff5722"></circle><circle cx="841.9607843758422" cy="321.63998817558195" r="4" stroke="none" stroke-width="0" fill-opacity="0.5" fill="#ff5722"></circle><circle cx="850.8333333333139" cy="316.89255408778365" r="4" stroke="none" stroke-width="0" fill-opacity="0.5" fill="#ff5722"></circle><circle cx="859.7058822908439" cy="312.14511999998535" r="4" stroke="none" stroke-width="0" fill-opacity="0.5" fill="#ff5722"></circle><circle cx="868.5784313991899" cy="307.39768591218717" r="4" stroke="none" stroke-width="0" fill-opacity="0.5" fill="#ff5722"></circle><circle cx="877.4509803566616" cy="302.65025182438876" r="4" stroke="none" stroke-width="0" fill-opacity="0.5" fill="#ff5722"></circle><circle cx="886.3235294650076" cy="297.9028177365906" r="4" stroke="none" stroke-width="0" fill-opacity="0.5" fill="#ff5722"></circle><circle cx="895.1960784224793" cy="293.15538364892745" r="4" stroke="none" stroke-width="0" fill-opacity="0.5" fill="#ff5722"></circle><circle cx="904.0686273800093" cy="288.40794956112916" r="4" stroke="none" stroke-width="0" fill-opacity="0.5" fill="#ff5722"></circle><circle cx="912.9411764883553" cy="283.66051547333086" r="4" stroke="none" stroke-width="0" fill-opacity="0.5" fill="#ff5722"></circle><circle cx="921.813725445827" cy="278.91308138553256" r="4" stroke="none" stroke-width="0" fill-opacity="0.5" fill="#ff5722"></circle><circle cx="930.686274554173" cy="274.16564729773427" r="4" stroke="none" stroke-width="0" fill-opacity="0.5" fill="#ff5722"></circle><circle cx="939.5588235116447" cy="269.4182132099361" r="4" stroke="none" stroke-width="0" fill-opacity="0.5" fill="#ff5722"></circle><circle cx="948.4313726199907" cy="264.67077912227273" r="4" stroke="none" stroke-width="0" fill-opacity="0.5" fill="#ff5722"></circle><circle cx="957.3039215775207" cy="259.92334503447455" r="4" stroke="none" stroke-width="0" fill-opacity="0.5" fill="#ff5722"></circle><circle cx="966.1764705349924" cy="255.17591094667614" r="4" stroke="none" stroke-width="0" fill-opacity="0.5" fill="#ff5722"></circle><circle cx="975.0490196433384" cy="250.42847685887796" r="4" stroke="none" stroke-width="0" fill-opacity="0.5" fill="#ff5722"></circle><circle cx="983.9215686008101" cy="245.68104277107955" r="4" stroke="none" stroke-width="0" fill-opacity="0.5" fill="#ff5722"></circle><circle cx="992.7941177091561" cy="240.93360868328136" r="4" stroke="none" stroke-width="0" fill-opacity="0.5" fill="#ff5722"></circle><circle cx="1001.6666666666861" cy="236.18617459561824" r="4" stroke="none" stroke-width="0" fill-opacity="0.5" fill="#ff5722"></circle><circle cx="1010.5392156241578" cy="231.43874050782006" r="4" stroke="none" stroke-width="0" fill-opacity="0.5" fill="#ff5722"></circle><circle cx="1019.4117647325038" cy="226.69130642002165" r="4" stroke="none" stroke-width="0" fill-opacity="0.5" fill="#ff5722"></circle><circle cx="1028.2843136899755" cy="221.94387233222346" r="4" stroke="none" stroke-width="0" fill-opacity="0.5" fill="#ff5722"></circle><circle cx="1037.1568627983215" cy="217.19643824442528" r="4" stroke="none" stroke-width="0" fill-opacity="0.5" fill="#ff5722"></circle><circle cx="1046.0294117557933" cy="212.44900415662687" r="4" stroke="none" stroke-width="0" fill-opacity="0.5" fill="#ff5722"></circle><circle cx="1054.9019607133232" cy="207.70157006896352" r="4" stroke="none" stroke-width="0" fill-opacity="0.5" fill="#ff5722"></circle><circle cx="1063.7745098216692" cy="202.95413598116534" r="4" stroke="none" stroke-width="0" fill-opacity="0.5" fill="#ff5722"></circle><circle cx="1072.647058779141" cy="198.20670189336715" r="4" stroke="none" stroke-width="0" fill-opacity="0.5" fill="#ff5722"></circle><circle cx="1081.519607887487" cy="193.45926780556874" r="4" stroke="none" stroke-width="0" fill-opacity="0.5" fill="#ff5722"></circle><circle cx="1090.3921568450169" cy="188.71183371777056" r="4" stroke="none" stroke-width="0" fill-opacity="0.5" fill="#ff5722"></circle><circle cx="1099.2647059533047" cy="183.96439962997215" r="4" stroke="none" stroke-width="0" fill-opacity="0.5" fill="#ff5722"></circle><circle cx="1108.1372549108346" cy="179.21696554230925" r="4" stroke="none" stroke-width="0" fill-opacity="0.5" fill="#ff5722"></circle><circle cx="1117.0098038683645" cy="174.46953145451084" r="4" stroke="none" stroke-width="0" fill-opacity="0.5" fill="#ff5722"></circle><circle cx="1125.8823529766523" cy="169.72209736671266" r="4" stroke="none" stroke-width="0" fill-opacity="0.5" fill="#ff5722"></circle><circle cx="1134.754901934124" cy="164.97466327891425" r="4" stroke="none" stroke-width="0" fill-opacity="0.5" fill="#ff5722"></circle><circle cx="1143.6274510425283" cy="160.22722919111607" r="4" stroke="none" stroke-width="0" fill-opacity="0.5" fill="#ff5722"></circle><circle cx="1152.5" cy="155.47979510331766" r="4" stroke="none" stroke-width="0" fill-opacity="0.5" fill="#ff5722"></circle></g><g><g><text text-anchor="middle" x="247.5" y="644.6" font-family="Arial" font-size="16" stroke="none" stroke-width="0" fill="#444444">2018</text></g><g><text text-anchor="middle" x="398.3333" y="644.6" font-family="Arial" font-size="16" stroke="none" stroke-width="0" fill="#444444">2019</text></g><g><text text-anchor="middle" x="549.1667" y="644.6" font-family="Arial" font-size="16" stroke="none" stroke-width="0" fill="#444444">2020</text></g><g><text text-anchor="middle" x="700" y="644.6" font-family="Arial" font-size="16" stroke="none" stroke-width="0" fill="#444444">2021</text></g><g><text text-anchor="middle" x="850.8333" y="644.6" font-family="Arial" font-size="16" stroke="none" stroke-width="0" fill="#444444">2022</text></g><g><text text-anchor="middle" x="1001.6667" y="644.6" font-family="Arial" font-size="16" stroke="none" stroke-width="0" fill="#444444">2023</text></g><g><text text-anchor="middle" x="1152.5" y="644.6" font-family="Arial" font-size="16" stroke="none" stroke-width="0" fill="#444444">2024</text></g><g><text text-anchor="end" x="231" y="626.1" font-family="Arial" font-size="16" stroke="none" stroke-width="0" fill="#444444">0.50</text></g><g><text text-anchor="end" x="231" y="558.5286" font-family="Arial" font-size="16" stroke="none" stroke-width="0" fill="#444444">0.55</text></g><g><text text-anchor="end" x="231" y="490.9571" font-family="Arial" font-size="16" stroke="none" stroke-width="0" fill="#444444">0.60</text></g><g><text text-anchor="end" x="231" y="423.38570000000004" font-family="Arial" font-size="16" stroke="none" stroke-width="0" fill="#444444">0.65</text></g><g><text text-anchor="end" x="231" y="355.8143" font-family="Arial" font-size="16" stroke="none" stroke-width="0" fill="#444444">0.70</text></g><g><text text-anchor="end" x="231" y="288.2429" font-family="Arial" font-size="16" stroke="none" stroke-width="0" fill="#444444">0.75</text></g><g><text text-anchor="end" x="231" y="220.6714" font-family="Arial" font-size="16" stroke="none" stroke-width="0" fill="#444444">0.80</text></g><g><text text-anchor="end" x="231" y="153.1" font-family="Arial" font-size="16" stroke="none" stroke-width="0" fill="#444444">0.85</text></g></g></g><g><g><text text-anchor="middle" x="700" y="712.6" font-family="Arial" font-size="16" font-style="italic" stroke="none" stroke-width="0" fill="#222222">Año</text><rect x="247" y="699" width="906" height="16" stroke="none" stroke-width="0" fill-opacity="0" fill="#ffffff"></rect></g><g><text text-anchor="middle" x="105.6" y="384" font-family="Arial" font-size="16" font-style="italic" transform="rotate(-90 105.6 384)" stroke="none" stroke-width="0" fill="#222222">NDVI Promedio</text><path d="M91.99999999999999,621L92.00000000000001,147L108.00000000000001,147L107.99999999999999,621Z" stroke="none" stroke-width="0" fill-opacity="0" fill="#ffffff"></path></g></g><g></g></svg>