<svg width="1400" height="767" aria-label="A chart." style="overflow: hidden;"><defs id="_ABSTRACT_RENDERER_ID_7"><clipPath id="_ABSTRACT_RENDERER_ID_8"><rect x="247" y="147" width="906" height="474"></rect></clipPath></defs><rect x="0" y="0" width="1400" height="767" stroke="none" stroke-width="0" fill="#ffffff"></rect><g><text text-anchor="start" x="247" y="118.6" font-family="Arial" font-size="16" font-weight="bold" stroke="none" stroke-width="0" fill="#000000">Tendencia NDVI - Predio Chonchi (2018-2024)</text><rect x="247" y="105" width="906" height="16" stroke="none" stroke-width="0" fill-opacity="0" fill="#ffffff"></rect></g><g><rect x="1169" y="147" width="215" height="16" stroke="none" stroke-width="0" fill-opacity="0" fill="#ffffff"></rect><g column-id="ndvi_mean"><rect x="1169" y="147" width="215" height="16" stroke="none" stroke-width="0" fill-opacity="0" fill="#ffffff"></rect><g><text text-anchor="start" x="1207" y="160.6" font-family="Arial" font-size="16" stroke="none" stroke-width="0" fill="#222222">ndvi_mean</text></g><path d="M1169,155L1201,155" stroke="#2e7d32" stroke-width="3" fill-opacity="1" fill="none"></path><circle cx="1185" cy="155" r="4" stroke="none" stroke-width="0" fill="#2e7d32"></circle></g></g><g><rect x="247" y="147" width="906" height="474" stroke="none" stroke-width="0" fill-opacity="0" fill="#ffffff"></rect><g clip-path="url(https://code.earthengine.google.com/#_ABSTRACT_RENDERER_ID_8)"><g><rect x="247" y="147" width="1" height="474" stroke="none" stroke-width="0" fill="#cccccc"></rect><rect x="398" y="147" width="1" height="474" stroke="none" stroke-width="0" fill="#cccccc"></rect><rect x="549" y="147" width="1" height="474" stroke="none" stroke-width="0" fill="#cccccc"></rect><rect x="700" y="147" width="1" height="474" stroke="none" stroke-width="0" fill="#cccccc"></rect><rect x="850" y="147" width="1" height="474" stroke="none" stroke-width="0" fill="#cccccc"></rect><rect x="1001" y="147" width="1" height="474" stroke="none" stroke-width="0" fill="#cccccc"></rect><rect x="1152" y="147" width="1" height="474" stroke="none" stroke-width="0" fill="#cccccc"></rect><rect x="322" y="147" width="1" height="474" stroke="none" stroke-width="0" fill="#ebebeb"></rect><rect x="473" y="147" width="1" height="474" stroke="none" stroke-width="0" fill="#ebebeb"></rect><rect x="624" y="147" width="1" height="474" stroke="none" stroke-width="0" fill="#ebebeb"></rect><rect x="775" y="147" width="1" height="474" stroke="none" stroke-width="0" fill="#ebebeb"></rect><rect x="926" y="147" width="1" height="474" stroke="none" stroke-width="0" fill="#ebebeb"></rect><rect x="1077" y="147" width="1" height="474" stroke="none" stroke-width="0" fill="#ebebeb"></rect><rect x="247" y="620" width="906" height="1" stroke="none" stroke-width="0" fill="#cccccc"></rect><rect x="247" y="552" width="906" height="1" stroke="none" stroke-width="0" fill="#cccccc"></rect><rect x="247" y="485" width="906" height="1" stroke="none" stroke-width="0" fill="#cccccc"></rect><rect x="247" y="417" width="906" height="1" stroke="none" stroke-width="0" fill="#cccccc"></rect><rect x="247" y="350" width="906" height="1" stroke="none" stroke-width="0" fill="#cccccc"></rect><rect x="247" y="282" width="906" height="1" stroke="none" stroke-width="0" fill="#cccccc"></rect><rect x="247" y="215" width="906" height="1" stroke="none" stroke-width="0" fill="#cccccc"></rect><rect x="247" y="147" width="906" height="1" stroke="none" stroke-width="0" fill="#cccccc"></rect><rect x="247" y="586" width="906" height="1" stroke="none" stroke-width="0" fill="#ebebeb"></rect><rect x="247" y="519" width="906" height="1" stroke="none" stroke-width="0" fill="#ebebeb"></rect><rect x="247" y="451" width="906" height="1" stroke="none" stroke-width="0" fill="#ebebeb"></rect><rect x="247" y="384" width="906" height="1" stroke="none" stroke-width="0" fill="#ebebeb"></rect><rect x="247" y="316" width="906" height="1" stroke="none" stroke-width="0" fill="#ebebeb"></rect><rect x="247" y="248" width="906" height="1" stroke="none" stroke-width="0" fill="#ebebeb"></rect><rect x="247" y="181" width="906" height="1" stroke="none" stroke-width="0" fill="#ebebeb"></rect></g><g><path d="M247.5,771.092414453448L398.33333333331393,668.6917530730555L549.1666666666861,272.6579413178945L700,262.77775450413196L850.8333333333139,290.4851885499337L1001.6666666666861,276.70938678421396L1152.5,284.21557652415765" stroke="#2e7d32" stroke-width="3" fill-opacity="1" fill="none"></path><path d="M247.5,642.3865735082594L256.37254895747174,637.7084894764733L265.24509806587594,633.0304054446874L274.1176470233477,628.3523214129015L282.99019613163546,623.6742373811154L291.8627450891654,618.9961533493293L300.73529404669534,614.3180693175435L309.60784315498313,609.6399852857575L318.4803921125131,604.9619012539714L327.35294122085907,600.2838172221855L336.2254901783308,595.6057331903994L345.0980392866768,590.9276491584784L353.97058824420674,586.2495651266923L362.8431372016785,581.5714810949063L371.71568630996626,576.8933970631202L380.5882352674962,572.2153130313343L389.4607843758422,567.5372289995482L398.33333333331393,562.8591449677623L407.2058822908439,558.1810609359763L416.07843139918987,553.5029769041903L424.9509803566616,548.8248928724042L433.8235294650076,544.1468088406184L442.69607842247933,539.4687248088323L451.5686273800093,534.7906407770463L460.44117648835527,530.1125567452602L469.313725445827,525.4344727133391L478.186274554173,520.7563886815531L487.05882351164473,516.0783046497672L495.9313726199907,511.4002206179812L504.80392157752067,506.7221365861951L513.6764705349924,502.04405255440906L522.5490196433384,497.3659685226231L531.4215686008101,492.68788449083706L540.2941177091561,488.0098004590511L549.1666666666861,483.3317164272652L558.0392156241578,478.6536323954791L566.9117647325038,473.97554836369306L575.7843136899755,469.29746433190724L584.6568627983215,464.6193803001212L593.5294117557933,459.9412962683351L602.4019607133232,455.26321223654907L611.2745098216692,450.58512820462795L620.1470587791409,445.9070441728419L629.0196078874869,441.22896014105606L637.8921568450169,436.55087610927L646.7647059533047,431.87279207748395L655.6372549108346,427.194708045698L664.5098038683645,422.51662401391195L673.3823529766523,417.838539982126L682.2549019341241,413.16045595033995L691.1274510425283,408.482371918554L700,403.80428788676795L708.8725489574717,399.1262038549819L717.7450980658759,394.44811982319607L726.6176470233477,389.77003579127484L735.4901961316355,385.0919517594889L744.3627450891654,380.41386772770284L753.2352940466953,375.7357836959168L762.1078431549831,371.0576996641307L770.9803921125131,366.3796156323449L779.8529412208591,361.70153160055884L788.7254901783308,357.0234475687728L797.5980392866768,352.34536353698684L806.4705882442067,347.6672795052008L815.3431372016785,342.98919547341484L824.2156863099663,338.3111114416289L833.0882352674962,333.63302740984284L841.9607843758422,328.9549433780568L850.8333333333139,324.2768593462707L859.7058822908439,319.5987753143497L868.5784313991899,314.92069128256367L877.4509803566616,310.2426072507777L886.3235294650076,305.56452321899167L895.1960784224793,300.8864391872056L904.0686273800093,296.2083551554198L912.9411764883553,291.5302711236337L921.813725445827,286.85218709184767L930.686274554173,282.1741030600616L939.5588235116447,277.49601902827567L948.4313726199907,272.8179349964897L957.3039215775207,268.13985096470356L966.1764705349924,263.4617669329177L975.0490196433384,258.78368290113167L983.9215686008101,254.10559886921055L992.7941177091561,249.4275148374245L1001.6666666666861,244.74943080563844L1010.5392156241578,240.07134677385238L1019.4117647325038,235.39326274206655L1028.2843136899755,230.7151787102805L1037.1568627983215,226.03709467849444L1046.0294117557933,221.3590106467086L1054.9019607133232,216.68092661492256L1063.7745098216692,212.0028425831365L1072.647058779141,207.32475855135067L1081.519607887487,202.6466745195646L1090.3921568450169,197.96859048777856L1099.2647059533047,193.2905064559925L1108.1372549108346,188.61242242420667L1117.0098038683645,183.93433839228533L1125.8823529766523,179.2562543604995L1134.754901934124,174.57817032871344L1143.6274510425283,169.90008629692738L1152.5,165.22200226514155" stroke="#ff5722" stroke-width="2" stroke-opacity="0.5" fill-opacity="1" fill="none"></path></g></g><g><circle cx="549.1666666666861" cy="272.6579413178945" r="4" stroke="none" stroke-width="0" fill="#2e7d32"></circle><circle cx="700" cy="262.77775450413196" r="4" stroke="none" stroke-width="0" fill="#2e7d32"></circle><circle cx="850.8333333333139" cy="290.4851885499337" r="4" stroke="none" stroke-width="0" fill="#2e7d32"></circle><circle cx="1001.6666666666861" cy="276.70938678421396" r="4" stroke="none" stroke-width="0" fill="#2e7d32"></circle><circle cx="1152.5" cy="284.21557652415765" r="4" stroke="none" stroke-width="0" fill="#2e7d32"></circle><circle cx="282.99019613163546" cy="623.6742373811154" r="4" stroke="none" stroke-width="0" fill-opacity="0.5" fill="#ff5722"></circle><circle cx="291.8627450891654" cy="618.9961533493293" r="4" stroke="none" stroke-width="0" fill-opacity="0.5" fill="#ff5722"></circle><circle cx="300.73529404669534" cy="614.3180693175435" r="4" stroke="none" stroke-width="0" fill-opacity="0.5" fill="#ff5722"></circle><circle cx="309.60784315498313" cy="609.6399852857575" r="4" stroke="none" stroke-width="0" fill-opacity="0.5" fill="#ff5722"></circle><circle cx="318.4803921125131" cy="604.9619012539714" r="4" stroke="none" stroke-width="0" fill-opacity="0.5" fill="#ff5722"></circle><circle cx="327.35294122085907" cy="600.2838172221855" r="4" stroke="none" stroke-width="0" fill-opacity="0.5" fill="#ff5722"></circle><circle cx="336.2254901783308" cy="595.6057331903994" r="4" stroke="none" stroke-width="0" fill-opacity="0.5" fill="#ff5722"></circle><circle cx="345.0980392866768" cy="590.9276491584784" r="4" stroke="none" stroke-width="0" fill-opacity="0.5" fill="#ff5722"></circle><circle cx="353.97058824420674" cy="586.2495651266923" r="4" stroke="none" stroke-width="0" fill-opacity="0.5" fill="#ff5722"></circle><circle cx="362.8431372016785" cy="581.5714810949063" r="4" stroke="none" stroke-width="0" fill-opacity="0.5" fill="#ff5722"></circle><circle cx="371.71568630996626" cy="576.8933970631202" r="4" stroke="none" stroke-width="0" fill-opacity="0.5" fill="#ff5722"></circle><circle cx="380.5882352674962" cy="572.2153130313343" r="4" stroke="none" stroke-width="0" fill-opacity="0.5" fill="#ff5722"></circle><circle cx="389.4607843758422" cy="567.5372289995482" r="4" stroke="none" stroke-width="0" fill-opacity="0.5" fill="#ff5722"></circle><circle cx="398.33333333331393" cy="562.8591449677623" r="4" stroke="none" stroke-width="0" fill-opacity="0.5" fill="#ff5722"></circle><circle cx="407.2058822908439" cy="558.1810609359763" r="4" stroke="none" stroke-width="0" fill-opacity="0.5" fill="#ff5722"></circle><circle cx="416.07843139918987" cy="553.5029769041903" r="4" stroke="none" stroke-width="0" fill-opacity="0.5" fill="#ff5722"></circle><circle cx="424.9509803566616" cy="548.8248928724042" r="4" stroke="none" stroke-width="0" fill-opacity="0.5" fill="#ff5722"></circle><circle cx="433.8235294650076" cy="544.1468088406184" r="4" stroke="none" stroke-width="0" fill-opacity="0.5" fill="#ff5722"></circle><circle cx="442.69607842247933" cy="539.4687248088323" r="4" stroke="none" stroke-width="0" fill-opacity="0.5" fill="#ff5722"></circle><circle cx="451.5686273800093" cy="534.7906407770463" r="4" stroke="none" stroke-width="0" fill-opacity="0.5" fill="#ff5722"></circle><circle cx="460.44117648835527" cy="530.1125567452602" r="4" stroke="none" stroke-width="0" fill-opacity="0.5" fill="#ff5722"></circle><circle cx="469.313725445827" cy="525.4344727133391" r="4" stroke="none" stroke-width="0" fill-opacity="0.5" fill="#ff5722"></circle><circle cx="478.186274554173" cy="520.7563886815531" r="4" stroke="none" stroke-width="0" fill-opacity="0.5" fill="#ff5722"></circle><circle cx="487.05882351164473" cy="516.0783046497672" r="4" stroke="none" stroke-width="0" fill-opacity="0.5" fill="#ff5722"></circle><circle cx="495.9313726199907" cy="511.4002206179812" r="4" stroke="none" stroke-width="0" fill-opacity="0.5" fill="#ff5722"></circle><circle cx="504.80392157752067" cy="506.7221365861951" r="4" stroke="none" stroke-width="0" fill-opacity="0.5" fill="#ff5722"></circle><circle cx="513.6764705349924" cy="502.04405255440906" r="4" stroke="none" stroke-width="0" fill-opacity="0.5" fill="#ff5722"></circle><circle cx="522.5490196433384" cy="497.3659685226231" r="4" stroke="none" stroke-width="0" fill-opacity="0.5" fill="#ff5722"></circle><circle cx="531.4215686008101" cy="492.68788449083706" r="4" stroke="none" stroke-width="0" fill-opacity="0.5" fill="#ff5722"></circle><circle cx="540.2941177091561" cy="488.0098004590511" r="4" stroke="none" stroke-width="0" fill-opacity="0.5" fill="#ff5722"></circle><circle cx="549.1666666666861" cy="483.3317164272652" r="4" stroke="none" stroke-width="0" fill-opacity="0.5" fill="#ff5722"></circle><circle cx="558.0392156241578" cy="478.6536323954791" r="4" stroke="none" stroke-width="0" fill-opacity="0.5" fill="#ff5722"></circle><circle cx="566.9117647325038" cy="473.97554836369306" r="4" stroke="none" stroke-width="0" fill-opacity="0.5" fill="#ff5722"></circle><circle cx="575.7843136899755" cy="469.29746433190724" r="4" stroke="none" stroke-width="0" fill-opacity="0.5" fill="#ff5722"></circle><circle cx="584.6568627983215" cy="464.6193803001212" r="4" stroke="none" stroke-width="0" fill-opacity="0.5" fill="#ff5722"></circle><circle cx="593.5294117557933" cy="459.9412962683351" r="4" stroke="none" stroke-width="0" fill-opacity="0.5" fill="#ff5722"></circle><circle cx="602.4019607133232" cy="455.26321223654907" r="4" stroke="none" stroke-width="0" fill-opacity="0.5" fill="#ff5722"></circle><circle cx="611.2745098216692" cy="450.58512820462795" r="4" stroke="none" stroke-width="0" fill-opacity="0.5" fill="#ff5722"></circle><circle cx="620.1470587791409" cy="445.9070441728419" r="4" stroke="none" stroke-width="0" fill-opacity="0.5" fill="#ff5722"></circle><circle cx="629.0196078874869" cy="441.22896014105606" r="4" stroke="none" stroke-width="0" fill-opacity="0.5" fill="#ff5722"></circle><circle cx="637.8921568450169" cy="436.55087610927" r="4" stroke="none" stroke-width="0" fill-opacity="0.5" fill="#ff5722"></circle><circle cx="646.7647059533047" cy="431.87279207748395" r="4" stroke="none" stroke-width="0" fill-opacity="0.5" fill="#ff5722"></circle><circle cx="655.6372549108346" cy="427.194708045698" r="4" stroke="none" stroke-width="0" fill-opacity="0.5" fill="#ff5722"></circle><circle cx="664.5098038683645" cy="422.51662401391195" r="4" stroke="none" stroke-width="0" fill-opacity="0.5" fill="#ff5722"></circle><circle cx="673.3823529766523" cy="417.838539982126" r="4" stroke="none" stroke-width="0" fill-opacity="0.5" fill="#ff5722"></circle><circle cx="682.2549019341241" cy="413.16045595033995" r="4" stroke="none" stroke-width="0" fill-opacity="0.5" fill="#ff5722"></circle><circle cx="691.1274510425283" cy="408.482371918554" r="4" stroke="none" stroke-width="0" fill-opacity="0.5" fill="#ff5722"></circle><circle cx="700" cy="403.80428788676795" r="4" stroke="none" stroke-width="0" fill-opacity="0.5" fill="#ff5722"></circle><circle cx="708.8725489574717" cy="399.1262038549819" r="4" stroke="none" stroke-width="0" fill-opacity="0.5" fill="#ff5722"></circle><circle cx="717.7450980658759" cy="394.44811982319607" r="4" stroke="none" stroke-width="0" fill-opacity="0.5" fill="#ff5722"></circle><circle cx="726.6176470233477" cy="389.77003579127484" r="4" stroke="none" stroke-width="0" fill-opacity="0.5" fill="#ff5722"></circle><circle cx="735.4901961316355" cy="385.0919517594889" r="4" stroke="none" stroke-width="0" fill-opacity="0.5" fill="#ff5722"></circle><circle cx="744.3627450891654" cy="380.41386772770284" r="4" stroke="none" stroke-width="0" fill-opacity="0.5" fill="#ff5722"></circle><circle cx="753.2352940466953" cy="375.7357836959168" r="4" stroke="none" stroke-width="0" fill-opacity="0.5" fill="#ff5722"></circle><circle cx="762.1078431549831" cy="371.0576996641307" r="4" stroke="none" stroke-width="0" fill-opacity="0.5" fill="#ff5722"></circle><circle cx="770.9803921125131" cy="366.3796156323449" r="4" stroke="none" stroke-width="0" fill-opacity="0.5" fill="#ff5722"></circle><circle cx="779.8529412208591" cy="361.70153160055884" r="4" stroke="none" stroke-width="0" fill-opacity="0.5" fill="#ff5722"></circle><circle cx="788.7254901783308" cy="357.0234475687728" r="4" stroke="none" stroke-width="0" fill-opacity="0.5" fill="#ff5722"></circle><circle cx="797.5980392866768" cy="352.34536353698684" r="4" stroke="none" stroke-width="0" fill-opacity="0.5" fill="#ff5722"></circle><circle cx="806.4705882442067" cy="347.6672795052008" r="4" stroke="none" stroke-width="0" fill-opacity="0.5" fill="#ff5722"></circle><circle cx="815.3431372016785" cy="342.98919547341484" r="4" stroke="none" stroke-width="0" fill-opacity="0.5" fill="#ff5722"></circle><circle cx="824.2156863099663" cy="338.3111114416289" r="4" stroke="none" stroke-width="0" fill-opacity="0.5" fill="#ff5722"></circle><circle cx="833.0882352674962" cy="333.63302740984284" r="4" stroke="none" stroke-width="0" fill-opacity="0.5" fill="#ff5722"></circle><circle cx="841.9607843758422" cy="328.9549433780568" r="4" stroke="none" stroke-width="0" fill-opacity="0.5" fill="#ff5722"></circle><circle cx="850.8333333333139" cy="324.2768593462707" r="4" stroke="none" stroke-width="0" fill-opacity="0.5" fill="#ff5722"></circle><circle cx="859.7058822908439" cy="319.5987753143497" r="4" stroke="none" stroke-width="0" fill-opacity="0.5" fill="#ff5722"></circle><circle cx="868.5784313991899" cy="314.92069128256367" r="4" stroke="none" stroke-width="0" fill-opacity="0.5" fill="#ff5722"></circle><circle cx="877.4509803566616" cy="310.2426072507777" r="4" stroke="none" stroke-width="0" fill-opacity="0.5" fill="#ff5722"></circle><circle cx="886.3235294650076" cy="305.56452321899167" r="4" stroke="none" stroke-width="0" fill-opacity="0.5" fill="#ff5722"></circle><circle cx="895.1960784224793" cy="300.8864391872056" r="4" stroke="none" stroke-width="0" fill-opacity="0.5" fill="#ff5722"></circle><circle cx="904.0686273800093" cy="296.2083551554198" r="4" stroke="none" stroke-width="0" fill-opacity="0.5" fill="#ff5722"></circle><circle cx="912.9411764883553" cy="291.5302711236337" r="4" stroke="none" stroke-width="0" fill-opacity="0.5" fill="#ff5722"></circle><circle cx="921.813725445827" cy="286.85218709184767" r="4" stroke="none" stroke-width="0" fill-opacity="0.5" fill="#ff5722"></circle><circle cx="930.686274554173" cy="282.1741030600616" r="4" stroke="none" stroke-width="0" fill-opacity="0.5" fill="#ff5722"></circle><circle cx="939.5588235116447" cy="277.49601902827567" r="4" stroke="none" stroke-width="0" fill-opacity="0.5" fill="#ff5722"></circle><circle cx="948.4313726199907" cy="272.8179349964897" r="4" stroke="none" stroke-width="0" fill-opacity="0.5" fill="#ff5722"></circle><circle cx="957.3039215775207" cy="268.13985096470356" r="4" stroke="none" stroke-width="0" fill-opacity="0.5" fill="#ff5722"></circle><circle cx="966.1764705349924" cy="263.4617669329177" r="4" stroke="none" stroke-width="0" fill-opacity="0.5" fill="#ff5722"></circle><circle cx="975.0490196433384" cy="258.78368290113167" r="4" stroke="none" stroke-width="0" fill-opacity="0.5" fill="#ff5722"></circle><circle cx="983.9215686008101" cy="254.10559886921055" r="4" stroke="none" stroke-width="0" fill-opacity="0.5" fill="#ff5722"></circle><circle cx="992.7941177091561" cy="249.4275148374245" r="4" stroke="none" stroke-width="0" fill-opacity="0.5" fill="#ff5722"></circle><circle cx="1001.6666666666861" cy="244.74943080563844" r="4" stroke="none" stroke-width="0" fill-opacity="0.5" fill="#ff5722"></circle><circle cx="1010.5392156241578" cy="240.07134677385238" r="4" stroke="none" stroke-width="0" fill-opacity="0.5" fill="#ff5722"></circle><circle cx="1019.4117647325038" cy="235.39326274206655" r="4" stroke="none" stroke-width="0" fill-opacity="0.5" fill="#ff5722"></circle><circle cx="1028.2843136899755" cy="230.7151787102805" r="4" stroke="none" stroke-width="0" fill-opacity="0.5" fill="#ff5722"></circle><circle cx="1037.1568627983215" cy="226.03709467849444" r="4" stroke="none" stroke-width="0" fill-opacity="0.5" fill="#ff5722"></circle><circle cx="1046.0294117557933" cy="221.3590106467086" r="4" stroke="none" stroke-width="0" fill-opacity="0.5" fill="#ff5722"></circle><circle cx="1054.9019607133232" cy="216.68092661492256" r="4" stroke="none" stroke-width="0" fill-opacity="0.5" fill="#ff5722"></circle><circle cx="1063.7745098216692" cy="212.0028425831365" r="4" stroke="none" stroke-width="0" fill-opacity="0.5" fill="#ff5722"></circle><circle cx="1072.647058779141" cy="207.32475855135067" r="4" stroke="none" stroke-width="0" fill-opacity="0.5" fill="#ff5722"></circle><circle cx="1081.519607887487" cy="202.6466745195646" r="4" stroke="none" stroke-width="0" fill-opacity="0.5" fill="#ff5722"></circle><circle cx="1090.3921568450169" cy="197.96859048777856" r="4" stroke="none" stroke-width="0" fill-opacity="0.5" fill="#ff5722"></circle><circle cx="1099.2647059533047" cy="193.2905064559925" r="4" stroke="none" stroke-width="0" fill-opacity="0.5" fill="#ff5722"></circle><circle cx="1108.1372549108346" cy="188.61242242420667" r="4" stroke="none" stroke-width="0" fill-opacity="0.5" fill="#ff5722"></circle><circle cx="1117.0098038683645" cy="183.93433839228533" r="4" stroke="none" stroke-width="0" fill-opacity="0.5" fill="#ff5722"></circle><circle cx="1125.8823529766523" cy="179.2562543604995" r="4" stroke="none" stroke-width="0" fill-opacity="0.5" fill="#ff5722"></circle><circle cx="1134.754901934124" cy="174.57817032871344" r="4" stroke="none" stroke-width="0" fill-opacity="0.5" fill="#ff5722"></circle><circle cx="1143.6274510425283" cy="169.90008629692738" r="4" stroke="none" stroke-width="0" fill-opacity="0.5" fill="#ff5722"></circle><circle cx="1152.5" cy="165.22200226514155" r="4" stroke="none" stroke-width="0" fill-opacity="0.5" fill="#ff5722"></circle></g><g><g><text text-anchor="middle" x="247.5" y="644.6" font-family="Arial" font-size="16" stroke="none" stroke-width="0" fill="#444444">2018</text></g><g><text text-anchor="middle" x="398.3333" y="644.6" font-family="Arial" font-size="16" stroke="none" stroke-width="0" fill="#444444">2019</text></g><g><text text-anchor="middle" x="549.1667" y="644.6" font-family="Arial" font-size="16" stroke="none" stroke-width="0" fill="#444444">2020</text></g><g><text text-anchor="middle" x="700" y="644.6" font-family="Arial" font-size="16" stroke="none" stroke-width="0" fill="#444444">2021</text></g><g><text text-anchor="middle" x="850.8333" y="644.6" font-family="Arial" font-size="16" stroke="none" stroke-width="0" fill="#444444">2022</text></g><g><text text-anchor="middle" x="1001.6667" y="644.6" font-family="Arial" font-size="16" stroke="none" stroke-width="0" fill="#444444">2023</text></g><g><text text-anchor="middle" x="1152.5" y="644.6" font-family="Arial" font-size="16" stroke="none" stroke-width="0" fill="#444444">2024</text></g><g><text text-anchor="end" x="231" y="626.1" font-family="Arial" font-size="16" stroke="none" stroke-width="0" fill="#444444">0.50</text></g><g><text text-anchor="end" x="231" y="558.5286" font-family="Arial" font-size="16" stroke="none" stroke-width="0" fill="#444444">0.55</text></g><g><text text-anchor="end" x="231" y="490.9571" font-family="Arial" font-size="16" stroke="none" stroke-width="0" fill="#444444">0.60</text></g><g><text text-anchor="end" x="231" y="423.38570000000004" font-family="Arial" font-size="16" stroke="none" stroke-width="0" fill="#444444">0.65</text></g><g><text text-anchor="end" x="231" y="355.8143" font-family="Arial" font-size="16" stroke="none" stroke-width="0" fill="#444444">0.70</text></g><g><text text-anchor="end" x="231" y="288.2429" font-family="Arial" font-size="16" stroke="none" stroke-width="0" fill="#444444">0.75</text></g><g><text text-anchor="end" x="231" y="220.6714" font-family="Arial" font-size="16" stroke="none" stroke-width="0" fill="#444444">0.80</text></g><g><text text-anchor="end" x="231" y="153.1" font-family="Arial" font-size="16" stroke="none" stroke-width="0" fill="#444444">0.85</text></g></g></g><g><g><text text-anchor="middle" x="700" y="712.6" font-family="Arial" font-size="16" font-style="italic" stroke="none" stroke-width="0" fill="#222222">Año</text><rect x="247" y="699" width="906" height="16" stroke="none" stroke-width="0" fill-opacity="0" fill="#ffffff"></rect></g><g><text text-anchor="middle" x="105.6" y="384" font-family="Arial" font-size="16" font-style="italic" transform="rotate(-90 105.6 384)" stroke="none" stroke-width="0" fill="#222222">NDVI Promedio</text><path d="M91.99999999999999,621L92.00000000000001,147L108.00000000000001,147L107.99999999999999,621Z" stroke="none" stroke-width="0" fill-opacity="0" fill="#ffffff"></path></g></g><g></g></svg>